<?xml version="1.0" encoding="utf-8"?>
<!-- Generator: Adobe Illustrator 23.0.3, SVG Export Plug-In . SVG Version: 6.00 Build 0)  -->
<svg version="1.1" id="Layer_1" xmlns="http://www.w3.org/2000/svg" xmlns:xlink="http://www.w3.org/1999/xlink" x="0px" y="0px"
	 viewBox="0 0 595.3 841.9" style="enable-background:new 0 0 595.3 841.9;" xml:space="preserve">
<style type="text/css">
	.st0{fill:#DA002F;}
	.st1{fill:#F7B233;}
	.st2{fill:#F8BB4C;}
	.st3{fill:#DE1F47;}
</style>
<g>
	<path class="st0" d="M553.8,675.8c-0.9,2.1-2.7,0.9-4,0.9c-43.8,0.1-87.6,0.1-131.3,0.1c-100.6,0-201.1,0-301.7,0
		c-1-1.8-3-1.3-4.5-1.6c-35.4-7.4-61.9-34.1-68.9-69.5c-0.3-1.6,0.2-3.8-1.6-4.9c0-2.3,0-4.7,0-7c1.4-1.7,1-3.8,1-5.8
		c0-41.5,0-83,0-124.5c0-2,0.5-4-1-5.8c0-0.7,0-1.3,0-2c2.1,0.6,3.3-1.1,4.8-2c72.8-40.9,150.5-54.4,232.5-39.6
		c131,23.5,236,120.8,270.9,249.5C551.2,667.8,551.5,672.1,553.8,675.8z"/>
	<path class="st1" d="M553.8,241.8c0,1,0,2,0,3c-1.6,1.9-1,4.1-1,6.2c0,57.7,0,115.4,0,173.1c0,2,0.5,4-1.1,5.7
		c-1.4-0.8-2.9-1.6-4.3-2.5C417,350.2,279.6,334.5,135.2,380c-32.3,10.2-62.8,24.7-92.3,41.4c0-2.8-0.1-5.7-0.1-8.5
		c0-82.7,0-165.4,0-248.1c145.3,0,290.7,0,436,0c0.9,1.6,2.7,1.1,4,1.4c36.6,7.8,62.6,34.4,69.6,71.1
		C552.7,238.8,552.1,240.7,553.8,241.8z"/>
	<path class="st2" d="M42.9,421.4c-0.4,0.1-0.7,0.3-1.1,0.4c0-84.2,0-168.3,0.1-252.5c0-1.5-1.2-3.4,0.9-4.5c0,82.7,0,165.4,0,248.1
		C42.8,415.7,42.8,418.6,42.9,421.4z"/>
	<path class="st2" d="M553.8,430.8c-0.9,0.1-1.6-0.2-2.1-1c1.5-1.7,1.1-3.8,1.1-5.7c0-57.7,0-115.4,0-173.1c0-2.1-0.7-4.4,1-6.2
		C553.8,306.8,553.8,368.8,553.8,430.8z"/>
	<path class="st3" d="M41.8,457.8c1.5,1.7,1,3.8,1,5.8c0,41.5,0,83,0,124.5c0,2,0.5,4-1,5.8C41.8,548.5,41.8,503.2,41.8,457.8z"/>
</g>
</svg>
