<?xml version="1.0" encoding="utf-8"?>
<!-- Generator: Adobe Illustrator 23.0.3, SVG Export Plug-In . SVG Version: 6.00 Build 0)  -->
<svg version="1.1" id="Layer_1" xmlns="http://www.w3.org/2000/svg" xmlns:xlink="http://www.w3.org/1999/xlink" x="0px" y="0px"
	 viewBox="0 0 595.28 841.89" style="enable-background:new 0 0 595.28 841.89;" xml:space="preserve">
<style type="text/css">
	.st0{fill:#1D4594;}
</style>
<path class="st0" d="M397.87,305.08c0,70.44,0,140.87,0.01,211.31c0,0.58-0.13,0.72-0.72,0.72c-66.36-0.02-132.71-0.02-199.07,0
	c-0.58,0-0.72-0.13-0.72-0.72c0.02-70.31,0.02-140.61,0-210.92c0-0.58,0.13-0.72,0.72-0.72c66.36,0.02,132.71,0.01,199.07,0.02
	c0.23,0,0.53-0.18,0.7,0.15c-66.71,0-133.42,0-200.13,0c0,0.05,0,0.1,0,0.16C264.46,305.08,331.17,305.08,397.87,305.08z
	 M211.14,410.93c0,30.24,0,60.48-0.01,90.72c0,0.58-0.01,0.91,0.79,0.91c57.21-0.02,114.41-0.02,171.62-0.01
	c0.64,0,0.83-0.14,0.83-0.8c-0.02-60.48-0.02-120.96,0-181.44c0-0.64-0.16-0.82-0.81-0.82c-5.22,0.02-10.44,0-15.67,0
	c-51.93,0-103.87,0-155.8-0.02c-0.78,0-0.97,0.18-0.97,0.97C211.15,350.6,211.14,380.77,211.14,410.93z"/>
<ellipse class="st0" cx="297.81" cy="305" rx="141.51" ry="0.11"/>
<path class="st0" d="M232.97,437.82c0-6.7,0.01-13.41-0.01-20.11c0-0.52,0.14-0.83,0.6-1.11c9.74-5.95,19.46-11.93,29.2-17.89
	c0.52-0.32,0.72-0.65,0.72-1.28c-0.02-11.04-0.01-22.08-0.03-33.12c0-0.58,0.15-0.92,0.67-1.23c11.06-6.67,22.12-13.35,33.16-20.05
	c0.43-0.26,0.73-0.26,1.16,0c10.93,6.69,21.86,13.38,32.8,20.04c0.5,0.3,0.7,0.61,0.7,1.22c-0.02,11.02-0.01,22.03-0.04,33.05
	c0,0.72,0.24,1.09,0.83,1.45c9.65,5.9,19.29,11.83,28.94,17.73c0.52,0.32,0.74,0.65,0.73,1.28c-0.02,13.28-0.02,26.55,0,39.83
	c0,0.61-0.2,0.91-0.7,1.21c-11.07,6.75-22.14,13.52-33.19,20.3c-0.53,0.33-0.89,0.34-1.43,0.01c-9.52-5.9-19.06-11.78-28.58-17.68
	c-0.49-0.3-0.82-0.3-1.3-0.01c-9.91,5.92-19.84,11.81-29.75,17.74c-0.5,0.3-0.83,0.28-1.31-0.02c-10.8-6.7-21.61-13.39-32.43-20.06
	c-0.59-0.37-0.77-0.75-0.77-1.42C232.98,451.07,232.97,444.45,232.97,437.82z M263.29,415.23c-5.25,3.25-10.5,6.5-15.77,9.73
	c-0.5,0.3-0.7,0.61-0.7,1.22c0.03,7.56,0.05,15.12-0.01,22.68c-0.01,1.17,0.32,1.82,1.34,2.43c6.18,3.72,12.31,7.52,18.45,11.29
	c0.27,0.16,0.47,0.41,0.89,0.15c5.45-3.37,10.92-6.71,16.44-10.1c-0.65-0.37-1.26-0.7-1.85-1.06c-5.95-3.64-11.9-7.29-17.86-10.92
	c-0.55-0.33-0.77-0.67-0.77-1.33c0.02-8,0.01-16,0.01-24c0-0.04,0-0.08,0-0.13C263.4,415.2,263.35,415.21,263.29,415.23z
	 M318.22,401.73c0-9.74,0-19.48,0.01-29.23c0-0.49-0.12-0.79-0.56-1.06c-6.45-3.93-12.88-7.87-19.31-11.83
	c-0.35-0.21-0.58-0.24-0.95-0.02c-6.54,3.97-13.09,7.92-19.65,11.86c-0.41,0.25-0.55,0.51-0.55,0.98c0.01,19.51,0.01,39.02,0,58.53
	c0,0.47,0.13,0.74,0.55,0.98c6.58,3.81,13.08,7.74,19.57,11.71c0.41,0.25,0.68,0.26,1.09,0.01c6.38-3.9,12.76-7.78,19.16-11.64
	c0.48-0.29,0.66-0.59,0.66-1.15C318.21,421.16,318.22,411.45,318.22,401.73z M311.67,452.49c0.2,0.15,0.31,0.25,0.44,0.33
	c5.18,3.21,10.36,6.41,15.54,9.64c0.49,0.3,0.83,0.2,1.27-0.07c6.37-3.9,12.74-7.78,19.13-11.65c0.49-0.3,0.64-0.61,0.64-1.17
	c-0.02-7.84-0.02-15.69,0-23.53c0-0.56-0.17-0.88-0.65-1.17c-4.05-2.43-8.08-4.89-12.12-7.34c-1.3-0.79-2.6-1.57-4-2.42
	c0,0.42,0,0.7,0,0.98c0,7.79-0.01,15.58,0.01,23.37c0,0.54-0.17,0.83-0.63,1.09c-1.52,0.89-3.02,1.82-4.52,2.74
	C321.79,446.34,316.78,449.38,311.67,452.49z"/>
<path class="st0" d="M263.46,415.31c-0.06-0.03-0.11-0.05-0.17-0.08c0.05-0.01,0.11-0.03,0.16-0.04
	C263.46,415.23,263.46,415.27,263.46,415.31z"/>
</svg>
