<?xml version="1.0" encoding="utf-8"?>
<!-- Generator: Adobe Illustrator 23.0.3, SVG Export Plug-In . SVG Version: 6.00 Build 0)  -->
<svg version="1.1" id="Layer_1" xmlns="http://www.w3.org/2000/svg" xmlns:xlink="http://www.w3.org/1999/xlink" x="0px" y="0px"
	 viewBox="0 0 595.3 841.9" style="enable-background:new 0 0 595.3 841.9;" xml:space="preserve">
<style type="text/css">
	.st0{fill:#1B232D;}
	.st1{fill:#1F2832;}
</style>
<path class="st0" d="M68.2,342.4c1.4-6.4,5.4-10.7,11.1-13.4c4.6-2.2,9.6-2.7,14.1-1c3.8,1.5,8.1,3.3,9.9,7.7
	c0.3,0.7,0.8,1.3,1.5,1.9c1.1,0.8,1.9,1.7,1.5,3.4c-0.2,0.8,0.3,2.1,0.9,2.6c3.9,3.4,5.7,8.2,7.5,12.8c5.2,12.8,5.5,26,2.9,39.5
	c-2.4,12.7-8.1,24.1-12.7,36c-3.8,9.7-7.7,19.5-9.4,29.8c-1.3,7.9-1.5,15.9-1.1,23.9c0.4,7.3,1.2,14.6,2.1,21.9
	c0.2,1.9,0.8,3.7,1.1,5.5c0.1,0.6,0.8,1.8-0.4,2c-0.8,0.2-1-0.8-1.3-1.4c-3-5.7-5.5-11.6-7.8-17.6c-6-15.3-8.8-31.1-7.7-47.5
	c0-0.5,0.1-1.1,0-1.6c0-0.5,0.2-1.2-0.5-1.3c-0.3,0-0.9,0.4-1,0.7c-1.5,3-2.9,6.2-3.2,9.6c-0.5,6.6-0.4,13.2,0.7,19.8
	c0.1,0.6,0.5,1.3-0.2,1.7c-0.8,0.4-1.1-0.4-1.4-0.9c-6-8-10.2-16.8-10.3-26.9c0-6.2,2.3-12.1,5.1-17.6c1.6-3.2,2.4-6.6,2.9-10.2
	c-0.3,0-0.6-0.1-0.6-0.1c-7.1,7.5-13.2,15.5-13.6,26.5c0,0.8-0.2,1.5-1,1.7c-0.8,0.2-1-0.4-1.3-1c-4.5-7.9-5.2-16-1-24.3
	c1.5-3,2.9-6.1,4.3-9.2c0.3-0.8,0.9-2.1-0.2-2.6c-1.1-0.5-1.3,1-1.7,1.6c-5,8-11.7,14.1-19.9,18.7c-0.5,0.3-1,0.6-1.5,0.1
	c-0.5-0.5,0.1-1,0.4-1.4c3.7-5.2,6.9-10.7,9.4-16.5c3.9-9.3,5.1-18.9,4-29c-0.8-6.6-2.5-13-2.1-19.7c0.3-5.1,2.2-9.5,5.3-13.4
	c5-6,11.5-7.7,18.9-5.6c2.3,0.6,4.6,0.4,6.9,0.3c1.1,0,2.8-0.1,2.1-2.1c-0.2-0.5,0.1-0.6,0.4-0.6c1.9,0,1.8-1.4,1.3-2.4
	c-0.6-1.5-1.8-3.2-3.4-2.8c-0.9,0.3-1.2-0.3-1.7-0.2c-1,0.1-2.3-0.8-3.1,0.7c-0.4,0.7-1.6,0.8-1.8,0.7
	C70.7,340.3,69.5,341.4,68.2,342.4z"/>
<path class="st1" d="M255.4,377.3c15.7,0,31.5,0,47.2,0c2,0,2.9-0.1,2-2.7c-1.8-5.4-4.7-7.6-10.4-7.6c-18.2,0.1-36.5,0.1-54.7,0.1
	c-1.6,0-3.2,0-4.8,0c-0.5,0-1.2,0-1.4-0.5c-0.3-0.5,0.1-1,0.5-1.4c3.3-3.5,6.6-7,10-10.5c1.8-1.8,4.1-0.9,6.1-0.8
	c1.1,0.1,0.4,1.3-0.2,1.9c-1.3,1.4-2.6,2.7-3.9,4.1c-0.4,0.4-1.3,0.7-0.9,1.5c0.3,0.7,1.1,0.4,1.7,0.4c8.7,0,17.4,0,26.1,0
	c7.2,0,14.4,0,21.6,0c9.5,0,14.7,4.5,16.1,14c0.2,1.6,1.2,1.5,2.3,1.5c11,0,21.9,0,32.9-0.1c2.8,0,5.6,0,8.3,0.1c1.4,0,2.1-0.3,2-2
	c-0.1-3.7,0.4-7.5-2.7-10.5c-4.8-4.7-13.3-3.1-15.9,3.1c-0.7,1.6-4.2,2.6-5.5,1.6c-0.8-0.6-0.4-1.2-0.2-1.9
	c2.6-8.9,11-12.2,18.5-10.3c8,2,11.9,7.7,11.6,16.1c-0.2,3.9-0.2,3.9,3.8,3.9c4,0,8.1,0,12.1,0.1c1.7,0,2.2-0.5,2.1-2.2
	c-0.1-6.2,0.1-12.4-0.1-18.6c-0.1-2.5,1-2.8,3.1-2.8c2.2-0.1,2.5,0.8,2.5,2.7c-0.1,7.8-0.1,15.6,0,23.5c0,2.2-0.8,2.6-2.6,2.6
	c-6-0.1-12-0.1-18.1-0.1c-0.7,0-1.8-0.5-2.2,0.4c-0.4,0.9,0.2,1.7,0.7,2.5c1.2,1.7,0.1,4.5-2,5.1c-0.8,0.2-1.2-0.3-1.6-0.8
	c-1.3-1.5-2.4-3.2-2.8-5.1c-0.3-1.6-1.1-2.1-2.8-2.1c-30.6,0.1-61.3,0.1-91.9,0.1c-29.2,0-58.4,0-87.6,0c-3.7,0-6.6-0.2-8.2,4.6
	c-1.6,4.7-6,7.4-11.3,7.8c-1.1,0.1-2.6,0.7-2.6-1.2c0-1.5-1-3.8,2-4c2-0.2,3.7-1,5.2-2.5c2-1.9,3-4.2,2.9-7
	c-0.1-5.9,0.1-11.9-0.1-17.8c-0.1-2.8,1.6-2.8,3.4-2.8c1.9,0,2.6,0.9,2.5,2.9c-0.2,4.1-0.1,8.3-0.2,12.4c0,1.7,0.5,2.5,2.4,2.5
	c9-0.1,18-0.1,27,0c1.9,0,2.5-0.4,2.4-2.4c-0.2-4.3,0.1-8.6,0-12.9c0-1.7,0.5-2.4,2.4-2.3c1.7,0.1,3.2-0.1,3.2,2.4
	c-0.1,4.1,0.3,8.3-0.1,12.4c-0.2,2.8,1,2.9,3,2.8c14.5-0.1,28.9-0.1,43.4-0.1C252.9,377.2,254.1,377.2,255.4,377.3
	C255.4,377.2,255.4,377.2,255.4,377.3z"/>
<path class="st1" d="M507.6,382.4c-7.4,0-14.7,0.1-22.1-0.1c-1.6,0-2.1,0.9-2.3,2c-1.5,6.1-7.6,11.1-15.1,10.9
	c-1.5,0-3.1,0.3-3.1-2.2c0-2.1,0.4-3.4,2.9-3.2c3.9,0.3,7-1.2,9-4.7c1.2-2,0.8-2.8-1.5-2.8c-3.9,0-7.7,0-11.6,0.1
	c-2,0.1-2.6-0.7-2.7-2.7c-0.4-6.1,0.9-11.3,6.1-15.2c3.6-2.7,7.7-3,12-2.9c4.9,0.1,4.8,0.1,4.5,5.2c-0.2,2.7,0.2,5.4,0,8.1
	c-0.1,1.7,0.3,2.3,2.2,2.3c7.5-0.1,15.1,0.1,22.6-0.1c5.3-0.2,10.5,0.2,15.7,0.2c3.4,0,1.3-2.4,1.8-3.6c0.6-1.6-0.5-1.9-1.9-1.9
	c-3.9,0.1-7.9,0-11.8,0c-2.1,0-3.1-0.6-3.1-2.9c0.1-4.5,0.2-9,3.7-12.5c0.2-0.2,0.5-0.7,0.5-0.9c-0.2-1.5-1.3-3.1,1.6-3.4
	c1.3-0.1,2.4-1,4.1-0.7c3.2,0.6,6.6,0.2,9.9,0.1c1.9-0.1,2.5,0.6,2.5,2.5c-0.1,7-0.1,14,0,21c0,1.6-0.1,3.1,0.5,4.7
	c0.6,1.5,0.1,2.8-2.3,2.8C522.3,382.4,514.9,382.5,507.6,382.4C507.6,382.5,507.6,382.4,507.6,382.4z M520.3,366.5
	C520.3,366.5,520.3,366.5,520.3,366.5c1.4-0.1,2.9,0,4.3-0.1c0.8-0.1,1.9-0.2,1.8-1.4c0-2.4-0.1-4.8-0.1-7.2c0-1-0.5-1.4-1.4-1.4
	c-3.9-0.3-8.4,2.6-9.4,6.4c-0.8,3.3-0.6,3.8,2.6,3.8C518.9,366.5,519.6,366.5,520.3,366.5z M478.2,370.6c-0.7-0.9,1.3-3-1.2-3.5
	c-4.4-0.8-9.8,3.2-10.2,7.6c-0.1,1.3-0.6,3.2,2,2c0.9-0.4,2.1-0.1,3.2,0C476.5,376.8,478.2,375.2,478.2,370.6z"/>
<path class="st1" d="M210,432.6c2.1-5.2,3.8-9.7,5.7-14.2c0.7-1.6,1.2-3.2,3.7-3.1c2.2,0.1,3.2,1,3.9,2.8c1.8,4.7,3.6,9.3,5.7,14.5
	c1.6-3.9,3.1-7.3,4.4-10.7c0.4-1.1,1.1-2.1,1.3-3.2c0.5-2.8,2.2-3.6,4.9-3.4c1.8,0.2,1.9,0.8,1.4,2.2c-3.3,8.3-6.7,16.5-10,24.8
	c-0.4,0.9-0.8,1.9-2,1.8c-1.2-0.1-1.6-1.1-2-2c-2.1-5-4.1-10.1-6.1-15.1c-0.3-0.7-0.3-1.4-1.3-1.4c-1,0-1.3,0.6-1.6,1.4
	c-2,5.1-4.1,10.2-6.1,15.4c-0.3,0.8-0.7,1.7-1.8,1.7c-1.3,0-1.7-0.8-2.1-1.8c-3.4-8.3-6.7-16.7-10.1-25c-0.3-0.9-0.2-1.4,0.5-1.8
	c2.1-1.1,4.8,0.2,5.8,2.5C205.9,422.7,207.8,427.3,210,432.6z"/>
<path class="st1" d="M432.4,429.7c0.2,8.3-6.2,14.5-15.1,14.7c-8.5,0.2-15.2-6.1-15.3-14.2c-0.1-8.3,6.4-14.8,15-14.9
	C425.5,415,432.2,421.3,432.4,429.7z M407.7,429.7c-0.7,6.1,4.9,9.3,9.1,9.7c5.5,0.4,10-4.9,10-9.6c0-4.8-4.1-9.6-9.8-9.5
	C410.9,420.5,407.2,425,407.7,429.7z"/>
<path class="st1" d="M396.1,429.9c0,3.9-0.1,7.9,0,11.8c0.1,2-0.9,2.4-2.6,2.4c-1.7,0-3.1-0.1-3-2.4c0.1-2.5,0-5,0.1-7.5
	c0-1.2-0.2-1.9-1.6-1.9c-3.4,0-6.8,0-10.2-0.1c-1.4,0-1.5,0.9-1.5,1.9c0,2.5-0.1,5,0,7.5c0.1,2.1-1.1,2.3-2.7,2.3
	c-1.6,0-2.9-0.1-2.8-2.2c0.1-8.1,0.1-16.2,0.1-24.2c0-2.1,1.2-2.2,2.8-2.3c1.7,0,2.7,0.4,2.6,2.4c-0.1,2.4,0.1,4.9-0.1,7.3
	c-0.1,1.6,0.3,2.3,2.1,2.2c3-0.1,6.1-0.1,9.2,0c1.6,0,2.3-0.4,2.1-2.1c-0.2-2.4,0-4.8-0.1-7.3c-0.1-2,1-2.4,2.7-2.4
	c1.7,0,3,0.3,3,2.4C396.1,421.9,396.1,425.9,396.1,429.9C396.1,429.9,396.1,429.9,396.1,429.9z"/>
<path class="st1" d="M283.5,444.1c-3.3,0-6.6,0-10,0c-0.7,0-1.5,0.5-2-0.3c-0.5-0.9,0.3-1.5,0.7-2.1c4.4-6,8.8-12,13.1-18
	c0.5-0.7,1.6-1.3,0.9-2.3c-0.5-0.8-1.5-0.2-2.3-0.2c-3.2-0.1-6.4-0.1-9.7,0c-1.7,0.1-2.7-0.4-2.5-2.2c0.2-1.5-0.5-3.7,2.4-3.6
	c7,0.1,14,0.1,21,0.1c0.6,0,1.3,0,1.6,0.6c0.5,0.9-0.2,1.3-0.6,1.9c-4.6,6.3-9.2,12.6-13.8,18.8c-0.3,0.5-1.1,0.9-0.7,1.6
	c0.4,0.7,1.1,0.3,1.7,0.3c3.6,0,7.2,0.1,10.8,0c2.2-0.1,2.5,1,2.5,2.8c0,1.8-0.5,2.6-2.5,2.6C290.7,444,287.1,444.1,283.5,444.1z"/>
<path class="st1" d="M511,437.7c0-6.5,0.1-12.9,0-19.4c0-2.3,0.7-3.1,3-3c3.4,0.1,6.8-0.5,10,1.2c5,2.7,6,8.5,2.2,12.7
	c-1.1,1.1-1.3,1.6-0.1,3c2.5,3,4.5,6.5,6.7,9.8c0.7,1.1,0.6,1.5-1,1.7c-4.1,0.7-5.8-1.7-7.4-4.6c-1.2-2.1-2.4-4.2-4.3-5.8
	c-0.8-0.7-1.8-1.1-2.7-0.7c-1,0.4-0.5,1.4-0.5,2.2c0,2.2-0.1,4.5,0,6.7c0.1,2.2-1.4,2.3-2.8,2.2c-1.4-0.1-3.3,0.1-2.9-2.4
	C511.2,440.3,511.1,439,511,437.7C511.1,437.7,511,437.7,511,437.7z M516.4,423.7c0,1.7,0.1,3.6,2.8,3.7c2.1,0.1,3.8-1.5,3.8-3.4
	c0-2.2-2-3.7-4.7-3.8C515.7,420.1,516.5,422,516.4,423.7z"/>
<path class="st1" d="M443.9,426.6c2.9-3.2,5.7-5.9,8-8.9c1.9-2.4,4.3-2.5,6.7-2.2c1.9,0.3,0.9,1.5,0.2,2.3c-2.8,3-5.5,6.1-8.4,9.1
	c-1.5,1.6-1.9,2.6,0,4.3c3.9,3.5,7.2,7.5,11.3,10.7c0.4,0.3,0.9,0.8,0.7,1.3c-0.2,0.6-0.9,0.5-1.4,0.5c-3.1,0.3-5.9-0.1-8.1-2.8
	c-2.6-3.1-5.4-5.9-8.2-8.8c-0.3,0.2-0.6,0.4-0.9,0.6c0,3-0.1,5.9,0,8.9c0.1,1.9-0.6,2.6-2.4,2.7c-1.8,0.1-3.3-0.1-3.3-2.4
	c0-8.1,0-16.3,0-24.4c0-1.4,0.9-2,2.3-1.9c1.5,0.1,3.3-0.3,3.3,2C444,420.3,443.9,423.1,443.9,426.6z"/>
<path class="st1" d="M468.2,443.6c-3,0-3.1-0.1-2-2.7c3.2-7.6,6.4-15.3,9.7-22.9c0.6-1.4,1-2.8,3.1-2.8c1.9,0,2.4,1.3,3,2.6
	c3.5,7.9,6.9,15.8,10.5,23.7c0.8,1.8,0.4,2.1-1.4,2.2c-2.3,0.1-4-0.4-4.6-2.9c-0.8-3.6-3-5.2-6.7-4.5c-0.2,0-0.4,0-0.5,0
	c-5.3,0-5.3,0-7.3,4.8C471,442.9,470.3,444.4,468.2,443.6z M479.2,431.3c1,0,2.7,0.5,2.3-1c-0.5-1.6-0.7-4.4-2.6-4.5
	c-2.1-0.1-2.2,2.6-2.4,4.1C476.2,431.9,478.1,431.2,479.2,431.3z"/>
<path class="st1" d="M264.1,444.1c-1.9,0.4-3-0.6-3.4-2.3c-1.1-4.6-3.9-6-8.5-5.5c-4.5,0.5-4.7,0.1-6.2,4.4c-0.9,2.5-2.1,3.8-5,3.6
	c-1.9-0.2-1.9-1-1.3-2.3c2.4-5.7,4.9-11.4,7.3-17.2c1-2.4,2-4.8,3-7.2c0.5-1.2,1-2.2,2.7-2.2c1.6,0,2.3,0.9,2.8,2
	c3.7,8.2,7.4,16.4,11,24.7C267.6,444.6,265.2,443.8,264.1,444.1z M252.7,431.5c3.2,0,3.5-0.4,2.2-3.3c-0.6-1.2-1.2-2.4-1.8-3.7
	c-1.6,0.9-1.6,2.7-2.2,4.1C249.5,431.4,249.6,431.5,252.7,431.5z"/>
<path class="st1" d="M342.4,444.1c-1.8,0.6-2.7-0.7-3.1-2.2c-1.1-5-4.3-5.9-9-5.6c-3.1,0.2-4.9,0.9-5.7,4c-0.6,2-1.2,4.3-4.4,4
	c-2.3-0.2-2.6-0.9-1.8-2.8c2.1-4.9,4.3-9.8,6.4-14.7c1.3-2.9,2.4-5.9,3.7-8.8c0.5-1.2,0.9-2.4,2.7-2.5c1.9-0.1,2.5,0.9,3.1,2.3
	c3.4,7.8,6.8,15.7,10.3,23.5C345.7,444.1,345.7,444.1,342.4,444.1z M331.6,431.5c3.1,0,3.2-0.2,1.9-2.9c-0.4-0.8-0.9-1.6-1.1-2.4
	c-0.2-0.7-0.4-1.2-1.2-1.1c-0.8,0-0.9,0.6-1.1,1.3c-0.2,0.7-0.5,1.3-0.7,2C328.1,431.2,328.3,431.4,331.6,431.5z"/>
<path class="st1" d="M196,444.1c-1.7,0.4-2.8-0.5-3.3-2.4c-1.1-4.1-3.3-5.7-8-5.6c-4.2,0.1-6.2,1.4-7.1,5.2c-0.6,2.8-2.6,3-4.9,2.9
	c-1.3-0.1-1.8-0.7-1.2-1.9c3.6-8.3,7.1-16.7,10.7-25.1c0.5-1.2,1.3-1.8,2.7-1.8c1.4,0,2,0.6,2.6,1.8c3.6,8.2,7.3,16.4,11,24.6
	C199.6,444.5,197.7,444.1,196,444.1z M184.7,431.5c3.6,0,3.6,0,2.1-3.3c-0.6-1.3-0.6-3.5-2.2-3.5c-1.2,0-1.3,2.3-1.8,3.5
	C181.4,431.5,181.5,431.5,184.7,431.5z"/>
<path class="st1" d="M152.1,429.7c0-3.9,0.1-7.9,0-11.8c-0.1-1.9,0.7-2.5,2.5-2.5c3.7,0.1,7.4,0.1,11,0c1.9,0,2.7,0.8,2.7,2.7
	c0,1.9-0.5,2.9-2.6,2.7c-2.1-0.1-4.3,0-6.5,0c-2.5,0-1.7,1.8-1.7,3.1c-0.1,1.2-0.2,2.6,1.8,2.4c2-0.2,3.9,0,5.9-0.1
	c2.2-0.1,3,0.8,3,3c0.1,2.3-1.1,2.5-2.8,2.4c-1.9-0.1-3.8,0-5.6,0c-1.8-0.1-2.4,0.7-2.3,2.4c0.1,2.7,0,5.4,0.1,8.1
	c0.1,2.3-1.5,2.1-2.9,2.1c-1.4,0-2.7-0.1-2.6-2.1C152.2,438,152.1,433.8,152.1,429.7C152.1,429.7,152.1,429.7,152.1,429.7z"/>
<path class="st1" d="M438.8,372.2c0,2.8,0,5.6,0,8.3c-0.2,7.6-5.6,13.5-13.2,14.3c-1.3,0.1-2.5,0.2-2.4-1.5c0-1.4-0.9-3.2,1.5-3.6
	c3.2-0.4,5.7-1.8,7.3-4.7c1.1-1.9,1.2-3.9,1.2-5.9c0-5.6,0.1-11.3,0-16.9c-0.1-3.1,1.9-2.5,3.7-2.6c2.1-0.1,1.9,1.4,1.9,2.8
	C438.8,365.5,438.9,368.9,438.8,372.2C438.8,372.2,438.8,372.2,438.8,372.2z"/>
<path class="st1" d="M349.7,429.9c0-3.9,0.1-7.7,0-11.6c0-1.9,0.4-3,2.7-2.9c2.1,0,2.8,0.8,2.8,2.9c-0.1,6.1,0,12.2-0.1,18.3
	c0,1.8,0.4,2.6,2.4,2.5c2.4-0.2,4.8,0,7.3-0.1c2-0.1,2.4,0.9,2.4,2.7c0,1.8-0.4,2.6-2.4,2.5c-4.2-0.1-8.4-0.1-12.7,0
	c-1.8,0-2.4-0.6-2.3-2.4C349.8,437.8,349.7,433.8,349.7,429.9C349.7,429.9,349.7,429.9,349.7,429.9z"/>
<path class="st1" d="M396.5,368.4c0-3.9,0-7.9,0-11.8c0-1.6,0-3,2.2-2.8c1.8,0.1,3.8-0.3,3.7,2.7c-0.2,7.9-0.1,15.8-0.1,23.7
	c0,2.3-1.6,2.4-3.1,2.3c-1.4-0.1-2.7-0.2-2.5-2.5c0.3-3.8,0.1-7.7,0.1-11.6C396.6,368.4,396.6,368.4,396.5,368.4z"/>
<path class="st1" d="M453,368.3c0,3.9-0.1,7.7,0,11.6c0.1,2.5-1.6,2.4-3.2,2.5c-1.7,0.1-2.7-0.5-2.7-2.4c0.1-7.8,0-15.6,0-23.4
	c0-2.7,0.7-3.3,4-3.1c1.9,0.1,1.8,1.7,1.8,3C453,360.4,453,364.4,453,368.3C453,368.3,453,368.3,453,368.3z"/>
<path class="st1" d="M503.9,429.6c0,4-0.2,8.1,0,12.1c0.2,3.3-2.3,1.7-3.5,2c-1.3,0.4-2-0.4-2-2c0.1-8,0.1-15.9,0-23.9
	c0-2.3,1.2-2.4,2.9-2.4c1.7,0,2.7,0.3,2.6,2.4C503.8,421.7,503.9,425.7,503.9,429.6C503.9,429.6,503.9,429.6,503.9,429.6z"/>
<path class="st1" d="M435.7,351.5c1.7,0.1,3.4-0.4,3.2,1.8c-0.1,1.7,0.2,3.9-2.6,3.6c-1.4-0.1-3.2,0.3-3.1-2.4
	C433.3,352.2,433.7,351.1,435.7,351.5z"/>
<path class="st1" d="M179.5,387.3c2.3-0.5,2.6,0.8,2.7,2.7c0,1.8-0.5,2.7-2.4,2.6c-1.7-0.1-3.3,0-3.3-2.6
	C176.5,387.6,177.5,387,179.5,387.3z"/>
<path class="st1" d="M189,387.4c2-0.4,3.3-0.1,3.2,2.3c0,2.1-0.8,2.9-2.9,2.9c-1.7,0-3.2,0-3.2-2.5
	C186.2,387.9,186.8,386.8,189,387.4z"/>
<path class="st1" d="M519.5,342.9c2-0.4,3.3-0.1,3.2,2.3c0,2.1-0.8,2.9-2.9,2.9c-1.7,0-3.2,0-3.2-2.5
	C516.7,343.4,517.3,342.2,519.5,342.9z"/>
</svg>
