<?xml version="1.0" encoding="utf-8"?>
<!-- Generator: Adobe Illustrator 23.0.3, SVG Export Plug-In . SVG Version: 6.00 Build 0)  -->
<svg version="1.1" id="Layer_1" xmlns="http://www.w3.org/2000/svg" xmlns:xlink="http://www.w3.org/1999/xlink" x="0px" y="0px"
	 viewBox="0 0 595.28 841.89" style="enable-background:new 0 0 595.28 841.89;" xml:space="preserve">
<style type="text/css">
	.st0{fill:#0F98B8;}
	.st1{fill:#1DAD5B;}
	.st2{fill:#0B72A0;}
	.st3{fill:#283371;}
	.st4{fill:#F5F6F8;}
</style>
<g>
	<path class="st0" d="M314.15,415.53c-5.34-4.64-10.28-9.7-15.36-14.63c-16.48-15.99-32.89-32.04-49.33-48.07
		c-4.79-4.67-9.57-9.34-14.33-14.04c-0.69-0.68-1.35-1.14-2.41-1.1c-5.43,0.22-10.86,0.42-16.29,0.51
		c-1.64,0.03-1.96,0.74-1.63,2.09c1.27,5.19,2.55,10.38,3.84,15.57c1.36,5.52,2.81,11.01,4.05,16.56c0.3,1.36,1.36,2.64,0.69,4.17
		c-1.57-2.99-1.67-6.4-2.73-9.55c-0.62-1.83-0.83-3.79-1.3-5.68c-1.15-4.65-2.35-9.29-3.51-13.94c-0.61-2.46-1.4-4.87-1.7-7.41
		c-0.08-0.71-0.88-1.01-1.39-0.74c-0.96,0.5-1.76,0.15-2.69,0c-1.16-0.19-2.37-0.04-3.57-0.04c-0.94,0-1.07,0.53-0.92,1.32
		c0.69,3.48,1.35,6.96,2.04,10.44c0.6,3.01,1.23,6.02,1.85,9.04c0.44,2.17,0.96,4.34,1.29,6.53c0.43,2.85,1.56,5.58,1.44,8.52
		c-0.12,0.01-0.24,0-0.35-0.03c-0.64-3.43-1.23-6.88-1.93-10.3c-1.66-8.03-3.42-16.03-5.01-24.07c-0.28-1.42-0.73-1.8-2.14-1.78
		c-6.09,0.11-12.17,0.58-18.26,0.74c-8.81,0.23-17.6,0.78-26.4,1.03c-1.47,0.04-1.9,0.23-1.01,1.77
		c7.2,12.37,14.31,24.8,21.46,37.21c5.54,9.61,11.1,19.21,16.65,28.82c0.41,1.53,1.27,2.79,2.34,3.93l0.02,0.04
		c1.15,3.03,2.87,5.73,4.74,8.35l0.01,0.02c0.76,1.99,1.7,3.88,3.22,5.41l-0.04,0.1l0.1,0.04c-0.08,0.49,0.15,0.87,0.39,1.28
		c1.96,3.33,3.9,6.68,5.84,10.02c1.54,2.65,2.76,5.49,4.76,7.86l-0.01-0.01c0.29,1.14,0.73,2.2,1.7,2.94l-0.04,0.11l0.09,0.07
		c1.14,2.9,2.8,5.51,4.62,8.01l0,0c1.79,3.9,3.9,7.61,6.39,11.11l0.01,0.02c0.41,1.84,1.69,3.18,2.72,4.66
		c0.41,2.09,0.95,4.17,1.2,6.28c0.19,1.62,0.45,3.52,1.14,4.63c1.24,1.99,1.1,4.18,1.47,6.14c0.47,2.48,1.25,4.93,1.64,7.45
		c0.63,4.02,1.24,8.08,2.19,12.04c0.41,1.7,0.49,3.52,0.99,5.07c0.95,2.93,1.83,5.78,1.71,8.88c-2.29-3.03-3.59-6.58-5.3-9.91
		c-8.1-15.74-16.11-31.52-24.12-47.3c-8.73-17.2-17.42-34.43-26.16-51.63c-8.25-16.25-16.55-32.47-24.81-48.71
		c-3.86-7.59-7.65-15.23-11.54-22.8c-0.64-1.25-0.4-1.95,0.5-2.93c2.31-2.54,5.41-2.81,8.47-3.19c9.59-1.19,19.18-2.34,28.78-3.49
		c4.01-0.48,8.03-0.91,12.04-1.37c2.44-0.28,2.56-0.48,2.08-2.83c-1.35-6.74-2.66-13.48-4.01-20.22c-0.35-1.75-0.65-3.52-1.19-5.22
		c-0.44-1.4-0.03-2.25,1.07-3.05c1.45-1.05,2.86-2.14,4.2-3.32c0.95-0.84,1.59-0.77,2.51,0.1c8.61,8.13,17.27,16.21,25.92,24.31
		c1.6,1.49,3.25,2.92,4.81,4.46c0.95,0.94,1.96,1.12,3.25,0.96c8.81-1.09,17.62-2.1,26.43-3.19c2.56-0.32,5.1-0.82,7.69-0.93
		c0.49-0.02,1.22,0.02,1.31-0.62c0.08-0.64-0.61-0.72-1.09-0.94c-10.47-4.75-20.93-9.51-31.38-14.28c-0.59-0.27-1.15-0.64-1.72-0.96
		c0.52,0.04,1.11-0.05,1.56,0.15c5.32,2.36,10.72,4.59,15.92,7.2c6.26,3.15,12.73,5.8,19.15,8.59c0.24,0.11,0.58,0.15,0.48,0.48
		c-0.06,0.21-0.3,0.48-0.5,0.53c-0.51,0.11-1.05,0.09-1.57,0.15c-4.51,0.54-9.02,1.09-13.53,1.63c-3.2,0.39-6.4,0.76-9.6,1.15
		c-4.44,0.54-8.89,1.08-13.33,1.64c-0.29,0.04-0.69,0.24-0.8,0.48c-0.26,0.56,0.39,0.5,0.63,0.75c2.44,2.52,5.59,4.23,7.86,6.92
		c0.64,0.75,1.28,0.98,2.2,0.98c3.97,0,7.91-0.64,11.89-0.42c4.77,0.27,9.51-0.52,14.28-0.42c0.4,0.01,0.8-0.01,1.09-0.35
		c1.87-0.04,3.73-0.08,5.6-0.12c6.1,0.31,12.17-0.21,18.24-0.75c0.29,0,0.58-0.01,0.87-0.01c1-0.03,1.99-0.06,2.99-0.09l-0.01,0
		c-0.64,0.6-1.46,0.55-2.24,0.58c-12.24,0.48-24.48,0.94-36.72,1.43c-4.83,0.19-9.66,0.44-14.48,0.69c-0.5,0.03-1.16-0.16-1.4,0.47
		c-0.25,0.65,0.42,0.88,0.78,1.22c11.14,10.46,22.27,20.94,33.42,31.38c8.91,8.35,17.86,16.66,26.79,24.99
		c4.47,4.17,8.91,8.37,13.36,12.56c0.38,0.36,0.85,0.65,0.94,1.23c-0.19,0.69-0.06,0.98,0.77,1.75c2.58,2.37,2.49,2.72-0.05,4.99
		c-1.25,1.12-3.3,1.98-2.4,4.44c0.24,0.64-0.68,1.21-1.14,0.92c-0.76-0.48-1.88-0.47-2.31-1.38c-0.95-1.96-3.19-2.57-4.37-4.29
		C314.28,414.85,314.21,415.29,314.15,415.53z M215.04,330.03c-2.32,0.96-2.3,0.95-1.31,3.61c0.18,0.47,0.16,1.05,0.13,1.57
		c-0.13,1.82,0.72,2.45,2.49,2.45c3.5,0.01,7.04,0.15,10.46-0.54c1.73-0.35,3.62,0.54,5.03-0.43c-1.46-1.59-3.03-2.97-4.17-4.64
		c-1.6-2.35-3.67-3.16-6.35-2.85c0.58-0.39,1.25-0.31,1.88-0.34c0.76-0.03,1.05-0.35,0.93-1.08c2.78,0.14,5.34,1.02,7.74,2.38
		c0.45,0.25,0.88,0.42,1.25,0.04c0.19-0.2,0.21-0.6,0.22-0.92c0.01-0.59-0.39-0.78-0.92-0.79c-0.6-0.02-1.19-0.01-1.78-0.08
		c-0.33-0.04-0.65-0.27-0.64-0.64c0.01-0.43,0.39-0.52,0.72-0.48c1.52,0.2,3.16-0.57,4.58,0.62c0.36,0.31,0.94,0.25,1.52-0.07
		c-0.35-0.39-0.54-0.65-0.78-0.87c-5.12-4.55-9.9-9.46-14.92-14.12c-5.21-4.85-10.69-9.44-15.6-14.61
		c-0.31-0.33-0.72-0.57-1.09-0.85c-0.33-0.26-0.72-0.43-1.08-0.14c-1.49,1.19-2.96,2.39-4.42,3.62c-0.78,0.65-0.72,1.33,0,2.01
		c2.34,2.22,4.66,4.45,6.97,6.65c0.73-0.2,0.18-1.33,1.07-1.25c0.4,0.04,0.6,0.38,0.53,0.7c-0.31,1.39,0.56,2.51,0.82,3.76
		c-0.05,0.19-0.17,0.4-0.13,0.57c1.26,5.29,2.54,10.58,3.79,15.88c0.15,0.64,0.52,0.84,1.13,0.82
		C213.73,329.98,214.38,330.02,215.04,330.03z M230.25,332.38c-0.4-0.85-0.44-1.53-1.16-1.76c-0.1-0.03-0.39,0.17-0.4,0.28
		C228.63,331.74,229.08,332.16,230.25,332.38z M231.05,333.33c0.13,0.9,0.51,1.26,1.43,1.41
		C232.29,333.84,231.93,333.47,231.05,333.33z M227.32,330.2c0.52,0.2,0.72,0.07,0.77-0.24c0.06-0.4-0.19-0.61-0.55-0.64
		c-0.31-0.03-0.76-0.05-0.7,0.4C226.87,329.95,227.25,330.14,227.32,330.2z M237.18,329.97c-0.11-0.05-0.24-0.15-0.32-0.12
		c-0.08,0.03-0.1,0.2-0.15,0.31c0.11,0.05,0.24,0.15,0.32,0.12C237.11,330.25,237.14,330.08,237.18,329.97z"/>
	<path class="st1" d="M314.15,415.53c0.06-0.23,0.13-0.68,0.42-0.25c1.18,1.72,3.42,2.33,4.37,4.29c0.44,0.9,1.55,0.9,2.31,1.38
		c0.46,0.29,1.38-0.29,1.14-0.92c-0.91-2.46,1.15-3.32,2.4-4.44c2.54-2.27,2.63-2.62,0.05-4.99c-0.83-0.76-0.96-1.06-0.77-1.75
		c0.14,0.13,0.29,0.26,0.43,0.39c0.13,0.13,0.27,0.26,0.4,0.39c4.41,3.6,8.42,7.62,12.58,11.49c9.73,9.06,19.44,18.15,29.15,27.23
		c0.34,0.32,0.74,0.59,1,0.96c1.01,1.5,2.14,1.63,3.7,0.72c2.22-1.3,4.55-2.43,6.86-3.56c1.16-0.57,1.39-1.21,0.7-2.33
		c-2.91-4.72-5.78-9.46-8.66-14.19c-0.53-1.38-1.14-2.7-2.3-3.68c0,0,0.02,0.05,0.02,0.05c-0.06-0.6-0.26-1.13-0.58-1.65
		c-2.64-4.32-5.19-8.71-7.9-12.98c-1.96-3.09-3.47-6.47-5.9-9.25c0,0,0.02,0.04,0.02,0.04c-0.36-1.62-1.33-2.88-2.4-4.09
		c0.03-0.14-0.02-0.22-0.16-0.26c-0.44-1.41-1.23-2.59-2.24-3.64c0,0,0.01,0.04,0.01,0.04c0.07-0.74-0.47-1.22-0.8-1.77
		c-2.71-4.59-5.39-9.2-8.23-13.71c-2.06-3.27-3.75-6.79-6.21-9.81c0,0-0.04-0.12-0.04-0.12c0.08-0.51-0.24-0.74-0.65-0.89
		c0,0,0.02,0.03,0.02,0.03c-0.43-2.05-1.83-3.6-2.88-5.31c-2.2-3.56-4.02-7.36-6.69-10.62c0,0,0.01,0.02,0.01,0.02
		c-1-2.9-3.05-5.2-4.46-7.86c-0.4-0.76-0.74-1.39,0.22-2.01c0.95-0.61,1.42-0.09,1.93,0.61c0.96,1.32,1.7,2.82,3,3.88
		c-0.05,0.13,0,0.21,0.13,0.24c2.06,3.54,4.4,6.88,7.07,9.99c0,0-0.01-0.02-0.01-0.02c0.97,2.12,2.34,3.96,3.96,5.63
		c0,0-0.02-0.03-0.02-0.03c0.99,2.14,2.38,4.01,3.99,5.72c5.44,7.79,10.87,15.6,16.34,23.38c10.37,14.77,20.77,29.52,31.14,44.29
		c2.99,4.26,3.01,4.37,7.64,2.02c9.11-4.63,18.16-9.38,27.24-14.06c1.14-0.59,2.26-1.48,3.59-0.24c1.38,1.27,3.03,2.11,2.43,4.65
		c-2.03,8.61-3.84,17.28-5.7,25.93c-1.64,7.62-3.27,15.24-4.82,22.87c-0.26,1.3-0.98,1.45-1.96,1.34c-3.95-0.43-7.89-0.9-11.83-1.36
		c-0.26-0.03-0.52-0.22-0.77-0.19c-3.47,0.43-4.9-1.83-6.39-4.43c-3.75-6.54-7.73-12.94-11.58-19.41c-0.74-1.25-1.4-1.64-2.77-0.68
		c-1.55,1.09-3.3,1.92-5,2.79c-1.26,0.65-1.28,1.31-0.26,2.23c2.6,2.35,5.13,4.78,7.74,7.1c1.05,0.93,1.38,1.9,1.17,3.32
		c-0.61,4.19-1.14,8.4-1.52,12.61c-0.18,1.97-1.01,2.84-2.93,3.32c-4.87,1.22-9.68,2.68-14.52,4.03c-1.08,0.3-2.18,0.54-3.27,0.81
		c0.07-0.18,0.14-0.51,0.22-0.52c2.02-0.11,3.61-1.49,5.55-1.85c1.84-0.35,2.64-1.98,1.91-3.63c-0.61-1.39-1.32-2.69-2.25-3.91
		c-0.77-1-1.48-2.23-1.66-3.45c-0.28-1.88-0.47-2.16-2.27-1.25c-0.96,0.48-1.75,0.55-2.34-0.5c2.23-0.77,4.45-1.58,6.7-2.28
		c1.18-0.37,1.19-0.9,0.44-1.66c-1.3-1.31-2.59-2.65-3.98-3.86c-1.01-0.88-1.61-2.32-3.16-2.53c0.09-1.14,0.05-2.25-0.81-3.15
		c0.68-0.04,0.94-0.37,0.66-1.01c-0.13-0.3-0.46-0.61-0.74-0.38c-0.53,0.44,0.18,0.92,0.09,1.41c-1.07-0.39-1.96-0.78-1.72-2.3
		c0.19-1.15-0.76-1.1-1.35-0.57c-0.79,0.7-1.26,0.34-1.79-0.23c-5.84-5.65-11.7-11.27-17.52-16.94
		c-7.63-7.43-15.23-14.9-22.84-22.35c-0.47-0.46-0.89-0.97-1.34-1.45c-0.11-0.11-0.21-0.22-0.32-0.34
		C314.46,415.84,314.3,415.69,314.15,415.53z M404.96,461.87c0.62-0.16,0.85-0.72,1.1-1.25c4.41-9.34,8.82-18.69,13.24-28.02
		c0.17-0.36,0.48-0.72,0.09-1.06c-0.39-0.34-0.72,0.05-1.05,0.23c-2.3,1.28-4.6,2.55-6.89,3.84c-5.5,3.12-11.01,6.24-16.49,9.39
		c-0.72,0.41-1.83,0.66-0.84,2.01c3.38,4.64,6.65,9.36,9.98,14.04C404.33,461.36,404.43,461.82,404.96,461.87z"/>
	<path class="st2" d="M212.21,375.08c0.13-2.94-1.01-5.67-1.44-8.52c-0.33-2.19-0.85-4.35-1.29-6.53c-0.61-3.01-1.24-6.02-1.85-9.04
		c-0.69-3.48-1.35-6.96-2.04-10.44c-0.16-0.79-0.02-1.32,0.92-1.32c1.19,0,2.41-0.15,3.57,0.04c0.92,0.15,1.72,0.51,2.69,0
		c0.51-0.27,1.31,0.03,1.39,0.74c0.3,2.53,1.09,4.95,1.7,7.41c1.16,4.65,2.36,9.29,3.51,13.94c0.47,1.89,0.68,3.85,1.3,5.68
		c1.06,3.14,1.16,6.56,2.73,9.55c-0.09,1.32,1.45,2.31,0.78,3.75c0.67,2.27,0.86,4.64,1.49,6.93c0.7,2.5,1.61,4.97,2.02,7.51
		c0.68,4.14,1.85,8.15,2.82,12.21c1.09,4.53,2.25,9.04,3.48,13.54c1.35,4.95,2.28,10.02,3.58,15c1.47,5.67,3.08,11.3,4.42,17
		c1.16,4.93,2.35,9.85,3.73,14.72c2.58,8.03,4.18,16.32,6.33,24.46c2.24,8.48,4.18,17.04,6.26,25.57c0.18,0.74,0.42,1.46-0.6,1.76
		c-4.87,1.43-9.65,3.16-14.68,3.98c-0.18,0.03-0.38-0.09-0.57-0.14c0.12-3.1-0.76-5.95-1.71-8.88c-0.5-1.55-0.58-3.37-0.99-5.07
		c-0.96-3.97-1.56-8.03-2.19-12.04c-0.4-2.52-1.17-4.96-1.64-7.45c-0.37-1.96-0.23-4.14-1.47-6.14c-0.69-1.11-0.95-3.01-1.14-4.63
		c-0.25-2.11-0.79-4.19-1.19-6.27c-0.82-3.96-1.63-7.93-2.48-11.88c-0.9-4.17-1.52-8.4-2.7-12.5c-0.04-0.19-0.08-0.38-0.12-0.57
		c-0.02-0.46,0.02-0.93-0.08-1.38c-1.35-6.43-2.76-12.85-4.07-19.3c-1.29-6.33-2.43-12.7-3.72-19.03
		c-1.94-9.58-3.94-19.15-5.91-28.72c-0.07-0.81,0.37-1.7-0.39-2.39c-0.12-0.07-0.14-0.17-0.06-0.29c0.08-0.49,0.17-0.99-0.38-1.3
		L212.21,375.08z"/>
	<path class="st0" d="M362.28,473.67c0.59,1.06,1.38,0.98,2.34,0.5c1.8-0.91,1.99-0.63,2.27,1.25c0.18,1.21,0.89,2.45,1.66,3.45
		c0.94,1.22,1.64,2.52,2.25,3.91c0.73,1.65-0.07,3.29-1.91,3.63c-1.94,0.36-3.53,1.75-5.55,1.85c-0.08,0-0.15,0.34-0.22,0.52
		c-9.59,2.71-19.18,5.4-28.77,8.13c-5.17,1.47-10.28,3.15-15.49,4.49c-5.14,1.31-10.09,3.33-15.37,4.11
		c-1.55,0.16-3.11-0.77-4.65,0.04c-1.83,0.96-3.91,0.94-5.84,1.52c-0.44,0.13-1.05,0.7-1.42,0.05c-0.38-0.67,0.37-0.87,0.72-1.31
		c0.9-1.12,2.39-1.71,3.21-3.32c-3.44,1.11-6.07,2.91-8.77,4.59c-0.53,0.33-0.93,0.6-1.35,0.08c-0.57-0.72,0.24-0.93,0.61-1.14
		c3.06-1.78,6.14-3.51,9.22-5.25c0.68-0.39,1.42-0.68,2.06-1.13c0.27-0.19,0.58-0.63,0.27-1.03c-0.25-0.32-0.66-0.23-0.89,0
		c-1.76,1.79-4.02,1.82-6.29,1.79c-0.4,0-0.95,0.61-1.18-0.09c-0.23-0.71,0.53-1.02,0.94-0.99c1.64,0.15,2.66-1,3.91-1.66
		c0.57-0.3,1.45-0.65,1.09-1.37c-0.32-0.63-1.17-0.3-1.79-0.05c-0.24,0.1-0.48,0.24-0.72,0.34c-0.58,0.25-1.18,0.34-1.66-0.16
		c-0.55-0.58,0.05-1.05,0.15-1.59c0.26-1.43,2.06-1.5,2.3-2.83c0.19-1.06,0.66-1.57,1.83-1.63c1.06-0.06,1.8-0.75,1.74-1.97
		c0.28-0.09,0.56-0.18,0.84-0.26c0.22,1.07,0.84,0.51,1.21,0.21c0.5-0.4,0.08-0.59-0.31-0.7c0.32-0.57,0.79-0.86,1.46-0.81
		c0.25,1.18,0.76,0.54,1.75,0.11c-0.91-0.06-1.31-0.09-1.72-0.12c3.81-2.49,7.99-4.3,12.01-6.41c11.85-6.22,23.77-12.3,35.66-18.43
		c2.52-1.3,5.03-2.62,7.56-3.91c0.49-0.25,0.9-0.54,1.18-1.01c0.53,0.57,0.99,0.93,1.79,0.23c0.6-0.53,1.54-0.58,1.35,0.57
		c-0.24,1.52,0.65,1.91,1.72,2.3l-0.01-0.01c0.86,0.9,0.9,2.01,0.81,3.15c-4.15,2.44-8.46,4.63-12.59,7.09
		c-6.3,3.75-12.75,7.22-19.04,10.98c-1.7,1.02-3.64,1.7-5.15,3.12c0.63,0.63,1.16,0.39,1.63,0.24c4.1-1.31,8.18-2.68,12.28-3.97
		C347.03,478.39,354.66,476.04,362.28,473.67z M293.68,494.19c1.08,0.16,1.78,0.53,2.51-0.42
		C295.33,493.64,294.68,493.39,293.68,494.19z M324.39,485.67c0.2-0.18,0.39-0.27,0.42-0.4c0.05-0.23-0.14-0.31-0.34-0.28
		c-0.11,0.02-0.29,0.12-0.29,0.17C324.19,485.31,324.29,485.44,324.39,485.67z M293.29,494.7c-0.11-0.05-0.25-0.16-0.33-0.12
		c-0.08,0.03-0.1,0.21-0.15,0.32c0.11,0.05,0.25,0.16,0.33,0.13C293.22,494.98,293.25,494.81,293.29,494.7z"/>
	<path class="st2" d="M275.92,335.27c-0.29,0.34-0.69,0.36-1.09,0.35c-4.77-0.1-9.51,0.7-14.28,0.42
		c-3.98-0.23-7.92,0.41-11.89,0.42c-0.92,0-1.57-0.22-2.2-0.98c-2.27-2.69-5.43-4.4-7.86-6.92c-0.24-0.24-0.88-0.19-0.63-0.75
		c0.11-0.24,0.51-0.45,0.8-0.48c4.44-0.57,8.88-1.11,13.33-1.64c3.2-0.39,6.4-0.77,9.6-1.15c4.51-0.54,9.02-1.09,13.53-1.63
		c0.52-0.06,1.06-0.04,1.57-0.15c0.2-0.04,0.44-0.31,0.5-0.53c0.09-0.33-0.24-0.37-0.48-0.48c-6.41-2.79-12.88-5.45-19.15-8.59
		c-5.2-2.61-10.59-4.84-15.92-7.2c-0.45-0.2-1.04-0.11-1.56-0.15c0,0-0.11-0.02-0.11-0.02c-0.14-0.11-0.28-0.22-0.41-0.33
		c-1.64-0.36-3.09-1.15-4.48-2.06c-0.26-0.29-0.44-0.61-0.85-0.78c-2.51-1.05-5.01-2.12-7.48-3.25c-2.44-1.11-4.85-2.29-7.27-3.45
		c1.45-0.36,2.84-0.94,3.93,0.39c0.28,0.34,0.6,0.88,1.12,0.57c0.55-0.33,0.07-0.85-0.03-1.25c-0.61-2.5-0.63-2.49,1.94-2.66
		c0.24-0.02,0.58-0.09,0.68-0.25c0.19-0.31,0.08-0.64-0.3-0.79c-0.39-0.15-0.85-0.36-0.61-0.82c0.33-0.63,0.81-0.11,1.19,0.04
		c5.52,2.2,11.16,4.05,16.73,6.09c7.28,2.68,14.54,5.43,21.85,8.03c9.72,3.46,19.43,6.95,29.06,10.63c2.1,0.8,4.49,1.03,6.26,2.63
		c-0.59,1.06-1.42,1.83-2.7,1.59c-3.95-0.73-7.6,2.23-11.59,0.91c-0.19-0.06-0.55,0.11-0.71,0.29c-0.81,0.92-1.87,0.83-2.93,0.8
		c-1.17-0.03-2.25,0.33-3.31,0.59c1.64,2.64,4.05-0.21,6,0.85c-0.5,0.74-1.09,0.44-1.57,0.56c-0.26,0.06-0.53,0.12-0.59,0.44
		c-0.08,0.42,0.18,0.57,0.53,0.68c4.13,1.3,7.72,3.83,11.81,5.2c0.9,0.3,1.11,0.82,1.06,1.62l0.01-0.02
		c-2.39,0.11-4.05-1.68-6.14-2.39c-2.27-0.77-4.44-1.84-7.09-2.97c1.01,1.98,2.09,3.11,3.63,3.81c1.22,0.55,2.3,1.7,2.18,2.81
		c-0.16,1.34-1.76,0.57-2.72,0.74c-0.45,0.08-0.93,0.01-1.39,0.01c-3.24,0.03-6.48-0.15-9.7,0.39
		C275.48,334.57,274.77,334.6,275.92,335.27z"/>
	<path class="st0" d="M301.4,318.54c-1.78-1.6-4.16-1.83-6.26-2.63c-9.63-3.68-19.34-7.17-29.06-10.63
		c-7.31-2.61-14.57-5.36-21.85-8.03c-5.57-2.05-11.21-3.9-16.73-6.09c-0.37-0.15-0.86-0.67-1.19-0.04
		c-0.24,0.46,0.22,0.67,0.61,0.82c0.38,0.15,0.49,0.49,0.3,0.79c-0.1,0.16-0.44,0.23-0.68,0.25c-2.57,0.17-2.56,0.16-1.94,2.66
		c0.1,0.4,0.58,0.92,0.03,1.25c-0.52,0.31-0.84-0.23-1.12-0.57c-1.09-1.33-2.48-0.75-3.93-0.39c2.42,1.15,4.83,2.34,7.27,3.45
		c2.47,1.13,4.97,2.19,7.48,3.25c0.41,0.17,0.6,0.49,0.85,0.78c-3.62-0.88-6.82-2.77-10.18-4.27c-8.68-3.86-17.32-7.8-25.95-11.75
		c-0.87-0.4-1.3,0-1.89,0.49c-8.36,7.02-16.74,14.02-25.1,21.04c-12.87,10.81-25.72,21.63-38.58,32.44
		c-5.22,4.39-10.43,8.78-15.65,13.16c-0.35,0.3-0.75,0.55-1.08,0.86c-0.66,0.61-1.22,0.59-1.88-0.07c-0.79-0.78-0.11-1.14,0.33-1.59
		c5.39-5.46,10.81-10.91,16.19-16.39c13.11-13.38,26.2-26.78,39.3-40.17c6.16-6.3,12.33-12.59,18.49-18.9
		c0.86-0.89,1.61-1.18,2.95-0.67c6.96,2.64,13.99,5.1,20.99,7.66c10.89,4,21.76,8.05,32.65,12.05c8.61,3.16,17.24,6.27,25.85,9.43
		c6.88,2.52,13.74,5.08,20.61,7.62c3.59,1.33,7.17,2.68,10.78,3.96c0.95,0.34,1.52,0.77,1.18,1.86c-0.03-0.3,0-0.64-0.4-0.76
		c-0.39-0.17-0.79-0.34-1.18-0.5c-0.14-0.09-0.29-0.17-0.43-0.26C301.91,318.61,301.65,318.58,301.4,318.54z M215.04,286.7
		c0.04,0.25,0.04,0.54,0.37,0.59c0.07,0.01,0.23-0.14,0.23-0.21c-0.03-0.33-0.34-0.32-0.58-0.41c-0.69-0.33-1.34-0.88-2.54-0.36
		C213.53,286.84,214.31,286.64,215.04,286.7z M222.83,289.9c-0.02-0.42-0.39-0.48-0.67-0.61c-0.26-0.13-0.55-0.11-0.57,0.25
		c-0.02,0.39,0.29,0.57,0.62,0.66C222.47,290.27,222.72,290.23,222.83,289.9z M219.62,292.73c0.03-0.38-0.27-0.43-0.51-0.41
		c-0.22,0.02-0.56,0.13-0.62,0.29c-0.12,0.36,0.24,0.38,0.48,0.42C219.24,293.06,219.48,293.01,219.62,292.73z M217.66,294.87
		c-0.01,0.47,0.26,0.51,0.51,0.54c0.26,0.03,0.55,0,0.62-0.29c0.09-0.37-0.25-0.42-0.49-0.42
		C218.08,294.7,217.86,294.81,217.66,294.87z M219.71,288.25c-0.22,0.16-0.46,0.25-0.49,0.38c-0.08,0.37,0.26,0.41,0.51,0.43
		c0.23,0.01,0.61,0.1,0.53-0.31C220.23,288.56,219.92,288.42,219.71,288.25z M225.07,290.39c-0.07-0.31-0.31-0.42-0.57-0.42
		c-0.17,0-0.45,0.1-0.48,0.21c-0.08,0.32,0.18,0.44,0.45,0.46C224.71,290.67,224.98,290.72,225.07,290.39z M213.23,292.82
		c0.11-0.31-0.06-0.43-0.24-0.45c-0.16-0.02-0.42,0.03-0.48,0.14c-0.15,0.27,0.02,0.46,0.31,0.47
		C212.97,292.97,213.13,292.86,213.23,292.82z M221.33,293.49c-0.2-0.16-0.32-0.32-0.45-0.34c-0.15-0.01-0.42,0.08-0.46,0.19
		c-0.09,0.29,0.13,0.45,0.4,0.44C220.97,293.77,221.11,293.63,221.33,293.49z M214.98,293.49c-0.2-0.16-0.32-0.32-0.45-0.34
		c-0.15-0.01-0.43,0.08-0.46,0.18c-0.09,0.3,0.14,0.45,0.4,0.44C214.61,293.76,214.75,293.62,214.98,293.49z M216.62,294.28
		c-0.22-0.17-0.34-0.33-0.48-0.35c-0.12-0.01-0.27,0.13-0.4,0.21c0.12,0.12,0.22,0.31,0.36,0.36
		C216.21,294.52,216.38,294.38,216.62,294.28z M211.99,285.75c-0.01-0.04,0-0.1-0.03-0.12c-0.04-0.03-0.1-0.02-0.15-0.03
		c0.01,0.07,0.03,0.14,0.04,0.2C211.9,285.79,211.94,285.77,211.99,285.75z"/>
	<path class="st3" d="M273.4,469.32c0.23-0.13,0.47-0.26,0.7-0.39c0.68-0.1,1.07-0.54,1.33-1.13c0.01-0.1,0.06-0.15,0.16-0.13
		c0.51-0.16,0.84-0.53,1.11-0.97l0.03-0.12c0,0,0.12-0.03,0.12-0.02c0.71-0.13,1.18-0.55,1.43-1.23c0.27-0.28,0.53-0.56,0.8-0.84
		c0,0-0.03,0.07-0.03,0.07c0.14-0.13,0.28-0.27,0.42-0.4c0,0-0.07,0.03-0.07,0.03c0.14-0.16,0.29-0.31,0.43-0.47
		c0,0-0.08,0.04-0.08,0.04c0.22-0.13,0.45-0.26,0.67-0.38c0.85-0.52,1.71-1.02,2.16-1.97c0,0,0.11-0.1,0.11-0.09
		c0.86-0.38,1.13-1.06,0.35-1.6c-1.27-0.87-2.21-2.22-3.78-2.64c-0.11,0.03-0.18-0.02-0.2-0.13c-0.09-0.07-0.18-0.14-0.27-0.21
		c-0.11,0.02-0.17-0.03-0.18-0.15c-0.14-0.6-0.63-0.7-1.14-0.78c-0.11-0.09-0.22-0.19-0.33-0.28c-0.74-0.8-1.61-1.4-2.69-1.65
		l-0.12-0.01c0,0-0.03-0.11-0.03-0.11c-2.91-1.88-5.99-3.35-9.48-3.79c-0.31-0.04-0.62-0.08-0.93-0.13c-0.62-0.76-1.5-0.7-2.35-0.77
		c-2.53-0.21-5.06-0.67-7.63-0.09c1.83-1.07,3.81-1.34,5.83-1.5c3.17-0.24,6.3,0.16,9.41,0.7c0.3,0.05,0.61,0.1,0.91,0.14
		c3.44,1.55,6.82,3.23,10.08,5.14c0.11-0.04,0.18-0.01,0.21,0.1c0.44,0.8,1.24,1.13,2,1.51c0.1,0.1,0.2,0.2,0.31,0.3
		c0.33,0.57,0.62,0.52,0.87-0.06c-0.02-0.14,0.03-0.23,0.16-0.29c0.86-2.45,1.15-4.96,0.9-7.54c0.29-6.65,0.26-13.3-0.21-19.94
		c-0.04-0.51,0.38-1.35-0.49-1.46c-0.6-0.07-1.03,0.48-1.15,1.13c0,0-0.03,0.05-0.03,0.05c-1.88,2.34-1.96,5.04-1.61,7.84
		c0.06,0.46,0.43,1.17-0.3,1.34c-0.66,0.16-0.77-0.57-0.98-1.02c-1.84-3.85-1.85-7.76-0.27-11.77c-0.95,0.35-1.58,0.84-1.77,1.76
		c0,0,0,0.03,0,0.03c-0.26,0.08-0.35,0.27-0.31,0.53c0,0,0.01-0.02,0.01-0.02c-1.21,1.23-1.6,2.77-1.69,4.43
		c-0.33,0.66-0.25,1.33-0.1,2.02c-0.3,0.37,0.08,1.23-0.67,1.2c-0.55-0.02-0.41-0.71-0.53-1.12c-1.01-3.69-0.11-7.1,1.5-10.42
		c0,0-0.02,0.02-0.02,0.02c0.67-0.79,1.64-1.37,1.85-2.67c-1.34,0.15-2.14,0.82-2.81,1.71c0,0,0.03-0.02,0.03-0.02
		c-0.26,0.03-0.41,0.17-0.45,0.43c0,0,0.04-0.04,0.04-0.04c-0.27,0.01-0.42,0.14-0.46,0.41c0,0,0.03-0.03,0.03-0.03
		c-0.27,0.06-0.38,0.24-0.35,0.51c0,0,0.02-0.04,0.02-0.04c-1.24,0.84-1.6,2.17-2,3.49c-0.12,0.38-0.27,0.8-0.76,0.73
		c-0.49-0.07-0.54-0.53-0.55-0.92c-0.01-1.53,0.52-2.96,0.87-4.42l0.16-0.08c0,0,0-0.18,0-0.18c0.62-0.77,1.33-1.46,1.7-2.4
		c0,0-0.05,0.05-0.06,0.05c0.77-0.27,1.32-0.82,1.85-1.4c0.16-0.01,0.32-0.01,0.48-0.02c1.01,0,1.67-0.67,2.4-1.22
		c0.21-0.16,0.37-0.42,0.2-0.68c-0.08-0.13-0.36-0.27-0.47-0.22c-2.03,0.85-4.65,0.2-6.12,2.44c-0.01,0.12-0.07,0.17-0.18,0.16
		c-0.19,0.02-0.38,0.05-0.57,0.07c-0.06-0.06-0.11-0.12-0.17-0.17c0.05-0.38,0.1-0.75,0.15-1.13c0.09-0.11,0.18-0.23,0.27-0.34
		c2.53-2.3,5.34-3.75,8.9-2.86c0.31,0.08,0.69,0.11,0.88-0.22c0.2-0.36-0.09-0.62-0.32-0.84c-0.86-0.82-1.76-1.52-3-1.72
		c-0.75-0.12-1.81,0.13-2.06-1.05c0.03-0.11,0.09-0.15,0.2-0.12c0.71-0.1,1.42-0.25,2.13-0.3c1.49-0.1,2.96-0.36,4.27,0.83
		c2.33,2.11,2.8,1.92,3.74-1.2c0.09-0.3,0.06-0.68,0.59-0.71c0.41,0.91,0.76,1.87,1.25,2.76c0.35,0.65,0.88,1.09,1.44,0.12
		c0-0.14,0.07-0.22,0.21-0.24c1.66-1.39,3.54-1.97,5.69-1.6c0.65,0.11,1.3,0.18,1.95,0.27c0.1-0.02,0.16,0.02,0.18,0.12
		c-0.15,1.13-1.14,0.99-1.84,1.09c-0.88,0.13-1.72,0.31-2.36,0.9c-0.51,0.46-1.49,0.88-1.19,1.63c0.33,0.82,1.14,0.04,1.74,0.03
		c0.32-0.01,0.65,0.15,0.97,0.12c2.45-0.19,4.37,1.24,6.46,2.13l0.12,0.01c0,0,0.04,0.11,0.04,0.11c-0.16,0.69,0.86,1.02,0.46,2.07
		c-1.75-1.47-3.87-1.81-5.94-2.28c-0.43-0.1-0.94-0.44-1.19,0.17c-0.25,0.61,0.38,0.75,0.71,1.02c0.78,0.62,1.65,1.06,2.63,1.27
		c0.11-0.02,0.17,0.02,0.19,0.13c0.61,0.89,1.33,1.67,2.26,2.23l0.1,0.03c0,0,0,0.11,0,0.11c0.5,1.88,1.74,3.61,1.27,5.98
		c-1.26-1.48-1.26-3.48-2.88-4.37l-0.11-0.03c0,0-0.03-0.12-0.03-0.11c-0.09-0.07-0.18-0.15-0.27-0.22l-0.11-0.02
		c0,0-0.03-0.11-0.03-0.11c-0.09-0.09-0.19-0.18-0.29-0.28l-0.1-0.02c0,0-0.02-0.1-0.02-0.1c-0.48-1.26-1.89-1.3-2.74-2.1
		c-0.28-0.26-0.63-0.13-0.85,0.16c-0.23,0.3-0.15,0.62,0.1,0.88c0.7,0.76,1.41,1.52,2.12,2.28c0.09,0.1,0.17,0.2,0.26,0.29
		c0.95,3.17,2.44,6.28,0.98,9.72c-0.04-3.22-1.32-5.89-3.43-8.22c-0.32-0.35-0.7-0.76-1.17-0.45c-0.44,0.29-0.03,0.71,0.07,1.06
		c0.53,1.85,1.11,3.71,0.81,5.65c-0.31,2.05-0.52,4.16-1.89,6.33c-0.47-3.28,0.77-6.33-1.41-8.84c-0.09-0.11-0.17-0.22-0.26-0.33
		c-0.22-0.89-0.62-1.76-1.68-1.52c-1.04,0.23-0.68,1.28-0.72,2.02c-0.09,1.91-0.09,3.82-0.19,5.72c-0.38,7.23-0.42,14.43,1.21,21.54
		c0.11,0.04,0.15,0.12,0.12,0.24c0.19,0.62,0.47,0.7,0.85,0.14c0.12-0.14,0.24-0.27,0.35-0.41c0,0-0.04,0.05-0.04,0.05
		c0.14-0.12,0.27-0.23,0.41-0.35c0.52-0.07,1.01-0.19,1.16-0.8l0.03-0.11c0,0,0.11-0.01,0.11-0.01c0.38,0.08,0.62-0.08,0.75-0.43
		c0.1-0.09,0.2-0.18,0.3-0.27c0.49-0.19,1.03-0.3,1.46-0.58c5.76-3.8,12.06-5.49,18.95-5.03c2.09,0.14,4.81,0.8,6.04,1.94
		c-4.44-1.03-8.34-0.78-12.18,0.45c-3.12,1-6.28,1.85-8.92,3.92c-0.01,0.12-0.07,0.17-0.19,0.15c-1.13,0.17-1.97,0.8-2.69,1.64
		c-0.02,0.15-0.11,0.23-0.26,0.24c-2.25,0.86-3.85,2.68-5.76,4.03c-0.68,0.48-0.28,1.17,0.52,1.44c0,0,0.07,0.07,0.07,0.07
		c0.4,1.02,1.3,1.5,2.18,2.01c0.19,0.14,0.39,0.27,0.58,0.41c0,0-0.07-0.02-0.07-0.02c0.15,0.14,0.29,0.28,0.44,0.42
		c0,0-0.01-0.01-0.01-0.01c0.1,0.1,0.21,0.2,0.31,0.31c0.42,0.8,0.95,1.49,1.9,1.7c0.11-0.03,0.17,0.02,0.18,0.12
		c0.02,0.15,0.1,0.22,0.25,0.22l0.12,0.04c0,0,0.03,0.13,0.03,0.13c0.08,0.08,0.17,0.16,0.26,0.24c0.11-0.02,0.17,0.02,0.18,0.12
		c0.1,0.07,0.2,0.15,0.3,0.22c0,0,0.12,0.12,0.12,0.12c0.35,0.78,0.87,1.38,1.77,1.56c0.2,0.14,0.4,0.28,0.6,0.42
		c0,0-0.07-0.04-0.07-0.04c0.12,0.13,0.23,0.25,0.35,0.38c1.09,1.16,1.99,2.62,3.96,1.15c0.89-0.66,2.08-0.33,2.89,0.5
		c0.8,0.83,0.94,1.86,0.49,2.93c-0.42,1-1.16,1.42-2.28,1.55c-1.89,0.22-3.42-0.64-5.04-1.31c-0.13-0.1-0.26-0.19-0.38-0.29
		c-0.13-0.32-0.35-0.47-0.7-0.44l-0.12-0.01c0,0-0.03-0.11-0.03-0.11c-0.09-0.08-0.19-0.17-0.28-0.25l-0.12-0.01
		c0,0-0.05-0.11-0.05-0.11c-0.54-0.85-1.3-1.44-2.2-1.89c-0.2-0.13-0.4-0.27-0.6-0.4c0,0,0.07,0.04,0.07,0.04
		c-0.12-0.16-0.24-0.32-0.36-0.47c-0.16-0.14-0.32-0.29-0.48-0.43c-0.1-0.1-0.21-0.2-0.31-0.3c-1.03-1.23-1.95-2.58-3.52-3.21
		l-0.11-0.02c0,0-0.01-0.11-0.01-0.11c-0.09-0.09-0.18-0.18-0.28-0.28l-0.11-0.01c0,0-0.03-0.11-0.03-0.11
		c-0.09-0.08-0.19-0.16-0.28-0.24l-0.11-0.02c0,0-0.03-0.11-0.03-0.11c-0.09-0.09-0.18-0.18-0.27-0.27l-0.11-0.03
		c0,0-0.03-0.11-0.03-0.11c-2.39-3.06-2.95-3.07-5.33-0.13c-0.04,0.05-0.03,0.12-0.04,0.19c0,0-0.11,0.1-0.1,0.1
		c-0.1,0.1-0.2,0.2-0.3,0.3c0,0-0.11,0.1-0.11,0.1c-0.1,0.09-0.2,0.17-0.3,0.26l-0.03,0.1c0,0-0.1,0.02-0.1,0.01
		c-0.52,0.17-0.87,0.54-1.1,1.03l-0.03,0.12c0,0-0.12,0.03-0.12,0.03c-0.15,0.01-0.24,0.09-0.26,0.24l-0.04,0.11
		c0,0-0.12,0.02-0.12,0.02c-0.15,0.01-0.24,0.09-0.26,0.24l-0.02,0.12c0,0-0.12,0.04-0.12,0.04c-0.14,0.02-0.22,0.1-0.24,0.24
		l-0.04,0.12c0,0-0.12,0.01-0.12,0.01c-1.07,0.36-1.72,1.16-2.27,2.08c-0.11,0.11-0.23,0.23-0.34,0.34c0,0,0,0,0,0
		c-0.13,0.13-0.26,0.26-0.4,0.38c0,0,0.03-0.02,0.03-0.02c-0.16,0.15-0.32,0.29-0.47,0.44c0,0,0.06-0.04,0.06-0.04
		c-0.16,0.12-0.33,0.24-0.49,0.36c-0.7,0.15-1.06,0.7-1.47,1.21l-0.04,0.1c0,0-0.11,0.01-0.1,0.01c-0.09,0.09-0.19,0.17-0.29,0.26
		l-0.02,0.11c0,0-0.11,0.02-0.11,0.02c-0.38-0.08-0.63,0.09-0.77,0.44c-0.1,0.08-0.19,0.16-0.29,0.24
		c-1.99,0.98-4.03,1.72-6.31,1.26c-0.19-0.17-0.39-0.34-0.58-0.51c-0.09-0.08-0.19-0.17-0.28-0.25l-0.11-0.03
		c0,0-0.02-0.11-0.02-0.11c0.02-1.11,0.03-2.23,0.04-3.34c-0.01-0.12,0.04-0.18,0.16-0.17c1.05-0.53,2.28-1.35,3.29-0.54
		c1.93,1.55,2.71,0.03,3.75-1.05c0.1-0.15,0.2-0.31,0.3-0.46C273.47,469.26,273.4,469.32,273.4,469.32z"/>
	<path class="st2" d="M297,488.41c0.06,1.22-0.68,1.91-1.74,1.97c-1.17,0.06-1.64,0.57-1.83,1.63c-0.24,1.33-2.04,1.4-2.3,2.83
		c-0.1,0.54-0.7,1.01-0.15,1.59c0.48,0.51,1.08,0.41,1.66,0.16c0.24-0.1,0.47-0.24,0.72-0.34c0.62-0.25,1.48-0.58,1.79,0.05
		c0.36,0.72-0.52,1.07-1.09,1.37c-1.25,0.66-2.27,1.81-3.91,1.66c-0.41-0.04-1.18,0.28-0.94,0.99c0.23,0.7,0.78,0.09,1.18,0.09
		c2.27,0.03,4.52,0,6.29-1.79c0.23-0.23,0.64-0.32,0.89,0c0.31,0.41,0,0.85-0.27,1.03c-0.64,0.44-1.38,0.74-2.06,1.13
		c-3.08,1.74-6.16,3.47-9.22,5.25c-0.37,0.22-1.18,0.42-0.61,1.14c0.41,0.52,0.82,0.25,1.35-0.08c2.69-1.68,5.33-3.48,8.77-4.59
		c-0.82,1.61-2.32,2.2-3.21,3.32c-0.35,0.44-1.1,0.63-0.72,1.31c0.36,0.65,0.98,0.08,1.42-0.05c1.93-0.58,4.01-0.56,5.84-1.52
		c1.54-0.81,3.1,0.12,4.65-0.04c-0.58,0.62-1.31,0.76-2.11,0.7c-0.41-0.29-0.85-0.47-1.2,0c-0.06,0.08,0.38,0.16,0.62,0.1
		c-0.72,0.33-1.39,0.81-2.24,0.7c-0.23-0.08-0.45-0.16-0.68-0.21c-0.02-0.01-0.09,0.17-0.13,0.25c0.17,0.01,0.35,0.02,0.52,0.03
		c-6.27,1.83-12.53,3.67-18.8,5.49c-1.96,0.57-3.94,1.06-5.89,1.66c-1.25,0.38-2.04,0.22-2.71-1.09c-1.26-2.46-2.72-4.82-4.13-7.21
		c-0.59-0.99-0.75-1.66,0.57-2.32c9.23-4.67,18.29-9.68,27.68-14.04C295.68,489.25,296.33,488.8,297,488.41z M287.04,508.31
		c2.15,0.62,2.17,0.61,2.54-1.07C288.79,507.58,288.05,507.89,287.04,508.31z M294.84,507.57c-0.1,0.06-0.2,0.12-0.3,0.18
		c0.1,0.06,0.2,0.16,0.3,0.16c0.1,0,0.2-0.1,0.3-0.16C295.04,507.69,294.94,507.63,294.84,507.57z"/>
	<path class="st0" d="M245.72,467.26c-1.39-4.87-2.58-9.79-3.73-14.72c-1.34-5.7-2.94-11.33-4.42-17c-1.3-4.98-2.23-10.05-3.58-15
		c-1.23-4.5-2.39-9.02-3.48-13.54c-0.97-4.06-2.14-8.07-2.82-12.21c-0.42-2.54-1.33-5.01-2.02-7.51c-0.64-2.29-0.82-4.66-1.49-6.93
		c1.51,1.62,1.44,3.81,1.95,5.75c2.51,9.65,4.82,19.35,7.2,29.04c3.29,13.41,6.58,26.83,9.87,40.24c0.88,3.59,1.77,7.18,2.64,10.77
		C245.93,466.52,246.06,466.92,245.72,467.26z"/>
	<path class="st2" d="M298.31,453.75c2.64-2.07,5.81-2.93,8.92-3.92c3.84-1.23,7.74-1.48,12.18-0.45c-1.23-1.14-3.94-1.8-6.04-1.94
		c-6.89-0.46-13.19,1.23-18.95,5.03c-0.43,0.28-0.97,0.39-1.46,0.58c9.37-7.8,24.88-7.52,30.79-2.41c-1.98-0.38-3.8-0.82-5.64-1.08
		c-6.45-0.9-12.43,0.73-18.16,3.58C299.42,453.41,298.92,453.71,298.31,453.75z"/>
	<path class="st2" d="M290.56,427.54c2.19,2.5,0.94,5.55,1.41,8.84c1.37-2.17,1.58-4.28,1.89-6.33c0.29-1.94-0.28-3.8-0.81-5.65
		c-0.1-0.35-0.52-0.78-0.07-1.06c0.48-0.31,0.85,0.09,1.17,0.45c2.11,2.32,3.38,5,3.43,8.22c1.46-3.44-0.02-6.55-0.98-9.72
		c2.84,3.81,2.59,7.89,1.09,12.21c-1.03-0.55-0.74-1.44-0.69-2.12c0.14-2.2-0.64-4.14-1.51-6.07c-0.19-0.43-0.39-1.17-1.05-0.96
		c-0.71,0.23-0.29,0.88-0.22,1.35c0.61,4.17-0.14,7.97-3.12,11.24C291.93,434.4,291.7,430.94,290.56,427.54z"/>
	<path class="st2" d="M269.15,448.14c-3.11-0.55-6.24-0.94-9.41-0.7c-2.02,0.15-4,0.43-5.83,1.5c2.57-0.58,5.09-0.12,7.63,0.09
		c0.85,0.07,1.73,0.01,2.35,0.77c-2.95-0.01-5.85-0.97-8.82-0.32c-2.02,0.44-4.1,0.53-6.11,1.14c1.77-2.02,4.25-2.49,6.6-3.02
		c4.03-0.92,8.13-0.8,12.21-0.13C268.27,447.55,268.81,447.68,269.15,448.14z"/>
	<path class="st2" d="M288.92,454.98c-1.63-7.11-1.59-14.32-1.21-21.54c0.1-1.91,0.1-3.82,0.19-5.72c0.04-0.74-0.32-1.79,0.72-2.02
		c1.05-0.24,1.46,0.63,1.68,1.52c-1.22-1.13-1.83-0.97-1.92,0.8c-0.43,7.68-0.74,15.35,0.28,23.01
		C288.83,452.34,289.09,453.65,288.92,454.98z"/>
	<path class="st2" d="M289.09,410.72c-0.56,0.97-1.09,0.53-1.44-0.12c-0.48-0.89-0.84-1.85-1.25-2.76c-0.53,0.03-0.5,0.41-0.59,0.71
		c-0.94,3.12-1.4,3.31-3.74,1.2c-1.32-1.19-2.78-0.93-4.27-0.83c-0.71,0.05-1.42,0.2-2.13,0.3c2.46-1.8,4.78-1.23,7.04,0.41
		c1.45,1.06,2.05,0.87,2.56-0.85c0.13-0.44,0.13-0.92,0.24-1.36c0.12-0.51,0.25-1.1,0.98-1c0.62,0.08,0.56,0.63,0.65,1.08
		C287.4,408.8,287.43,410.26,289.09,410.72z"/>
	<path class="st2" d="M300.91,415.18c-2.09-0.9-4.01-2.32-6.46-2.13c-0.32,0.02-0.65-0.13-0.97-0.12c-0.6,0.02-1.41,0.79-1.74-0.03
		c-0.3-0.75,0.68-1.17,1.19-1.63c0.65-0.59,1.48-0.77,2.36-0.9c0.7-0.1,1.69,0.03,1.84-1.09c0.37,0.13,0.75,0.23,1.09,0.4
		c0.32,0.16,0.49,0.47,0.39,0.82c-0.14,0.49-0.56,0.23-0.83,0.2c-1.74-0.19-3.35,0.07-5.3,1.52
		C295.9,412.46,298.92,412.56,300.91,415.18z"/>
	<path class="st2" d="M275.47,409.34c0.25,1.19,1.3,0.93,2.06,1.05c1.25,0.2,2.15,0.9,3,1.72c0.23,0.22,0.52,0.49,0.32,0.84
		c-0.19,0.33-0.56,0.3-0.88,0.22c-3.56-0.89-6.37,0.56-8.9,2.86c1.44-2.67,3.99-3.3,6.69-3.66c0.5-0.07,1.26,0.28,1.42-0.31
		c0.21-0.76-0.66-0.84-1.16-1.06c-1.26-0.56-2.59-0.34-4.03-0.17C274.1,409.87,274.6,409.44,275.47,409.34z"/>
	<path class="st2" d="M299.41,474.47c1.62,0.67,3.14,1.53,5.04,1.31c1.12-0.13,1.86-0.55,2.28-1.55c0.45-1.07,0.31-2.11-0.49-2.93
		c-0.81-0.83-2-1.16-2.89-0.5c-1.97,1.48-2.88,0.02-3.96-1.15c1.4,0.85,2.7,1.54,4.47,0.57c0.98-0.53,2.21,0.1,2.93,1.11
		c0.74,1.05,0.99,2.18,0.24,3.34c-0.83,1.28-2.1,1.96-3.54,1.76C301.98,476.23,300.42,475.83,299.41,474.47z"/>
	<path class="st2" d="M297.73,417.54c-0.98-0.21-1.86-0.65-2.63-1.27c-0.33-0.26-0.97-0.41-0.71-1.02c0.26-0.61,0.76-0.27,1.19-0.17
		c2.08,0.47,4.19,0.81,5.94,2.28c0.41-1.05-0.61-1.37-0.46-2.07c1.42,0.86,1.46,2.43,2.01,3.81c-2.11-1.25-3.78-3.33-6.58-3.12
		C296.48,417.02,297.59,416.85,297.73,417.54z"/>
	<path class="st2" d="M298.67,421.66c1.62,0.89,1.62,2.88,2.88,4.37c0.47-2.38-0.77-4.1-1.27-5.98c2.22,2.56,2.15,5.55,1.62,8.66
		C300.69,426.4,300.13,423.82,298.67,421.66z"/>
	<path class="st2" d="M280.15,453.43c-3.26-1.91-6.64-3.59-10.08-5.14C273.84,449.18,277.19,450.92,280.15,453.43z"/>
	<path class="st2" d="M264.82,449.93c3.49,0.44,6.56,1.91,9.48,3.79C271.14,452.45,267.98,451.19,264.82,449.93z"/>
	<path class="st2" d="M296.95,409.15c-0.65-0.09-1.3-0.16-1.95-0.27c-2.16-0.37-4.04,0.21-5.69,1.6
		C291.17,407.89,293.83,407.43,296.95,409.15z"/>
	<path class="st2" d="M271.58,417.46c1.47-2.24,4.09-1.59,6.12-2.44c0.11-0.05,0.38,0.09,0.47,0.22c0.17,0.26,0.02,0.52-0.2,0.68
		c-0.72,0.55-1.39,1.22-2.4,1.22c-0.02-0.1-0.01-0.2,0.01-0.31c0.56-0.26,1.09-0.67,0.05-0.84c-0.68-0.11-1.62-0.11-1.97,0.86
		l-0.01,0C272.84,416.61,272.27,417.23,271.58,417.46z"/>
	<path class="st2" d="M289.92,461.25c-0.8-0.27-1.2-0.96-0.52-1.44c1.92-1.35,3.51-3.17,5.76-4.03c-1.57,1.28-3.11,2.6-4.72,3.83
		C289.82,460.09,289.58,460.54,289.92,461.25z"/>
	<path class="st2" d="M273.16,469.72c-1.04,1.07-1.82,2.6-3.75,1.05c-1-0.81-2.24,0.01-3.29,0.54c0.52-1.22,1.77-1.51,2.61-1.08
		C270.45,471.11,271.77,470.63,273.16,469.72z"/>
	<path class="st2" d="M296.34,421.98c-0.71-0.76-1.42-1.51-2.12-2.28c-0.24-0.27-0.33-0.58-0.1-0.88c0.22-0.29,0.58-0.42,0.85-0.16
		c0.84,0.8,2.26,0.84,2.74,2.1C296.37,420.17,296.04,420.73,296.34,421.98z M296.21,420.47c0.18-0.41-0.05-0.56-0.29-0.63
		c-0.12-0.03-0.36,0.07-0.43,0.18c-0.2,0.31,0.07,0.45,0.3,0.55C295.97,420.64,296.16,420.64,296.21,420.47z"/>
	<path class="st0" d="M304.03,325.31c0.2,3.01,0.34,6.01-0.41,8.98c0,0,0.01,0,0.01,0c0.23-1.53,0.17-3.06,0.06-4.59
		c-0.38-0.78-0.43-1.6-0.25-2.44c0.53-0.42,0.33-0.99,0.29-1.52c0.03-0.16,0.07-0.32,0.1-0.48
		C303.9,325.28,303.97,325.29,304.03,325.31z"/>
	<path class="st2" d="M266.91,475.73c2.28,0.47,4.32-0.27,6.31-1.26C270.7,476.68,269.13,476.99,266.91,475.73z"/>
	<path class="st2" d="M284.32,447.5c0.09-0.03,0.18-0.05,0.28-0.05c0.25,2.58-0.05,5.09-0.9,7.54
		C283.42,452.45,284.53,450.03,284.32,447.5z"/>
	<path class="st2" d="M283.6,465.35c0.01-0.06,0.01-0.14,0.04-0.19c2.37-2.94,2.93-2.93,5.33,0.13
		C286.38,463.52,286.38,463.52,283.6,465.35z"/>
	<path class="st2" d="M279.26,457.04c1.57,0.43,2.51,1.77,3.78,2.64c0.79,0.54,0.51,1.22-0.35,1.6c0.43-0.83-0.03-1.29-0.62-1.82
		C281.15,458.64,279.97,458.1,279.26,457.04z"/>
	<path class="st2" d="M270.83,417.69c0.19-0.02,0.38-0.05,0.57-0.07c-0.32,0.83-1.13,1.1-1.8,1.58c0.27-1.02,0.16-2.17,1.2-2.81
		c-0.05,0.38-0.1,0.75-0.15,1.13c-0.04,0.1-0.07,0.2-0.11,0.3C270.64,417.77,270.74,417.73,270.83,417.69z"/>
	<path class="st2" d="M290.34,466.59c1.57,0.63,2.49,1.99,3.52,3.21C292.38,469.06,291.31,467.88,290.34,466.59z"/>
	<path class="st2" d="M265.97,471.48c-0.01,1.11-0.03,2.23-0.04,3.34C264.78,473.7,265,472.59,265.97,471.48z"/>
	<path class="st2" d="M277.91,470.63c0.55-0.92,1.2-1.73,2.27-2.08C279.65,469.48,278.94,470.23,277.91,470.63z"/>
	<path class="st2" d="M304.03,325.31c-0.07-0.02-0.13-0.04-0.2-0.05c-0.02-1.95-0.04-3.91-0.06-5.86c0.4,0.12,0.37,0.45,0.4,0.76
		c-0.01,0.66-0.03,1.32-0.04,1.98c0,0.35-0.01,0.7-0.01,1.06C304.09,323.9,304.06,324.61,304.03,325.31z"/>
	<path class="st2" d="M300.18,419.91c-0.93-0.56-1.66-1.34-2.26-2.23C299.01,418.08,299.77,418.82,300.18,419.91z"/>
	<path class="st2" d="M295.43,455.54c0.72-0.84,1.56-1.47,2.69-1.64C297.36,454.68,296.5,455.29,295.43,455.54z"/>
	<path class="st2" d="M274.45,453.84c1.08,0.26,1.94,0.85,2.69,1.65C276.06,455.22,275.15,454.7,274.45,453.84z"/>
	<path class="st2" d="M295.54,471.36c0.89,0.44,1.65,1.04,2.2,1.89C296.77,472.89,296.05,472.25,295.54,471.36z"/>
	<path class="st2" d="M292.16,463.33c-0.87-0.51-1.78-0.98-2.18-2.01C290.9,461.78,291.66,462.42,292.16,463.33z"/>
	<path class="st2" d="M282.59,461.38c-0.45,0.95-1.31,1.45-2.16,1.97C280.95,462.47,281.63,461.77,282.59,461.38z"/>
	<path class="st2" d="M295.31,466.13c-0.95-0.22-1.48-0.9-1.9-1.7C294.28,464.73,294.89,465.33,295.31,466.13z"/>
	<path class="st2" d="M282.35,455.04c-0.76-0.38-1.56-0.71-2-1.51C281.21,453.79,282.02,454.1,282.35,455.04z"/>
	<path class="st2" d="M298.51,468.89c-0.9-0.17-1.41-0.77-1.77-1.56C297.5,467.67,298.12,468.14,298.51,468.89z"/>
	<path class="st2" d="M278.28,465.31c-0.25,0.67-0.71,1.1-1.43,1.23C277.14,465.91,277.57,465.44,278.28,465.31z"/>
	<path class="st2" d="M298.73,487.66c0.4,0.11,0.81,0.29,0.31,0.7c-0.37,0.3-0.99,0.86-1.21-0.21c0.12-0.04,0.25-0.07,0.37-0.11
		c0.14-0.08,0.28-0.16,0.42-0.23l-0.01-0.11L298.73,487.66z"/>
	<path class="st2" d="M274.85,473.3c0.4-0.51,0.77-1.06,1.47-1.21C276.04,472.75,275.52,473.12,274.85,473.3z"/>
	<path class="st2" d="M275.43,467.79c-0.26,0.59-0.65,1.03-1.33,1.13C274.36,468.34,274.77,467.91,275.43,467.79z"/>
	<path class="st2" d="M277.47,455.76c0.5,0.08,0.99,0.18,1.14,0.78C278.13,456.42,277.64,456.33,277.47,455.76z"/>
	<path class="st2" d="M291.77,453.86c-0.15,0.61-0.64,0.73-1.16,0.8C290.79,454.09,291.32,454.03,291.77,453.86z"/>
	<path class="st2" d="M276.7,466.68c-0.27,0.44-0.6,0.81-1.11,0.97C275.7,467.03,276.12,466.77,276.7,466.68z"/>
	<path class="st2" d="M281.56,467.26c0.23-0.49,0.57-0.86,1.1-1.03C282.54,466.85,282.12,467.13,281.56,467.26z"/>
	<path class="st0" d="M304.12,323.2c0-0.35,0.01-0.71,0.01-1.06C304.35,322.5,304.37,322.85,304.12,323.2z"/>
	<path class="st0" d="M300.8,506.31c-0.24,0.05-0.68-0.03-0.62-0.1c0.36-0.47,0.8-0.29,1.2,0
		C301.19,506.24,300.99,506.28,300.8,506.31z"/>
	<path class="st4" d="M332.87,368.21c0.41,0.15,0.73,0.38,0.65,0.89C333.02,369.01,332.81,368.71,332.87,368.21z"/>
	<path class="st2" d="M298.32,473.74c0.35-0.04,0.58,0.12,0.7,0.44C298.63,474.29,298.4,474.15,298.32,473.74z"/>
	<path class="st2" d="M273.51,474.23c0.14-0.35,0.39-0.52,0.77-0.44C274.18,474.2,273.88,474.29,273.51,474.23z"/>
	<path class="st2" d="M289.89,455.36c-0.38,0.56-0.66,0.47-0.85-0.14C289.32,455.27,289.6,455.31,289.89,455.36z"/>
	<path class="st2" d="M283.53,455.28c-0.25,0.57-0.54,0.63-0.87,0.06C282.95,455.32,283.24,455.3,283.53,455.28z"/>
	<path class="st2" d="M294.17,470.1c0.16,0.14,0.32,0.29,0.48,0.43C294.29,470.61,294.1,470.5,294.17,470.1z"/>
	<path class="st2" d="M292.66,453.31c-0.13,0.36-0.38,0.51-0.75,0.43C292.02,453.35,292.3,453.27,292.66,453.31z"/>
	<path class="st2" d="M280.35,468.42c0.02-0.14,0.1-0.22,0.24-0.24C280.63,468.39,280.56,468.47,280.35,468.42z"/>
	<path class="st4" d="M274.18,421.86c0.04-0.27,0.19-0.4,0.46-0.41C274.63,421.74,274.48,421.88,274.18,421.86z"/>
	<path class="st2" d="M281.16,467.65c0.02-0.15,0.11-0.23,0.26-0.24C281.45,467.63,281.35,467.69,281.16,467.65z"/>
	<path class="st4" d="M273.86,422.34c-0.03-0.27,0.08-0.45,0.35-0.51C274.25,422.11,274.12,422.27,273.86,422.34z"/>
	<path class="st2" d="M296.62,467.22c-0.1-0.07-0.2-0.15-0.3-0.22C296.52,466.94,296.62,467.02,296.62,467.22z"/>
	<path class="st0" d="M314.61,416c0.11,0.11,0.21,0.22,0.32,0.34C314.69,416.36,314.59,416.24,314.61,416z"/>
	<path class="st2" d="M296.14,466.87c-0.09-0.08-0.17-0.16-0.26-0.24C296.09,466.59,296.17,466.68,296.14,466.87z"/>
	<path class="st4" d="M277.48,425.94c-0.04-0.26,0.05-0.44,0.31-0.53C277.83,425.68,277.72,425.85,277.48,425.94z"/>
	<path class="st0" d="M324.89,409.63c-0.13-0.13-0.27-0.26-0.4-0.39C324.63,409.36,324.76,409.49,324.89,409.63z"/>
	<polygon class="st2" points="277.58,470.97 277.57,470.97 277.62,471.03 	"/>
	<path class="st2" d="M295,471.01c0,0-0.07-0.04-0.07-0.04C294.94,470.97,295,471.01,295,471.01z"/>
	<polygon class="st2" points="277.21,471.33 277.18,471.35 277.22,471.39 	"/>
	<path class="st2" d="M278.78,456.69c0.09,0.07,0.18,0.14,0.27,0.21C278.86,456.96,278.76,456.91,278.78,456.69z"/>
	<path class="st4" d="M274.6,421.49c0.03-0.26,0.19-0.4,0.45-0.43C275.03,421.34,274.88,421.49,274.6,421.49z"/>
	<path class="st2" d="M274.41,473.66c0.1-0.09,0.19-0.17,0.29-0.26C274.6,473.49,274.51,473.58,274.41,473.66z"/>
	<path class="st2" d="M295.74,466.47c-0.15,0-0.23-0.07-0.25-0.22C295.68,466.21,295.78,466.26,295.74,466.47z"/>
	<path class="st2" d="M297.83,420.89c0.1,0.09,0.19,0.18,0.29,0.28C297.9,421.19,297.81,421.1,297.83,420.89z"/>
	<path class="st2" d="M289.95,466.19c0.09,0.09,0.19,0.18,0.28,0.28C290.01,466.49,289.92,466.4,289.95,466.19z"/>
	<path class="st2" d="M279.77,463.73c0,0,0.08-0.04,0.08-0.04C279.84,463.69,279.77,463.73,279.77,463.73z"/>
	<path class="st2" d="M297.9,473.37c0.09,0.08,0.19,0.17,0.28,0.25C297.97,473.66,297.88,473.57,297.9,473.37z"/>
	<path class="st2" d="M289.52,465.84c0.09,0.08,0.19,0.16,0.28,0.24C289.6,466.12,289.5,466.05,289.52,465.84z"/>
	<path class="st2" d="M282.78,466.12c0.1-0.09,0.2-0.18,0.3-0.26C283.09,466.06,282.99,466.15,282.78,466.12z"/>
	<path class="st0" d="M239.66,305.45c0.14,0.11,0.28,0.22,0.41,0.33C239.81,305.83,239.71,305.67,239.66,305.45z"/>
	<path class="st2" d="M276.8,471.72c0,0-0.06,0.04-0.06,0.04S276.8,471.72,276.8,471.72z"/>
	<path class="st2" d="M299.04,469.27c0,0,0.07,0.04,0.07,0.04C299.11,469.31,299.04,469.27,299.04,469.27z"/>
	<path class="st2" d="M289.11,465.44c0.09,0.09,0.18,0.18,0.27,0.27C289.17,465.73,289.09,465.64,289.11,465.44z"/>
	<path class="st2" d="M283.19,465.76c0.1-0.1,0.2-0.2,0.3-0.3C283.39,465.56,283.29,465.66,283.19,465.76z"/>
	<polygon class="st2" points="292.67,463.71 292.74,463.74 292.73,463.7 	"/>
	<path class="st2" d="M279.41,464.16c0,0,0.07-0.02,0.07-0.03C279.48,464.13,279.41,464.16,279.41,464.16z"/>
	<path class="st2" d="M266.05,474.97c0.09,0.08,0.19,0.17,0.28,0.25C266.13,475.26,266.03,475.18,266.05,474.97z"/>
	<path class="st0" d="M298.63,487.81c-0.14,0.08-0.28,0.16-0.42,0.23C298.35,487.97,298.49,487.89,298.63,487.81z"/>
	<polygon class="st2" points="290.2,455 290.24,454.95 290.2,454.95 	"/>
	<path class="st2" d="M273.4,469.32c0,0,0.07-0.05,0.07-0.05C273.46,469.26,273.4,469.32,273.4,469.32z"/>
	<polygon class="st2" points="279.06,464.54 279.08,464.47 279.04,464.47 	"/>
	<polygon class="st2" points="293.1,464.12 293.11,464.14 293.15,464.07 	"/>
	<path class="st2" d="M298.26,421.29c0.09,0.08,0.18,0.15,0.27,0.22C298.44,421.44,298.35,421.36,298.26,421.29z"/>
	<path class="st2" d="M280.73,468.02c0.03-0.15,0.12-0.23,0.26-0.24C281.02,467.98,280.93,468.07,280.73,468.02z"/>
	<path class="st2" d="M208.28,312.74c-0.25-1.26-1.13-2.37-0.82-3.76c0.07-0.32-0.13-0.67-0.53-0.7c-0.89-0.08-0.35,1.04-1.07,1.25
		c-2.31-2.2-4.63-4.43-6.97-6.65c-0.72-0.69-0.78-1.36,0-2.01c1.46-1.22,2.94-2.43,4.42-3.62c0.37-0.29,0.75-0.12,1.08,0.14
		c0.37,0.28,0.78,0.52,1.09,0.85c4.91,5.18,10.38,9.76,15.6,14.61c5.01,4.66,9.8,9.57,14.92,14.12c0.24,0.21,0.44,0.48,0.78,0.87
		c-0.58,0.32-1.15,0.37-1.52,0.07c-1.42-1.19-3.06-0.42-4.58-0.62c-0.33-0.04-0.71,0.05-0.72,0.48c-0.01,0.37,0.31,0.6,0.64,0.64
		c0.59,0.07,1.19,0.07,1.78,0.08c0.53,0.02,0.93,0.2,0.92,0.79c-0.01,0.31-0.03,0.72-0.22,0.92c-0.37,0.39-0.8,0.22-1.25-0.04
		c-2.4-1.37-4.96-2.24-7.74-2.38c0,0,0.03-0.02,0.03-0.02c0.02-0.4,0.02-0.77-0.56-0.66c0.04-0.04,0.07-0.08,0.11-0.13
		c-0.03,0.05-0.07,0.09-0.1,0.14c0.1-0.53-0.23-0.59-0.63-0.58c-0.38-0.11-0.64-0.34-0.8-0.7l-0.09-0.09
		c-1.59-1.49-3.16-2.99-4.76-4.46C214.25,318.49,211.53,315.33,208.28,312.74z"/>
	<path class="st3" d="M303.77,319.4c0.02,1.95,0.04,3.91,0.06,5.86c-0.03,0.16-0.06,0.32-0.1,0.48c-0.52,0.43-0.31,0.99-0.29,1.52
		c-0.18,0.84-0.14,1.66,0.25,2.44c-0.74,1.74-0.19,4.33-3.06,4.68c-0.29,0-0.58,0.01-0.87,0.01c-0.53-0.58-1.23-0.34-1.86-0.34
		c-5.3,0-10.55,1.1-15.87,0.83c-0.16-0.01-0.34,0.17-0.51,0.26c-1.87,0.04-3.73,0.08-5.6,0.12c-1.15-0.67-0.44-0.7,0.26-0.82
		c3.22-0.55,6.46-0.37,9.7-0.39c0.46,0,0.94,0.06,1.39-0.01c0.96-0.17,2.57,0.61,2.72-0.74c0.13-1.1-0.95-2.25-2.18-2.81
		c-1.54-0.7-2.62-1.83-3.63-3.81c2.65,1.13,4.82,2.19,7.09,2.97c2.09,0.71,3.75,2.5,6.14,2.39c0.74,1.24,2.15,1.05,3.26,1.48
		c0.1,0.04,0.4-0.3,0.51-0.51c0.05-0.09-0.14-0.46-0.2-0.45c-1.25,0.15-2.22-1.67-3.6-0.5c0.05-0.8-0.15-1.32-1.06-1.62
		c-4.09-1.37-7.68-3.9-11.81-5.2c-0.35-0.11-0.61-0.25-0.53-0.68c0.06-0.32,0.33-0.37,0.59-0.44c0.48-0.12,1.07,0.19,1.57-0.56
		c-1.96-1.06-4.36,1.78-6-0.85c1.06-0.25,2.13-0.62,3.31-0.59c1.05,0.03,2.12,0.11,2.93-0.8c0.16-0.18,0.52-0.35,0.71-0.29
		c3.99,1.32,7.64-1.64,11.59-0.91c1.28,0.24,2.11-0.53,2.7-1.59c0.25,0.03,0.5,0.06,0.75,0.1c0.14,0.09,0.29,0.17,0.43,0.26
		C302.98,319.07,303.38,319.24,303.77,319.4z"/>
	<path class="st2" d="M215.04,330.03c2.09-0.29,4.12-0.97,6.27-0.83c2.68-0.3,4.76,0.5,6.35,2.85c1.14,1.67,2.71,3.05,4.17,4.64
		c-1.41,0.97-3.3,0.08-5.03,0.43c-3.42,0.69-6.96,0.54-10.46,0.54c-1.76,0-2.62-0.64-2.49-2.45c0.04-0.52,0.05-1.09-0.13-1.57
		C212.74,330.98,212.72,330.99,215.04,330.03z"/>
	<path class="st2" d="M281.52,335.14c0.17-0.09,0.34-0.27,0.51-0.26c5.32,0.28,10.57-0.83,15.87-0.83c0.63,0,1.33-0.24,1.86,0.34
		C293.69,334.93,287.62,335.45,281.52,335.14z"/>
	<path class="st2" d="M300.64,334.38c2.86-0.36,2.31-2.94,3.06-4.68c0.11,1.53,0.17,3.06-0.06,4.59
		C302.63,334.32,301.63,334.35,300.64,334.38z"/>
	<path class="st2" d="M230.25,332.38c-1.16-0.23-1.62-0.65-1.57-1.48c0.01-0.11,0.3-0.31,0.4-0.28
		C229.8,330.86,229.85,331.53,230.25,332.38z"/>
	<path class="st2" d="M231.05,333.33c0.88,0.14,1.24,0.51,1.43,1.41C231.56,334.59,231.18,334.24,231.05,333.33z"/>
	<path class="st2" d="M227.32,330.2c-0.07-0.06-0.46-0.25-0.48-0.48c-0.05-0.45,0.39-0.42,0.7-0.4c0.36,0.03,0.61,0.24,0.55,0.64
		C228.04,330.27,227.84,330.4,227.32,330.2z"/>
	<path class="st2" d="M237.18,329.97c-0.05,0.11-0.07,0.28-0.15,0.31c-0.08,0.03-0.21-0.08-0.32-0.12c0.05-0.11,0.07-0.28,0.15-0.31
		C236.94,329.81,237.08,329.92,237.18,329.97z"/>
	<path class="st0" d="M361.49,460.19c0.09-0.49-0.63-0.97-0.09-1.41c0.28-0.23,0.61,0.08,0.74,0.38c0.28,0.64,0.02,0.98-0.66,1.01
		C361.47,460.18,361.49,460.19,361.49,460.19z"/>
	<path class="st0" d="M213.04,379.03c-0.12,0-0.23-0.03-0.34-0.08c-0.05-0.38-0.11-0.75-0.16-1.13c0.04-0.4,0.08-0.79,0.11-1.19
		C213.4,377.33,212.97,378.22,213.04,379.03z"/>
	<path class="st0" d="M212.59,376.35c-0.44-0.34-0.49-0.79-0.38-1.3C212.76,375.36,212.67,375.86,212.59,376.35z"/>
	<path class="st2" d="M293.68,494.19c1.01-0.8,1.65-0.55,2.51-0.42C295.46,494.72,294.76,494.35,293.68,494.19z"/>
	<path class="st2" d="M300.22,486.84c0.41,0.03,0.82,0.06,1.72,0.12c-0.98,0.43-1.49,1.07-1.75-0.11
		C300.19,486.86,300.22,486.84,300.22,486.84z"/>
	<path class="st4" d="M324.39,485.67c-0.1-0.22-0.19-0.36-0.21-0.5c-0.01-0.05,0.18-0.15,0.29-0.17c0.2-0.04,0.4,0.05,0.34,0.28
		C324.78,485.4,324.59,485.49,324.39,485.67z"/>
	<path class="st2" d="M293.29,494.7c-0.05,0.11-0.07,0.28-0.15,0.32c-0.08,0.03-0.22-0.08-0.33-0.13c0.05-0.11,0.07-0.29,0.15-0.32
		C293.05,494.54,293.18,494.65,293.29,494.7z"/>
	<path class="st2" d="M215.04,286.7c-0.73-0.07-1.51,0.13-2.51-0.38c1.19-0.52,1.85,0.02,2.54,0.36L215.04,286.7z"/>
	<path class="st2" d="M222.83,289.91c-0.11,0.32-0.36,0.36-0.62,0.29c-0.33-0.09-0.64-0.27-0.62-0.66c0.02-0.36,0.31-0.38,0.57-0.25
		C222.44,289.42,222.81,289.48,222.83,289.91z"/>
	<path class="st2" d="M219.62,292.73c-0.13,0.28-0.38,0.33-0.64,0.29c-0.24-0.03-0.6-0.06-0.48-0.42c0.05-0.15,0.4-0.27,0.62-0.29
		C219.35,292.3,219.65,292.35,219.62,292.73z"/>
	<path class="st2" d="M217.66,294.87c0.2-0.06,0.43-0.17,0.65-0.17c0.24,0,0.57,0.05,0.49,0.42c-0.07,0.29-0.36,0.32-0.62,0.29
		C217.92,295.38,217.65,295.34,217.66,294.87z"/>
	<path class="st2" d="M219.71,288.25c0.21,0.18,0.52,0.31,0.55,0.5c0.08,0.41-0.31,0.32-0.53,0.31c-0.25-0.01-0.58-0.05-0.51-0.43
		C219.25,288.49,219.49,288.41,219.71,288.25z"/>
	<path class="st2" d="M225.08,290.39c-0.09,0.33-0.37,0.28-0.6,0.26c-0.27-0.03-0.54-0.14-0.45-0.46c0.03-0.11,0.31-0.21,0.48-0.21
		C224.77,289.97,225,290.08,225.08,290.39z"/>
	<path class="st2" d="M213.23,292.82c-0.1,0.04-0.26,0.16-0.41,0.15c-0.29-0.01-0.46-0.2-0.31-0.47c0.06-0.11,0.32-0.15,0.48-0.14
		C213.16,292.38,213.33,292.5,213.23,292.82z"/>
	<path class="st2" d="M221.33,293.49c-0.23,0.13-0.36,0.28-0.51,0.29c-0.27,0.01-0.49-0.14-0.4-0.44c0.03-0.11,0.3-0.2,0.46-0.19
		C221.02,293.17,221.14,293.34,221.33,293.49z"/>
	<path class="st2" d="M214.98,293.49c-0.23,0.13-0.36,0.28-0.51,0.28c-0.27,0.01-0.49-0.14-0.4-0.44c0.03-0.1,0.31-0.19,0.46-0.18
		C214.66,293.16,214.78,293.33,214.98,293.49z"/>
	<path class="st2" d="M216.62,294.28c-0.24,0.11-0.41,0.25-0.52,0.21c-0.14-0.05-0.24-0.23-0.36-0.36c0.14-0.08,0.28-0.22,0.4-0.21
		C216.28,293.94,216.4,294.11,216.62,294.28z"/>
	<path class="st2" d="M215.06,286.68c0.23,0.08,0.54,0.07,0.58,0.41c0.01,0.06-0.16,0.22-0.23,0.21c-0.33-0.05-0.33-0.34-0.37-0.59
		C215.04,286.7,215.06,286.68,215.06,286.68z"/>
	<path class="st2" d="M211.99,285.75c-0.05,0.02-0.09,0.03-0.14,0.05c-0.01-0.07-0.03-0.14-0.04-0.2c0.05,0.01,0.11,0.01,0.15,0.03
		C211.98,285.65,211.98,285.71,211.99,285.75z"/>
	<path class="st2" d="M302.59,318.9c-0.14-0.09-0.29-0.17-0.43-0.26C302.3,318.73,302.45,318.81,302.59,318.9z"/>
	<path class="st4" d="M275.59,416.84c-0.02,0.1-0.03,0.2-0.01,0.31c-0.16,0.01-0.32,0.01-0.48,0.02c0,0-0.01-0.02-0.01-0.02
		C275.26,417.04,275.42,416.94,275.59,416.84z"/>
	<path class="st0" d="M287.04,508.31c1.01-0.43,1.75-0.74,2.54-1.07C289.21,508.93,289.2,508.94,287.04,508.31z"/>
	<path class="st0" d="M298.27,507.08c-0.17-0.01-0.35-0.02-0.52-0.03c0.04-0.09,0.11-0.26,0.13-0.25c0.23,0.06,0.46,0.14,0.68,0.21
		c0,0-0.12,0.12-0.12,0.12S298.27,507.08,298.27,507.08z"/>
	<path class="st0" d="M294.84,507.57c0.1,0.06,0.2,0.12,0.3,0.18c-0.1,0.06-0.2,0.16-0.3,0.16c-0.1,0-0.2-0.11-0.3-0.16
		C294.63,507.69,294.73,507.63,294.84,507.57z"/>
	<path class="st2" d="M303.44,327.26c-0.02-0.53-0.23-1.1,0.29-1.52C303.78,326.28,303.98,326.84,303.44,327.26z"/>
	<path class="st3" d="M270.83,417.69c-0.09,0.04-0.19,0.08-0.28,0.12c0.04-0.1,0.07-0.2,0.11-0.3
		C270.72,417.57,270.78,417.63,270.83,417.69z"/>
	<path class="st0" d="M224.14,327.76c-0.36-0.08-0.5-0.33-0.56-0.66C224.16,326.99,224.16,327.36,224.14,327.76z"/>
	<path class="st0" d="M223.59,327.11c-0.37-0.02-0.55-0.24-0.63-0.58C223.36,326.52,223.69,326.58,223.59,327.11z"/>
	<polygon class="st0" points="222.16,325.83 222.04,325.86 222.07,325.74 	"/>
	<path class="st2" d="M297.41,332.07c1.37-1.17,2.35,0.65,3.6,0.5c0.05-0.01,0.25,0.36,0.2,0.45c-0.11,0.21-0.41,0.55-0.51,0.51
		c-1.12-0.43-2.52-0.24-3.26-1.48C297.42,332.05,297.41,332.07,297.41,332.07z"/>
</g>
</svg>
