<?xml version="1.0" encoding="utf-8"?>
<!-- Generator: Adobe Illustrator 23.0.3, SVG Export Plug-In . SVG Version: 6.00 Build 0)  -->
<svg version="1.1" id="Layer_1" xmlns="http://www.w3.org/2000/svg" xmlns:xlink="http://www.w3.org/1999/xlink" x="0px" y="0px"
	 viewBox="0 0 595.3 841.9" style="enable-background:new 0 0 595.3 841.9;" xml:space="preserve">
<style type="text/css">
	.st0{fill:#9DBBC3;}
	.st1{fill:#65639F;}
	.st2{fill:#65BAB4;}
	.st3{fill:#9590A7;}
	.st4{fill:#797494;}
	.st5{fill:#CCC8E0;}
	.st6{fill:#567A9B;}
	.st7{fill:#494387;}
	.st8{fill:#393163;}
	.st9{fill:#EBEAEF;}
	.st10{fill:#4A5A91;}
	.st11{fill:#6193A3;}
	.st12{fill:#5DA9AD;}
	.st13{fill:#5C5880;}
	.st14{fill:#413181;}
</style>
<g>
	<path class="st0" d="M424.6,460.5c-39,0-77.9,0-116.9,0c-1,0-2.1,0-3.1-0.3c-0.7-0.2-1.4-0.2-2.1-0.1c-4.5,0.7-8.9,0.3-13.4,0.4
		c-5.9,0.1-11.8,0-17.8,0c-0.9,0-1.7-0.1-2.6-0.3c-3.6-0.8-4.5-1.9-4.5-5.6c0-25.7,0-51.4,0-77c0-2.9,0.7-5.9,0.4-8.8
		c0-0.3,0-0.6,0-1c-0.1-2.9,0-3.1,2.9-3.1c2,0,4,0,6,0c1.7,0.1,1.9,0.3,1.9,2c0,1.6,0,3.2,0,4.8c0,24.5,0,49,0,73.4
		c0,3.8,0,3.8,3.9,3.8c6,0,12,0,18,0c2.7,0,2.9-0.2,2.9-2.8c0-3.6,0-7.2,0-10.8c0-0.6,0-1.3,0.1-1.9c0.4-1.7,1.5-2.4,3.4-2.2
		c1.5,0.2,2.4,1.1,2.4,2.8c0,3.8,0,7.7,0,11.5c0,0.6,0,1.1,0,1.7c0,1.2,0.6,1.7,1.8,1.8c0.2,0,0.5,0,0.7,0c6.3-0.6,12.6,0.2,18.8,0
		c6.3-0.2,12.6,0,19,0c6.4,0,12.8,0,19.2,0c6.3,0,12.6,0,19,0c6.3,0,12.6,0,19,0c6.3,0,12.6,0.2,19-0.1c3.3-0.1,6.7-0.7,10-0.3
		c3,0.4,5.9,0.7,8.8,0.4c7.7-0.9,15.5-0.2,23.2-0.4c1.6,0,3.2,0.1,4.7,0.4c2.4,0.4,4.8,0.2,7.1-0.5c1.5-0.4,2.3-1.8,3.2-3
		c0.2-0.2,0.1-0.6,0-0.9c-0.3-1.2-1.2-2-2-2.9c-0.9-1-2-1.2-3.3-0.8c-0.7,0.2-1.6,0.2-2.4,0.2c-34.3,0-68.6,0-103,0
		c-0.2,0-0.5,0-0.7,0c-2.4,0-3.2-1.2-2.1-3.3c1.2-2.2,1.7-4.6,2.7-6.8c1.4-3,2.4-6,3.8-9c1-2.2,1.7-4.6,2.6-6.9
		c0.8-2.1,1.5-4.3,2.4-6.4c0.7-1.8,1.9-3.5,2.2-5.5c0.2-1.4,1-2.7,1.7-3.9c1.7-2.8,1.8-6.2,3.9-8.8c0.3-0.4,0.1-1.1,0.3-1.6
		c0.5-1.8,1.8-2.7,3.7-2.6c1.9,0.1,2.7,1,2,2.7c-0.6,1.5-1.2,3.1-1.7,4.7c-0.7,1.9-1.7,3.7-2.3,5.6c-0.5,1.8-1.2,3.7-2.1,5.4
		c-0.7,1.4-1.4,2.9-1.9,4.5c-1.1,3.3-2.4,6.6-3.5,9.9c-0.4,1.2-1.2,2.4-1.7,3.6c-0.1,0.1-0.2,0.3-0.3,0.4c-1.4,3.2-1,3.9,2.5,3.9
		c32.6,0,65.1,0,97.7,0c2.9,0,5.5,1,8.1,1.9c1.1,0.4,2,1.2,2.7,2.2c1.6,2.2,2.8,4.5,2.6,7.4c-0.1,2.5-0.1,4.9-1.1,7.2
		c-0.8,1.7-0.3,2.4,1.4,2.7c3,0.6,5.9,0.6,9,0.2c3.4-0.4,6.8-0.5,10.3,0.2c1.2,0.2,2.4,0.1,3.6,0.2c2.2,0.1,4.5-0.1,6.7,0.3
		c1.4,0.2,3-0.1,4.5-0.3c0.8-0.1,0.9-0.8,0.9-1.5c0-1.8,0.1-3.5,0-5.3c-0.2-3.1,1.3-5.7,2.1-8.5c2.4-1.5,3-5,6.1-5.7
		c0.3-0.1,0.6-0.3,0.8-0.5c4-3.4,8.6-2.6,13.2-2c0.5,0.1,1,0.5,1.4,0.8c1,0.7,2,1.5,3.3,1.9c0.3,0.1,0.6,0.3,0.8,0.5
		c1.8,2.4,4.3,4.2,5.5,7.2c0.3,0.7,0.5,1.4,0.5,2.1c0.1,1,0.2,2,0.7,3c0.6,1.1,0.6,2.6-0.1,3.7c-0.6,0.9-0.6,1.8-0.6,2.7
		c0,1.6-0.4,3-1.5,4.2c-0.8,0.9-1.5,1.9-2.1,2.9c-1.3,2.4-3.5,3.6-6,4.3c-0.6,0.2-1,0.4-1.5,0.8c-0.4,0.4-0.9,0.7-1.5,0.6
		c-2.5-0.2-4.9,0.5-7.4,0.5C502.1,460.5,463.3,460.5,424.6,460.5z M363.5,450c-7.1,0-14.2,0-21.3,0c-0.9,0-1.7-0.1-2.6-0.1
		c-3.7-0.3-7.5-0.3-11.2,0c-0.9,0-1.7-0.1-2.6-0.1c-6,0-12,0-18,0c-1.5,0-2.9-0.1-3.7-1.6c0.1-0.9,0.3-1.9,0.3-2.8c0-3.7,0-7.3,0-11
		c0-0.4,0-0.8-0.1-1.2c-0.1-0.6-0.5-0.8-1-0.8c-0.6,0-1.1,0.2-1.2,0.8c-0.1,0.5-0.1,1-0.1,1.4c0,3.8,0,7.7,0,11.5
		c0,0.7,0,1.4,0.4,2.1c-1,1.3-2.2,1.7-3.8,1.6c-1.4-0.1-2.9,0-4.3,0c-5.7,0-11.5,0-17.2,0c-2.7,0-2.8-0.2-2.8-2.9c0-0.3,0-0.6,0-1
		c0-25.2,0-50.3,0-75.5c0-1.2,0-2.4,0-3.6c0-1-0.6-1.2-1.4-1.1c-1.8-0.2-3.6-0.2-5.3,0c-1.5,0.3-1.5,1.4-1.5,2.6
		c0,29.2,0,58.5,0,87.7c0,1.9,0.2,2.2,2,2.6c0.5,0.1,1.1,0.2,1.7,0.2c6,0,12,0,18,0c1.1,0,2.2,0,3.3,0c1.1,0,2.2,0,3.4,0
		c0.3,0,0.6,0,0.9,0c1.4,0,2.9,0,4.3,0c4.2,0.2,8.4,0.6,12.6,0.4c3.6-0.2,7.1-0.2,10.7-0.3c7.8-0.2,15.6,0.3,23.4-0.4
		c4.3-0.4,8.6,0.1,12.9-0.5c1.2,0.1,2.3,0.5,3.5,0.5c14.8-0.1,29.6-0.1,44.4-0.1c12.1,0.1,24.3-0.2,36.4,0.4c0.8,0,1.8,0.3,2.5-0.4
		c1.2,0.4,2.5,0.4,3.8,0.4c26.5,0,52.9,0,79.4-0.1c3,0,6,0.1,8.9-0.4c1.4-0.2,2.6,0.5,4,0.5c2.2,0,4.2-0.7,6.4-1
		c2.5-0.3,5.7-2.3,7.3-4.3c1.2-1.6,1.2-4,3.3-5.1c0.2-0.1,0.2-0.7,0.2-1.1c0.1-3.6,0.1-7.2-0.5-10.7c-0.2-1-0.6-1.8-1.8-1.9
		c-0.9-0.1-1.4-0.7-1.6-1.8c-0.3-2-1.3-3.3-3.4-4.1c-1.9-0.7-3.9-0.8-5.6-1.9c-0.5-0.3-1.1-0.3-1.6-0.3c-3.7-0.2-7,1.4-10.2,2.9
		c-1.2,0.6-2.6,1.5-2.7,3.1c-0.1,1.2-0.4,2-1.7,2.1c-0.6,0.1-0.6,0.6-0.8,1.1c-0.6,1.6,0,3.7-1.7,5c-0.4,0.3-0.2,1.1,0.1,1.6
		c1.1,1.4,1,2.8,0.7,4.5c-0.5,2.4-1.1,3.1-3.6,3.1c-3.8,0-7.7,0-11.5,0c-0.9,0-1.7,0-2.6-0.2c-3.4-0.6-6.9-0.6-10.3-0.1
		c-3.5,0.5-6.8,0.1-10.2-0.2c-1.1-0.1-1.8-1.1-2.4-1.8c-0.6-0.7,0.3-1.4,0.5-2.2c0.7-2,2.5-3.9,0.7-6.3c-0.2-0.2,0-0.6,0-0.9
		c-0.2-1.6-0.4-3.1-0.8-4.7c-0.6-2.6-2.8-3.7-4.8-4.6c-1.3-0.6-3.1-0.7-4.7-0.7c-7.5,0.1-15,0-22.5,0c-0.8,0-1.6-0.2-2.3,0.4
		c-2.5,0-5.1,0.3-7.6-0.4c-1-0.2-2.1-0.2-3.1,0c-1.9,0.5-3.8,0.4-5.7,0.4c-4.9,0-9.9,0-14.8,0c-2.9,0-5.8,0.2-8.6-0.1
		c-4.9-0.4-9.8-0.8-14.8-0.8c-5.4,0-10.7,0-16.1,0c-1.6,0-3.2,0-4.8,0.3c-2.5,0.5-3.8-1.3-2.8-3.6c1.1-2.7,2.3-5.3,3.2-8
		c0.4-1.3,1.5-2.3,1.6-3.7c0.2-1.8,1.8-3.2,1.6-5.2c0-0.2,0.3-0.6,0.5-0.7c0.7-0.4,0.8-1.1,0.9-1.9c0.1-0.6,0.3-1.3,0.5-1.8
		c1-2.3,2.9-4.3,2.9-7.1c0-0.3,0.5-0.6,0.6-1c0.6-2,2-3.7,2.4-5.9c0.2-1.1-0.2-1.7-1-2.1c-0.9-0.4-1.3,0.3-1.7,1
		c-0.8,1.8-1.5,3.6-2.4,5.3c-0.8,1.6-1.1,3.5-1.8,5.1c-1.2,2.8-2.5,5.6-3.7,8.5c-1.7,4.4-3.1,9-5,13.3c-1.3,3-2.2,6.3-3.8,9.2
		c-0.5,1-0.8,2-1.1,3.1c-0.5,1.8-1.3,3.5-2.2,5.2c-0.7,1.4-0.6,1.8,1,1.9c1.2,0.1,2.4,0,3.6,0c12.8,0,25.6,0,38.4,0
		c2.4,0,4.8,0,7.2-0.1c10.9,0.2,21.8,0.1,32.6,0c8.4,0,16.8,0.5,25.1-0.3c0.4,0,0.8,0,1.2,0.1c1.5,0.6,3.1,0.9,4.7,0.8
		c0.8,0,1.6,0.2,1.5,1.1c0,1.8,0.8,3.4,0.6,5.2c-0.1,1.9-0.7,2.8-2.6,2.7c-3.3-0.1-6.5,0.5-9.8,0.5c-1.4,0-2.7-0.5-4-0.5
		c-5.9,0-11.8,0-17.8,0.1c-2.8-0.3-5.6,0.2-8.3,0.4c-3.7,0.2-7.3-0.4-11-0.4c-5.2,0.1-10.5,0.5-15.7,0.4c-1,0-1.9,0-2.9,0
		C395.5,450.1,379.5,450.1,363.5,450z"/>
	<path class="st1" d="M242.8,383.8c0.3,0.5,0.3,1,0,1.5c-0.4,0.1-1-0.7-1.3,0.3c-0.4,1.1-0.4,2.2-0.4,3.3c0,15.3,0,30.7,0,46
		c0,0.6,0,1.1,0,1.7c0,1.1,0.6,1.6,1.7,1.5c0.3,0.7,0.3,1.3,0,2c-1.2-0.2-1.8,0.2-1.7,1.5c0.1,1.3-0.7,1.9-1.9,1.8
		c-0.4,0-0.8,0-1.2,0c-1.8-0.1-1.8-0.1-2.1-1.9c-0.1-0.4,0.2-1-0.7-1.2c-0.6,0.8-0.2,1.8-0.4,2.7c-0.3-0.1-0.6-0.2-0.8-0.5
		c-0.5-1.8-0.9-3.6-0.4-5.4c0.3-1,0.3-2,0.3-3.1c0-18.5,0-37,0-55.5c0-0.7,0.2-1.5-0.1-2.1c-1-2.4,0.4-4.7,0.2-7.1
		c0-0.4,0.4-0.6,0.8-0.7c0.2,0.7-0.3,1.6,0.6,2.3c0.7-1,0.2-1.9,0.5-2.8c0.9,0,1.7,0,2.6,0c1,0.5,1.8,1.3,3,1.5l0,0
		c0,0.9-0.4,2,1.2,1.9c0.4,1.1,0.3,2.3,0,3.4c-0.4,0.1-1-0.6-1.2,0.1c-0.8,2.7-0.6,5.5-0.4,8.2C241.4,384.1,242,384.2,242.8,383.8z
		 M235.4,374.6c-0.2,0-0.3,0-0.5,0c0,20.7,0,41.3,0,62c0,0.3,0,0.6,0.6,0.7c0.5-0.4,0.3-1.1,0.3-1.7
		C236.3,417.4,236,376.2,235.4,374.6z"/>
	<path class="st1" d="M242.8,449.7c0.4,1.8,0.4,3.6,0,5.5c-1.4-0.2-2.6,0.1-3.8,0.7c-1.9,1-3.3,0.6-4.5-1c-0.6-0.7-1.2-0.9-2-0.9
		c-1.4-0.1-2.2,0.9-2.9,1.8c-0.8,1-0.4,2,0.8,2.4c1.2,0.3,2.4,0.3,3.5,0.1c2.9-0.7,5.9-0.3,8.8-0.4c0,0.5-0.2,0.8-0.7,0.9
		c-0.7,0.2-1.4,0.3-2.1,0.5c-1.3,0.6-2.8,0.3-4.2,0.3c-2,0-3.9,0-5.9,0c-0.6,0-1.3,0.1-1.9,0.1c-58.1,0-116.2,0-174.2,0
		c-0.4,0-0.8,0-1.2,0c-1.2,0-2.2-0.3-3-1.3c0.3-0.6,0.9-0.7,1.4-0.5c1.3,0.5,2.7,0.4,4,0.4c38.5-0.3,76.9,0.6,115.4-0.4
		c4.7-0.1,9.4,0.1,14.1,0.4c4.8,0.3,9.6,0.3,14.3-0.4c0.7,0.4,1.5,0.4,2.3,0.5c3.5,0.3,7-0.6,10.5-0.5c0.7,0,1.2-0.4,1.7-0.7
		c1.8-0.9,3.5-1.4,5.2,0.3c0.8,0.8,1.9,0.6,2.7,0.3c1-0.4,0.5-1.4,0.6-2.1c0-0.3-0.1-0.6-0.2-0.9c-0.3-1.7,0.2-2.5,1.9-2.5
		c1.6,0,3.2-0.3,4.8,0.3c1.2,0.4,2.4,0.2,3.6,0.2c1,0,1.8-0.6,1.9-1.5c0.1-1.3-1.1-0.7-1.8-0.9c0.7-1,1.3-2.2,2.5-2.8
		c0,0.6-0.1,1.1,0.4,1.5c0.6,0.5,1.2,0.4,1.8,0.2c0.8-0.3,0.5-1.1,0.6-1.7c0.1-0.8,0.3-1.5,1.2-1.5c0.8,0,1.1,0.6,1.2,1.3
		C239.8,449.1,241.3,449.4,242.8,449.7z"/>
	<path class="st2" d="M433.2,272.8c3.1,1.9,3.1,2.2,2.6,5.5c-0.3,2.3-1.5,4.1-2.5,6c-0.3,0.5-0.6,1-0.8,1.5
		c-0.5,2.2-1.7,4.1-2.4,6.2c-0.6,2-1.9,3.6-2.2,5.7c-0.2,1.3-1.8,1.9-1.4,3.4c-1.5,1.4-1.2,3.5-2.2,5.2c-1,1.6-1.5,3.5-2.2,5.3
		c-0.6,1.6-1.5,3.1-2,4.8c-0.9,3.4-2.2,6.8-3.8,9.9c-1.5,3-2,6.4-3.9,9.2c-0.6,0.9-0.2,2-0.7,3c-2,3.9-3.8,7.8-4.9,12.1
		c-0.4,1.6-1.5,2.9-2,4.6c-1,3.6-3.5,6.7-4.1,10.5c-0.1,0.5-0.3,0.9-0.8,1.1c-1.1,0.4-4.1-1.8-3.8-2.8c0.2-0.9,0.2-1.9,0.7-2.8
		c1.1-2.2,2.2-4.4,2.7-6.8c0.3-1.1,1-2.1,1.4-3.2c1.8-4.3,3.2-8.8,5.2-13c1.5-3.2,2.3-6.6,4.2-9.6c0.4-0.6,0.5-1.5,0.7-2.2
		c0.6-2.1,1.8-3.9,2.4-6c1.1-3.7,2.9-7,4.1-10.7c0.4-1.2,1-2.4,1.6-3.4c1-1.9,1.4-4,2.3-5.9c0.8-1.7,2.2-3.4,1.9-5.5
		c0-0.1,0-0.4,0.1-0.5c1.5-0.9,1.5-2.7,2.3-4c0.5-0.9,0.8-1.7,0.8-2.7c0-1,0.1-2,0.7-2.7C430.1,281.3,430.9,276.8,433.2,272.8z
		 M416.8,321.3c-0.1-0.7,0.2-1.3-0.5-1.6c-0.7-0.3-1,0.4-1.3,0.8c-1.1,1.6-2.2,3.4-2.6,5.4c-0.4,1.7-1.4,3-1.8,4.5
		c-0.5,1.9-2.2,3.4-1.7,5.5c0,0.1-0.1,0.3-0.2,0.4c-1.3,0.6-1.3,2-1.8,3.1c-1.7,4.5-3.6,8.9-5.5,13.4c-0.4,0.9-1,1.6-1.3,2.5
		c-0.7,2.3-1.6,4.4-2.8,6.5c-1,1.8-0.7,2.5,1,3.4c0.8,0.4,1.4,0.2,1.5-0.5c0-2.1,1.5-3.6,2.1-5.5c0.8-2.8,2-5.5,3-8.2
		c1.5-3.8,3.1-7.6,4.4-11.5c0.4-1.1,1.6-1.7,1.6-2.8c0-1.9,2.4-3.2,1.3-5.3c-0.1-0.2,0.4-0.6,0.7-0.9c0.3-0.4,0.7-0.7,0.9-1.1
		c0.7-2.3,1.5-4.7,2.9-6.7C416.9,322.2,416.8,321.6,416.8,321.3z M418.2,317.7c-0.1-0.6,0.2-1.4-0.8-1.4c-0.6,0-0.7,0.6-0.7,1.1
		c0,0.7,0,1.4,0.9,1.5C418.3,318.9,418.2,318.2,418.2,317.7z"/>
	<path class="st3" d="M402.8,519c-0.2,3.5-0.1,7.3-0.2,11c0,1.9-0.8,2.5-2.7,2.4c-1.4-0.1-2-0.7-2-2.1c0-3.4,0-6.9,0-10.3
		c0-3,0-6.1,0-9.1c0-2.9-1.2-5-3.8-6.4c-0.8-0.4-1.7-0.8-2.3-0.3c-1.7,1.2-4,1.1-5.7,2.4c-1.5,1.1-2.7,2.3-2.7,4.4
		c0,5.8,0,11.7,0,17.5c0,0.5,0,1,0,1.4c-0.1,2-0.6,2.8-1.9,2.8c-2.4,0-3.4-0.8-3.4-3c0-6.7,0-13.4,0-20.1c0-2.8-0.6-3.7-3.3-4.6
		c-0.4-0.1-0.8-0.5-1.2-0.7c-0.4-0.2-0.9-0.3-1.4-0.2c-2.6,1-5.1,2-6.7,4.5c-0.5,0.8-0.9,1.7-0.8,2.7c0.1,1.6-0.2,3.2,0.4,4.7
		c0.1,0.3,0.1,0.6,0.1,0.9c-0.8,4.1,0.3,8.2,0.1,12.4c-0.1,2.6-0.3,2.8-2.8,3.2c-1.4,0.2-1.9-0.1-2.1-1.5c-0.1-0.8-0.1-1.6-0.1-2.4
		c-0.1-4.5-0.1-8.9-0.1-13.4c0-3.9-0.6-7.8,0.1-11.7c0.3-1.7,2.6-2.7,4-1.6c0.3,0.2,0.5,0.6,0.5,1c0,0.6,0,1.1,0,1.7
		c0,0.4,0,0.8,0.4,1c0.6,0.3,0.8-0.2,1.1-0.6c2.4-2.8,5.4-4.2,9.2-3.5c0.4,0.1,0.8,0.1,1.2,0c2.7-0.6,4.2,0.9,5.3,3
		c0.8,1.5,1,1.5,2.4,0.3c1.5-1.2,3.3-2.1,4.9-3.2c1-0.7,2.7-0.6,4-0.4c1.4,0.2,2.9,0.2,4.3,0.1c1,0,1.8,0.2,2.4,1.2
		c0.5,0.7,1.1,1.4,1.7,2c0.7,0.7,0.9,1.4,0.9,2.3C402.9,511,402.6,514.9,402.8,519z M392.3,502.5c0.1,0.1,0.2,0.3,0.3,0.4
		c0.2,0.1,0.5,0.1,0.7,0.2c2.1,1,4.4,2.2,5,4.5c0.7,2.8,1.6,5.7,0.9,8.7c-0.2,0.9-0.1,1.9,0,2.9c0.4,3,0.5,6,0,9.1
		c-0.1,0.6-0.1,1.3,0,1.9c0.1,0.7,0.5,1.1,1.3,1.2c0.7,0,1-0.3,1.3-0.9c0.3-0.6,0.2-1.3,0.2-1.9c0-2.9,0-5.8,0-8.6c0-3.7,0-7.4,0-11
		c0-2.8-2.6-6-5-6.2C395.3,502.3,393.8,502.5,392.3,502.5z M383.8,507c-1.8-0.1-2.7-0.6-3.1-2.2c-0.4-1.7-2.3-2.5-3.7-2.1
		c-0.5,0.1-1.2,0-1.3,0.8c-0.1,0.6,0.5,0.8,0.9,1c2.5,1.4,3.4,3.7,3.3,6.4c0,0.6,0,1.3,0,1.9c0,5.2,0,10.4,0,15.6
		c0,0.6,0,1.3,0.1,1.9c0.2,0.8,0.9,1.1,1.7,1c0.7-0.1,0.9-0.6,0.9-1.2c0-0.6,0-1.3,0-1.9c0-5.1,0-10.2-0.1-15.3
		C382.4,510.8,382,508.8,383.8,507z M360.9,516.8C361,516.8,361,516.8,360.9,516.8c0,1.4,0,2.7,0,4.1c0,2.8,0,5.6,0,8.4
		c0,0.8-0.1,1.8,1,1.8c1.1,0.1,1.2-0.9,1.4-1.7c0.3-1.3,0.2-2.7,0-4c-0.8-4.9-0.4-9.9-0.2-14.8c0.1-2.1-0.5-4-0.2-6.1
		c0.1-0.7-0.5-1.5-1.3-1.4c-0.9,0-0.6,1-0.7,1.5c-0.1,0.4,0,0.8,0,1.2C360.9,509.5,360.9,513.1,360.9,516.8z M374.1,502.7
		c-0.7,0-1.4-0.6-2.2,0.2c0.7,0,1.1,0,1.6,0C373.7,502.8,373.9,502.7,374.1,502.7z M388.8,504.3c0.3,0,0.5-0.2,0.4-0.4
		c0-0.3-0.3-0.4-0.5-0.3c-0.2,0.1-0.4,0.3-0.5,0.5C388.3,504.3,388.6,504.3,388.8,504.3z"/>
	<path class="st4" d="M484.2,501.7c2,0,2.7,0.7,3.3,2.6c0.6,1.9,0.7,3.9,1.9,5.6c0.1,0.1,0.2,0.3,0.2,0.4c0.3,3.6,2.6,6.6,3.2,10.1
		c0.3,1.5,1.3,2.7,1.5,4.3c0,0.5,0.4,0.9,0.9,1c0.6,0.1,1.1-0.3,1.3-0.8c0.2-0.4,0.2-0.9,0.3-1.4c0.1-0.4-0.1-1,0.1-1.2
		c1.6-1.1,1.3-3.1,2.3-4.5c0.5-0.7,0.8-1.4,0.8-2.2c0-0.6,0.2-1.1,0.7-1.5c0.3-0.2,0.7-0.6,0.7-0.9c-0.3-2.1,1.2-3.5,1.7-5.3
		c0.4-1.5,1.5-2.9,1.6-4.6c0-0.4,0.4-0.7,0.9-0.7c0.7,0,1.1,0.6,1,1.1c0,1.5,0,3.1-1,4.3c-0.5,0.7-0.8,1.3-0.8,2.2
		c0,0.6,0,1.1-0.4,1.6c-1.3,1.3-0.9,3.5-2.4,4.8c0.1,2.2-1.2,4-2.1,5.7c-0.9,1.9-0.6,4.3-2.5,5.8c0.1,2-1.6,3.4-1.7,5.3
		c-0.1,1.5-1.1,2.7-1.7,4.1c-1,2.6-1.8,5.2-2.9,7.7c-0.2,0.4-0.4,0.7-0.6,1c-0.5,0.6-1,1.4-1.9,0.8c-0.8-0.6-0.6-1.5-0.3-2.2
		c1.2-2.3,1.7-4.8,2.7-7.2c0.1-0.3,0.3-0.5,0.5-0.8c1.3-1.6,1.5-3.8,0.4-5.4c-0.5-0.7-0.8-1.4-0.7-2.2c0-0.7-0.2-1.3-0.6-1.8
		c-0.6-0.8-1-1.6-0.9-2.6c0-0.5-0.1-1-0.4-1.3c-1-0.8-0.7-2.1-1.2-3c-0.9-1.7-1.1-3.7-2-5.3c-1.1-2.1-1.6-4.4-2.2-6.6
		c-0.2-0.6-0.1-1.3-0.6-1.8c-1.2-1.1-0.8-2.5-0.8-3.8C482.4,501.7,483.3,501.7,484.2,501.7z M496.6,527.2c-2.5,0.2-2.5,0.2-3-2
		c-0.1-0.4-0.2-0.8-0.4-1.1c-1.3-2.1-1.5-4.6-2.3-6.9c-0.7-2.2-2.4-4-2.2-6.4c0-0.2-0.3-0.5-0.6-0.8c-0.3-0.4-0.6-0.8-0.6-1.3
		c0.1-1.9-1.8-3-1.7-4.9c0-0.6-0.8-0.7-1.3-0.1c-0.6,0.6-0.8,1.4-0.2,2.2c0.4,0.6,0.9,1.2,0.9,1.9c0.1,1.3,0.5,2.3,1.3,3.3
		c0.3,0.4,0.3,0.9,0.3,1.4c0,0.8,0.2,1.6,0.6,2.3c2.1,4,2.6,8.5,4.4,12.5c0.5,1.1,0.4,2.5,1.4,3.5c0.4,0.4,0.3,1.1,0.3,1.6
		c0,0.5-0.1,1.1,0.8,1.8C494.7,531.6,496.3,529.7,496.6,527.2z M498.1,522.5c-0.9,0.9-0.7,1.7-0.4,2.9
		C498.5,524.4,498.4,523.6,498.1,522.5z"/>
	<path class="st4" d="M475.4,530.3c0.8,0.3,1.4,0.6,0.5,1.4c-1.1,0.9-3.2,0.7-4.1-0.4c-2.2-2.6-4.9-4.7-6.5-7.9c-1-2-3.2-3-4.7-4.7
		c-0.7-0.7-2-0.2-2.2,0.9c-0.1,0.5-0.1,1-0.1,1.4c0.2,2.7-0.4,5.4-0.1,8.1c0,0.3,0,0.6,0,1c-0.3,1.8-0.7,2.1-2.5,2
		c-1.6-0.1-1.9-0.5-2-2.3c-0.7-11.9-0.1-23.8-0.4-35.7c-0.1-3.1,0.5-6.2,0.3-9.3c-0.1-0.8,0.4-1.3,1.2-1.5c2.7-0.5,3.7,0.4,3.3,3
		c-0.1,1.2-0.3,2.4,0,3.6c0.2,0.8,0.2,1.6-0.1,2.4c-0.2,0.7-0.3,1.4-0.3,2.1c0,4.9,0,9.9-0.1,14.8c0,1.4,0.1,2.7-0.2,4.1
		c-0.2,0.7-0.1,1.4,0.6,1.9c0.7,0.5,1.4,0.2,2-0.1c0.5-0.3,0.9-0.7,1.3-1c0,0.1,0.1,0.2,0.1,0.3c-0.2,0.3-0.3,0.8-0.6,1
		c-1.1,0.7-0.7,1.1,0.1,2c1.2,1.4,2.6,2.5,3.8,3.8c2.3,2.6,3.9,5.7,6.5,8c0.5,0.5,0.9,1.6,1.8,1.2c0.9-0.4,0.3-1.4,0.3-2.2
		C474.4,528.6,474.4,530,475.4,530.3z M454.7,507.7c0,6.9,0,13.9,0,20.8c0,0.8-0.2,2,1,2.1c1.2,0,1.1-1.1,1.1-2
		c0-0.8,0.1-1.6-0.1-2.4c-0.6-2-0.5-4-0.3-5.9c0.2-1.8,0-3.6,0-5.4c-0.2-5.9-0.3-11.8,0.1-17.7c0.2-3.5-0.5-7,0.4-10.4
		c0.1-0.3,0-0.6,0-1c0-1-0.6-1.2-1.4-1.2c-0.9,0.1-1,0.5-0.8,1.3c0.2,0.8,0.1,1.6,0.1,2.4C454.7,494.7,454.7,501.2,454.7,507.7z"/>
	<path class="st4" d="M49.6,458.4c0.8,1,1.8,1.3,3,1.3c0.4,0,0.8,0,1.2,0c58.1,0,116.2,0,174.2,0c0.6,0,1.3,0,1.9-0.1
		c0.3,0.3,0.2,0.6-0.2,0.6c-0.7,0.1-1.4,0-2.2,0c-60,0-120,0-180.1,0c-2.6,0-2.8-0.2-2.8-2.7c0-2.2-0.1-4.5,0-6.7c0-1.7,0.3-2,2-1.9
		c1.3,0,2.7-0.2,4,0.5c0,0.2,0,0.4,0,0.6c-0.2,1.3-1.1,1.7-2.1,2c-0.8,0.2-1.6,0.7-1.7,1.5c-0.1,1.2-0.8,2.4-0.1,3.7
		c0.6,1,1.8,0.6,2.5,1.1C49.2,458.3,49.4,458.3,49.6,458.4z"/>
	<path class="st1" d="M50.5,450c0-0.2,0-0.4,0-0.6c0.8-0.3,1.7-0.2,2.6-0.2c53.9,0,107.9,0,161.8,0c1.3,0,2.7-0.2,4,0.2
		c0,0.6,0,1.3,0,1.9c-1.3,1.5-3.2,1.1-4.6,0.9c-2.8-0.4-5.6-0.1-8.3-0.3c0.1-0.7,0.5-0.9,1.2-0.9c1,0,2.1,0,3.1,0
		c0.6,0,1.2,0.2,1.8-0.6c-1-0.6-2-0.4-2.9-0.4c-51.9,0-103.8,0-155.7,0C52.6,450.1,51.6,450,50.5,450z"/>
	<path class="st4" d="M234.5,447.3c-1.2,0.6-1.8,1.8-2.5,2.8c-1.3,0-2.6,0-3.8,0c0.1-0.2,0.3-0.4,0.4-0.6c0.7-0.8,1.6-0.4,2.5-0.5
		c1.1-0.1,1.8-0.7,1.8-1.8c0-0.9,0-1.8,0-2.6c0-25.5,0-51.1,0-76.6c0-2.6,0.4-3,3.1-3c1.8,0,3.5,0,5.3,0c1.8,0,2,0.2,2.1,2.1
		c0,0.8,0.3,1.8-0.4,2.5c-0.4,0-0.8,0-1.3,0l0,0c-0.6-1.6-1.2-1.8-3-1.5c-0.9,0-1.7,0-2.6,0c-0.5-0.1-0.9,0-1.1,0.5
		c-0.4,0.1-0.9,0.3-0.8,0.7c0.2,2.4-1.1,4.7-0.2,7.1c0.2,0.6,0.1,1.4,0.1,2.1c0,18.5,0,37,0,55.5c0,1,0,2-0.3,3.1
		c-0.5,1.8-0.1,3.6,0.4,5.4c0.1,0.4,0.4,0.4,0.8,0.5C234.7,444.4,235.2,445.9,234.5,447.3z"/>
	<path class="st5" d="M555.9,507.9c0,7.1,0,14.2,0,21.3c0,1.5-0.5,2.5-1.7,3.2c-2.4,1.4-5-0.2-5-3.2c0-13,0-26.1,0-39.1
		c0-1.5,0-3,0-4.6c0-1.3,0.6-2.1,1.9-2.4c0.5-0.1,1.1-0.3,1.6-0.4c1.6-0.3,3,0.8,3.1,2.5c0.1,1.8,0,3.5,0,5.3
		C555.9,496.4,555.9,502.1,555.9,507.9C555.9,507.9,555.9,507.9,555.9,507.9z M550.8,507.5C550.8,507.5,550.8,507.5,550.8,507.5
		c0,7,0,13.9,0,20.9c0,0.6,0,1.3,0.1,1.9c0.2,0.9,0.8,1.4,1.7,1.4c1,0,1.6-0.6,1.8-1.6c0.1-0.6,0.1-1.3,0.1-1.9
		c0-11.2,0-22.4,0-33.6c0-3,0-5.9,0-8.9c0-1.5-0.6-2-2.1-1.7c-1.1,0.2-1.6,0.7-1.6,1.9C550.8,493.1,550.8,500.3,550.8,507.5z"/>
	<path class="st3" d="M532.6,531c-1,0.2-1.1-0.7-1.6-1.2c-0.8-1-1.6-1.2-2.4-0.1c-1.4,2-3.9,2.1-5.6,3.4c-0.2,0.2-0.6,0.2-0.9,0.1
		c-2.3-0.3-4.5-0.5-6.6-1.8c-2.2-1.4-3.1-3.3-3.4-5.7c-0.1-0.5,0-1-0.1-1.4c-0.3-4,2.2-6.2,5.4-7.9c1.3-0.7,2.4-1.6,4-1.5
		c0.5,0,0.9-0.3,1.2-0.8c0.6-0.9,1.5-0.7,2.4-0.7c0.6,0,1,0.5,1.1,1.1c0.2,0.7-0.3,0.9-0.9,1.2c-2,0.9-3.8,1.9-5.4,3.5
		c-1,1-1.6,2-1.5,3.4c0.1,0.9,0,1.8,0,2.6c0.1,2.2,0.3,2.6,2.6,3.3c1,0.4,3.6,0.2,4.7,0c1.5-0.2,2.2-1.5,3.5-1.9
		c0.6-0.2,0.7-1.1,0.7-1.7c0-3.1,0-6.2,0-9.4c0-1.1-0.6-1.4-1.5-1.4c-0.6,0-1.1-0.2-1.2-0.9c-0.1-0.8,0.4-1.3,1.1-1.3
		c1.5,0.1,1.5-1.4,2.3-2c0.3,0.8,0.2,1.6-0.2,2.4c-0.8,0.2-1.8-0.2-2.6,1.1c1.3-0.4,2,0.3,2.8,0.9c0,3.8,0,7.7,0,11.5
		c-0.7,1.5-0.7,1.7,0.4,2.4C531.7,529.1,532.6,529.8,532.6,531z M519.3,517.6c-0.4-0.6-0.8-0.3-1.3-0.2c-2.7,0.9-4.6,3.4-4.8,6.3
		c-0.1,1.5,0.3,2.8,0.8,4.2c0.8,2.1,3.6,4,5.8,3.8c0.4,0,0.9,0,1-0.5c0.1-0.5-0.3-0.7-0.6-0.9c-1.3-0.5-2.5-1.2-3.1-2.5
		c-1.3-3.1-1.2-6.4,1.4-9.1C518.7,518.3,519.3,518.2,519.3,517.6z M522,516.2c-0.2-0.3-0.5-0.3-0.8-0.3c-0.3,0-0.7,0.1-0.6,0.5
		c0.1,0.4,0.4,0.4,0.7,0.3C521.7,516.7,522,516.6,522,516.2z"/>
	<path class="st6" d="M293,474.5c-0.2,0.7-0.4,1.5-1.1,2c-1.3,1.1-2.4,2.3-3.5,3.6c-1.1,1.3-1.8,1.1-3.1,0c-1.9-1.6-3.3-3.7-5.4-5
		c-1.3-0.8-1.2-1,0-2.1c1.6-1.5,3-3,4.6-4.5c1.9-1.8,2.2-1.6,4.2,0c1.7,1.4,2.2,3.7,4.1,4.9C293.1,473.8,293.1,474.1,293,474.5z"/>
	<path class="st6" d="M309.5,473.6c0,0.6-0.2,1.1-0.6,1.5c-1.5,1.5-2.9,3-4.4,4.4c-1.3,1.2-1.7,1-2.9-0.3c-1.1-1.2-2.1-2.5-3.5-3.6
		c-2-1.6-2-2.6-0.1-4.4c1.1-1.1,2.1-2.2,3.2-3.2c1.1-1.1,2.3-1.1,3.4-0.1c1.4,1.4,2.8,2.8,4.2,4.2
		C309.3,472.5,309.5,473,309.5,473.6z"/>
	<path class="st7" d="M242.8,438.1c-1.1,0.1-1.7-0.3-1.7-1.5c0-0.6,0-1.1,0-1.7c0-15.3,0-30.7,0-46c0-1.1,0-2.2,0.4-3.3
		c0.3-1,0.9-0.3,1.3-0.3c0.1,0.7,0.1,1.4,0.1,2.1c0,16.2,0,32.3,0,48.5C243,436.6,242.9,437.3,242.8,438.1z"/>
	<path class="st8" d="M530.5,525.9c0-3.8,0-7.7,0-11.5c-0.1-0.7-0.2-1.3-0.2-2c0.4-0.8,0.5-1.5,0.2-2.4c0-0.4,0-0.9,0-1.3
		c0.2-0.5,0.1-1-0.1-1.5c0.2-1-0.5-1.3-1.1-1.6c-0.1-0.3-0.3-0.6-0.7-0.5c-0.1,0-0.2-0.1-0.2-0.2c-0.1-0.2-0.2-0.4-0.3-0.6
		c0.2-1.5,1.4-0.9,2.2-1.1c0.2,0.1,0.4,0.3,0.7,0.4c0.1,0.4,0.4,0.7,0.8,0.8c0.1,0.1,0.2,0.2,0.3,0.3c0,0.2,0,0.3,0.1,0.5
		c0.1,0.2,0.2,0.3,0.4,0.3c0.6,0.7,0.3,1.8,1,2.4c1.1,0.9,0.9,2.1,0.9,3.3c0,3.2,0.1,6.3,0.1,9.5c0,2.4,0,4.7,0,7.1
		c-0.4,0.8,0,1.4,0.5,2c0.5,1.1,0.1,1.7-1.1,1.8c-0.4-0.2-0.7-0.5-1.2-0.4c0,0-0.1-0.1-0.1-0.1c0-1.2-0.9-1.9-1.6-2.7
		C530.8,527.6,531.1,526.7,530.5,525.9z"/>
	<path class="st3" d="M475.4,530.3c-1-0.3-1-1.7-2-2c-0.2-0.2-0.3-0.3-0.5-0.5c-0.1-1.1-0.7-1.7-1.7-2c-0.1-0.1-0.1-0.3-0.2-0.4
		c-0.1-0.9-0.7-1.5-1.6-1.8c-2-1.3-3-3.4-4.6-5c-1.3-1.3-1.8-3.1-3.4-4.1c0-0.1-0.1-0.2-0.1-0.3c1-1.3,1.8-2.6,3.3-3.3
		c0.7,0.1,1.1-0.1,1-0.9c0.1-0.8,0.8-1,1.3-1.3c0.6-0.2,1.2-0.4,1.6-0.9c0.7-0.1,1.2-0.5,1.6-1.1c1.3-0.2,1,0.6,0.8,1.3
		c-1,1.6-2.3,2.8-4.1,3.3c-0.5,0.1-0.8,0.5-1.1,0.8c-3,2.4-2.8,2.2-0.6,5.1c2.9,3.7,6.6,6.6,9.2,10.6
		C474.8,528.6,475.7,529.2,475.4,530.3z"/>
	<path class="st4" d="M424.4,501.7c0.5,0.7,0.6,1.4-0.1,2.1c-1.4,1.3-2.7,2.7-4.1,4.1c-0.1-0.4,0-0.8,0.2-1.2
		c0.2-0.4,0.3-0.8-0.1-1.1c-0.5-0.3-1,0-1.3,0.3c-0.5,0.6-0.8,1.4-1.3,2c-1.4,1.7-2.3,3.4-1.9,5.7c0.1,0.5,0,1-0.1,1.4
		c-0.8,5.1,0.1,9.6,4,13.3c0.6,0.5,1.3,1,1.4,1.9c-0.3,0-0.6,0-0.9,0c0,0,0,0,0,0c-1.7-2-3.7-3.7-4.7-6.2c0-0.1-0.3-0.2-0.4-0.2
		c-0.1-0.2-0.1-0.4-0.2-0.6c-0.3-1.3,0.3-2.6-0.4-3.9c-0.1-0.5-0.1-0.9-0.2-1.4c0-1,0.1-1.9,0.1-2.9c0-1,0-1.9,0-2.9
		c0.3-1,0.6-1.9,1-2.9c0.1-0.1,0.1-0.1,0.1-0.2c0.7-0.5,1.3-1.1,1.5-2c0,0,0-0.1,0-0.1c0.9-0.5,0.8-1.7,1.5-2.4
		c0.1,0.1,0.2,0.1,0.2,0c1.3-0.3,2.2-1,3-2c0.1-0.1,0.3-0.3,0.4-0.4c0.5-0.1,1-0.1,1.4-0.4C423.8,501.6,424.1,501.6,424.4,501.7z"/>
	<path class="st7" d="M234.5,447.3c0.7-1.4,0.3-2.9,0.4-4.4c0.2-0.9-0.2-1.9,0.4-2.7c0.8,0.3,0.6,0.8,0.7,1.2
		c0.3,1.7,0.3,1.8,2.1,1.9c0.4,0,0.8,0,1.2,0c1.3,0.1,2-0.5,1.9-1.8c-0.1-1.3,0.6-1.7,1.7-1.5c0.2,0.8,0.2,1.6,0,2.4
		c-0.6,2.1-0.4,4.3-0.1,6.5c0,0.3,0,0.5,0,0.8c-1.5-0.3-2.9-0.6-3.1-2.5c-0.1-0.7-0.4-1.3-1.2-1.3c-0.9,0-1.2,0.7-1.2,1.5
		c0,0.6,0.2,1.4-0.6,1.7c-0.6,0.2-1.3,0.2-1.8-0.2C234.4,448.4,234.4,447.8,234.5,447.3z"/>
	<path class="st3" d="M423.5,515.3c0.6-0.4,1.2-0.3,1.9-0.2c0.9,0.1,1.8,0.3,2.6,0.2c2.1-0.2,4.3-0.3,6.4,0c0.6,0.1,1.3,0,1.9-0.1
		c0.9-0.2,1.5-0.9,1-1.8c-1-2-0.7-4.2-1.2-6.3c1,0.2,1.1,1.1,1.2,1.9c0.2,1.9,1.3,3.6,1.2,5.6c0,0.8,0.6,1.5,1.6,1.3
		c0.9-0.2,1.3-0.8,0.9-1.8c-0.1-0.4-0.3-0.7,0-1.1c1,0.7,1.5,1.7,1,2.9c-0.5,1.2-1.6,1-2.7,1.1c-1,0.1-2.1-0.3-3,0.3
		c-3.6,0-7.1,0-10.7,0c-0.8,0-1.6,0.3-2.3-0.4c0.2-0.5,0.8-0.3,1.1-0.8C424.2,515.8,423.7,515.8,423.5,515.3z"/>
	<path class="st9" d="M420.2,530.1c0.3,0,0.6,0,0.9,0c0.6,0.3,1.2,0.6,1.8,0.9c0.1,0.8,0.7,1,1.3,1.2c3,0.9,6,0.2,8.9-0.3
		c1.3-0.2,2.6-1,3.8-2c-1-0.7-1.7-0.5-2.3,0.2c-0.6,0.6-1.2,1.1-2,0.4c1.1-1.2,2.3-2.4,4.2-2c0.8,0.2,1.3-0.5,1.8-0.9
		c0.8-0.5,1.3-0.3,1.6,0.6c0.4,1.4-0.3,1.9-1.6,2.8c-1.9,1.4-4.5,0.9-6,2.9c-0.2,0.2-0.6,0.3-0.9,0.3c-2.1,0-4.4,0.4-6.4-0.1
		c-1.5-0.4-3.1-1.1-4.3-2.1C420.5,531.4,420.1,530.9,420.2,530.1z"/>
	<path class="st7" d="M242.7,457.8c-2.9,0-5.9-0.3-8.8,0.4c-1.1,0.3-2.4,0.2-3.5-0.1c-1.3-0.4-1.6-1.3-0.8-2.4
		c0.7-0.9,1.4-1.9,2.9-1.8c0.8,0,1.5,0.2,2,0.9c1.3,1.7,2.6,2,4.5,1c1.3-0.6,2.5-0.9,3.8-0.7c0,0,0,0,0,0c-0.4,0.8-0.3,1.6,0,2.4
		C242.8,457.7,242.8,457.8,242.7,457.8z"/>
	<path class="st3" d="M528,504.3c0.1,0.2,0.2,0.4,0.3,0.6c-0.2,0-0.6,0.2-0.7,0c-2.5-2.3-5.5-1-8.2-1.2c-0.5,0-0.9,0.4-1.2,0.7
		c-0.6,0.6-1.3,0.6-2,0.4c-0.5-0.1-1.2-0.3-1.1-1c0-0.6,0.5-0.8,1-0.8c0.8,0,1.4-0.4,1.9-0.9c0.5-0.5,1.1-0.6,1.7-0.7
		c1.2-0.1,2.4-0.2,3.4-1c0.6-0.5,1.5-0.6,2-0.3c1.5,0.8,3.3,1.1,4.6,2.2c-1.5,0.1-2.8-0.2-4.1-0.9c-0.5-0.3-1-0.7-1.5-0.3
		c-1.3,1-3,1-4.5,1.6c1.5,0.2,3,0.2,4.5,0.1C525.6,502.8,526.9,503.3,528,504.3z"/>
	<path class="st8" d="M441.1,513c-0.4,0.4-0.2,0.7,0,1.1c0.4,1,0,1.6-0.9,1.8c-1,0.2-1.6-0.5-1.6-1.3c0.1-2-1.1-3.6-1.2-5.6
		c-0.1-0.8-0.2-1.6-1.2-1.9c-0.1-0.1-0.2-0.2-0.3-0.3c0.1-0.6-0.1-1-0.7-1.1c-0.4-0.4-0.8-0.8-1.3-1.2c0.2-0.7,0.5-1.2,1.3-1.3
		l0.2,0.1l0.2-0.1c0.1,0.5,0.4,0.8,0.9,0.9c0.7,1.5,2.4,2.3,3.2,3.9c0.1,1.1,0.7,3.1,1.4,4.2C441.1,512.4,441.1,512.7,441.1,513z"/>
	<path class="st3" d="M432.6,530.3c0.8,0.8,1.4,0.2,2-0.4c0.6-0.6,1.3-0.9,2.3-0.2c-1.2,1.1-2.5,1.8-3.8,2c-2.9,0.6-5.9,1.3-8.9,0.3
		c-0.6-0.2-1.2-0.4-1.3-1.2c0.9-0.2,1.6,0.5,2.5,0.6c1,0.2,1.9,0.5,2.9-0.3c-0.6-0.8-1.4-0.9-2.2-1c-1.1-0.2-1.9-0.7-2.1-1.9
		c0.3,0,0.6,0,0.9,0c0,0,0,0,0,0c1.4,1.3,3.1,1.5,4.9,1.7C430.7,530.2,431.7,530.2,432.6,530.3z"/>
	<path class="st9" d="M441.1,513c0-0.3-0.1-0.5-0.1-0.8c0.5-1.7,0-3.1-1.4-4.2c-0.7-1.5-2.4-2.3-3.2-3.9c0.1-0.7,0.5-0.8,1-0.4
		c1,1,2,2,3,3.1c1.3,1.5,2.2,2.9,1.8,4.9c-0.1,0.6,0.3,1,0.5,1.6c1.3,3.1-0.1,4.6-2.6,4.5c-1.2-0.1-2.6,0.5-3.6-0.5
		c0.9-0.6,2-0.3,3-0.3c1-0.1,2.2,0.1,2.7-1.1C442.6,514.6,442.2,513.7,441.1,513z"/>
	<path class="st3" d="M532.6,531.1c0.5-0.1,0.8,0.2,1.2,0.4c1.1,0.6,2.6,0.6,2.7-0.2c0.2-0.9-0.6-1.3-1.4-1.6c-0.1,0-0.2,0-0.2,0
		c-0.5-0.6-0.8-1.2-0.5-2c1.2,1,2.2,2.2,3.9,2.5c1.1,0.2,1.3,1.5,0.5,2.2c-1.7,1.5-4.9,1.1-6.2-0.9
		C532.6,531.5,532.6,531.3,532.6,531.1z"/>
	<path class="st3" d="M534.5,520.7c0-3.2-0.1-6.3-0.1-9.5c0-1.2,0.1-2.4-0.9-3.3c-0.7-0.6-0.4-1.7-1-2.4c-0.1-0.1-0.3-0.2-0.4-0.3
		c0-0.2,0-0.3-0.1-0.5c2,0.6,3,2.2,3.1,4c0.2,3.6,0.1,7.1,0.1,10.7C535.1,520,535,520.5,534.5,520.7z"/>
	<path class="st7" d="M242.8,383.8c-0.8,0.3-1.5,0.3-1.6-0.7c-0.3-2.8-0.4-5.5,0.4-8.2c0.2-0.7,0.8-0.1,1.2-0.1
		C243.1,377.8,243.1,380.8,242.8,383.8z"/>
	<path class="st0" d="M471,508c0.1-0.7,0.4-1.5-0.8-1.3c1-1.8,2.6-3.1,4-4.6c0.5-0.6,1.2-1,1.8-0.3c0.6,0.7,0.1,1.3-0.4,1.8
		c-0.8,0.8-1.5,1.9-2.5,2.5C472.1,506.7,472.1,507.9,471,508z"/>
	<path class="st4" d="M423.5,515.3c0.2,0.5,0.7,0.5,1.2,0.7c-0.3,0.5-1,0.3-1.1,0.8c-0.5,0-1,0-1.4,0c-0.7-0.6-1.4-0.7-2,0.2
		c0,0.1,0,0.2,0.1,0.3c-0.3,0-0.5,0.2-0.5,0.5c-0.1,0.3-0.1,0.7,0,1c-0.2,0.5,0,1.1-0.7,1.3c-0.5-2.5,0.4-4.9-0.2-7.4
		c-0.2-0.9,0-1.9,0-2.8c0-0.6,0.1-1.1,0.8-1.2c0,1.6,0,3.1,0,4.7c0,0.7,0,1.4,0.6,2c0.3,0.6,0.7,0.7,1.1,0
		C421.9,515,422.7,515,423.5,515.3z"/>
	<path class="st4" d="M528,504.3c-1.1-1.1-2.4-1.5-3.9-1.4c-1.5,0.1-3,0-4.5-0.1c1.5-0.6,3.1-0.6,4.5-1.6c0.5-0.4,1,0,1.5,0.3
		c1.3,0.7,2.7,1,4.1,0.9c0.3,0.2,0.6,0.5,0.5,0.9C529.4,503.4,528.2,502.8,528,504.3z"/>
	<path class="st4" d="M219.1,451.4c0-0.6,0-1.3,0-1.9c1.1-0.8,2.3-0.8,3.4,0c0.1,0.2,0.3,0.4,0.4,0.6
		C221,452.2,221,452.2,219.1,451.4z"/>
	<path class="st9" d="M415.1,523.7c0.1,0.1,0.4,0.1,0.4,0.2c1,2.5,3,4.3,4.7,6.2c-0.4,0-0.9,0.1-1.1,0
		C417,528.5,414.7,526.9,415.1,523.7z"/>
	<path class="st9" d="M418.9,520.1c0.7-0.2,0.6-0.8,0.7-1.3c0.7,0,1.4-0.2,2.1,0.2c0.1,0.3,0.1,0.5-0.2,0.6
		c-1.6,0.8-1.6,0.8-0.8,2.3c0.3,0.6,0.6,1.1-0.1,1.6c-0.2,0-0.5-0.1-0.7-0.1C419.1,522.5,418.9,521.3,418.9,520.1z"/>
	<path class="st0" d="M429.7,500.5c0.3,0.7,1,1.4-0.3,1.9c-1.3,0.4-2.7,0-3-0.8c-0.1-0.4,0-0.8,0.4-1c0.4-0.1,0.9-0.2,1.4-0.2
		C428.8,500.4,429.3,500.4,429.7,500.5z"/>
	<path class="st3" d="M435.1,503.2c-0.8,0.1-1.1,0.6-1.3,1.3c-1.8-1.1-1.8-1.1-1.4-2.7c0.5-0.1,1-0.1,1.6-0.2
		C434.4,502.1,435.1,502.4,435.1,503.2z"/>
	<path class="st4" d="M242.8,448.9c-0.3-2.2-0.5-4.3,0.1-6.5C243.5,444.6,243.5,446.8,242.8,448.9z"/>
	<path class="st3" d="M419.9,523.4c0.2,0,0.5,0.1,0.7,0.1c0.1,0.9,0.7,1.5,1.5,1.9c-0.1,1.2,1.3,1.6,1.5,2.7
		C421.9,527.7,420.2,525.6,419.9,523.4z"/>
	<path class="st9" d="M429.8,530.1c-1.8-0.2-3.5-0.4-4.9-1.7c0.8,0,1.5,0,2.3-0.1C428.5,528.3,429.4,528.8,429.8,530.1z"/>
	<path class="st1" d="M222.9,450.1c-0.1-0.2-0.3-0.4-0.4-0.6c2-0.4,4.1-0.4,6.1,0c-0.1,0.2-0.3,0.4-0.4,0.6
		C226.4,450.1,224.6,450.1,222.9,450.1z"/>
	<path class="st3" d="M528.5,505.1c0.4,0,0.5,0.2,0.7,0.5c-0.1,0.9,0.3,1.4,1.1,1.6c0.2,0.5,0.4,0.9,0.1,1.5
		C529.2,507.9,528,507,528.5,505.1z"/>
	<path class="st9" d="M414.5,514.9c0,1-0.1,1.9-0.1,2.9c-0.9-0.1-1.7-0.6-1.7-1.4C412.6,515.4,413.5,515,414.5,514.9z"/>
	<path class="st9" d="M423.6,528.2c-0.2-1.1-1.6-1.5-1.5-2.7c1.5,0.4,2.6,1.3,2.8,2.9c-0.3,0-0.6,0-0.9,0
		C423.8,528.3,423.7,528.2,423.6,528.2z"/>
	<path class="st4" d="M239.9,459.3c0.7-0.2,1.4-0.3,2.1-0.5c0.5,0.1,0.7,0.5,0.3,0.7C241.5,459.8,240.6,460.2,239.9,459.3z"/>
	<path class="st9" d="M414.5,519.2c0.7,1.2,0.1,2.6,0.4,3.9C413.7,522.1,413.5,521,414.5,519.2z"/>
	<path class="st9" d="M421.8,502.5c-0.8,0.9-1.7,1.7-3,2C418.9,502.6,420.3,502.5,421.8,502.5z"/>
	<path class="st9" d="M415.5,509.2c-0.3,1-0.6,1.9-1,2.9C413.6,510.5,413.8,509.9,415.5,509.2z"/>
	<path class="st7" d="M241.6,369.5c0.4,0,0.8,0,1.3,0c0.1,0.6,0.2,1.3,0,1.9C241.2,371.5,241.6,370.3,241.6,369.5z"/>
	<path class="st9" d="M418.5,504.5c-0.6,0.7-0.5,1.9-1.5,2.4C416.8,505.1,417,504.7,418.5,504.5z"/>
	<path class="st9" d="M417,507c-0.2,0.9-0.7,1.5-1.5,2C415.4,507.1,415.4,507,417,507z"/>
	<path class="st0" d="M468.6,507.8c-0.4,0.5-1,0.7-1.6,0.9C467.2,507.3,467.4,507.2,468.6,507.8z"/>
	<path class="st9" d="M435.1,503.2c0-0.8-0.7-1.1-1.1-1.6c0.5-0.7,0.9-0.5,1.3,0.1c0.3,0.5,0.2,1.1,0.3,1.6c0,0-0.2,0.1-0.2,0.1
		L435.1,503.2z"/>
	<path class="st4" d="M242.8,457.6c-0.3-0.8-0.4-1.6,0-2.4C243.5,456,243.5,456.8,242.8,457.6z"/>
	<path class="st3" d="M420.1,517c0.6-0.9,1.2-0.9,2-0.2C421.5,517.4,420.8,517.3,420.1,517z"/>
	<path class="st9" d="M423.6,501.6c-0.4,0.4-0.9,0.4-1.4,0.4C422.4,500.8,422.6,500.8,423.6,501.6z"/>
	<path class="st3" d="M531.7,504.5c-0.4-0.1-0.7-0.4-0.8-0.8C531.6,503.5,531.8,503.8,531.7,504.5z"/>
	<path class="st0" d="M465.7,510c0.1,0.7-0.3,1-1,0.9C464.9,510.5,465.2,510.2,465.7,510z"/>
	<path class="st9" d="M419.6,517.8c0-0.3,0.2-0.5,0.5-0.5C420.1,517.5,419.9,517.7,419.6,517.8z"/>
	<path class="st2" d="M449.4,449.7c5.9,0,11.8-0.1,17.8-0.1c1.4,0,2.6,0.5,4,0.5c3.3,0,6.5-0.6,9.8-0.5c1.9,0.1,2.4-0.8,2.6-2.7
		c0.1-1.8-0.7-3.4-0.6-5.2c0-0.9-0.8-1.2-1.5-1.1c-1.6,0.1-3.2-0.2-4.7-0.8c-0.4-0.1-0.8-0.2-1.2-0.1c-8.4,0.8-16.8,0.2-25.1,0.3
		c0.9-1.5,2.5-2,4-2.7c1-0.4,0.9-1,0.4-1.6c-0.7-0.8-1.7-1.1-2.7-1.4c-0.9-0.3-2.5-0.1-2.4-1.4c0.1-1.1,1.4-1.2,2.5-1.4
		c1.8-0.3,1.9-0.4,2-2.5c0.7-0.6,1.5-0.4,2.3-0.4c7.5,0,15,0,22.5,0c1.6,0,3.4,0.1,4.7,0.7c2,0.9,4.2,2,4.8,4.6
		c0.3,1.5,0.5,3.1,0.8,4.7c0,0.3-0.1,0.7,0,0.9c1.7,2.3-0.1,4.2-0.7,6.3c-0.2,0.7-1.1,1.4-0.5,2.2c0.6,0.8,1.3,1.7,2.4,1.8
		c3.4,0.3,6.8,0.7,10.2,0.2c3.4-0.5,6.8-0.5,10.3,0.1c0.9,0.1,1.7,0.2,2.6,0.2c3.8,0,7.7,0,11.5,0c2.5,0,3.1-0.7,3.6-3.1
		c0.3-1.6,0.4-3.1-0.7-4.5c-0.4-0.4-0.5-1.3-0.1-1.6c1.7-1.3,1.1-3.4,1.7-5c0.2-0.4,0.2-1,0.8-1.1c1.3-0.1,1.7-1,1.7-2.1
		c0.1-1.7,1.5-2.6,2.7-3.1c3.2-1.5,6.5-3.1,10.2-2.9c0.6,0,1.1,0,1.6,0.3c1.7,1.1,3.8,1.3,5.6,1.9c2.1,0.7,3.1,2.1,3.4,4.1
		c0.1,1.1,0.6,1.7,1.6,1.8c1.2,0.1,1.6,0.9,1.8,1.9c0.6,3.6,0.6,7.1,0.5,10.7c0,0.4,0,1-0.2,1.1c-2.1,1.1-2.1,3.4-3.3,5.1
		c-1.5,2-4.7,4-7.3,4.3c-2.1,0.2-4.2,1-6.4,1c-1.4,0-2.6-0.7-4-0.5c-3,0.4-6,0.3-8.9,0.4c-26.5,0.1-52.9,0.1-79.4,0.1
		c-1.3,0-2.5-0.1-3.8-0.4c-0.1-0.8,0.1-1.4,0.9-1.7c0.9-0.3,1.8-0.7,2.7-0.7c1.8,0,3.6-0.1,5.4-0.4c1.7-0.3,3.8-0.8,4.7,1.8
		c0.3,0.9,1.9,0.5,1.9-0.5c0-1,0.9-1.7,0.8-2.8c-1.1,0-2.3,0-2.9-1.2c-0.8-1.5-2.1-1.8-3.6-1.8c-1.6,0-3.2,0-4.8,0
		C450.3,451.1,449.6,450.8,449.4,449.7z M537.5,442.6c-0.6,2.2,0.4,3.6,1.9,5c1.4,1.3,2.9,1.5,4.6,1.5c4.4,0,6.1-1.3,6.9-5.5
		c0.9-4.4-1.9-7.9-6.5-7.9c-0.7,0-1.4,0-2.2,0c-0.7,0-1.5,0.2-2,0.7C538.6,438.2,536.5,439.7,537.5,442.6z"/>
	<path class="st10" d="M299.7,458.7c-1.4,0-2.9,0-4.3,0c0-0.3,0-0.7-0.4-0.7c-0.5-0.1-0.5,0.4-0.6,0.7c-1.1,0-2.2,0-3.4,0
		c-1-1.4-2.3-1.4-3.3,0c-6,0-12,0-18,0c-0.6,0-1.1-0.1-1.7-0.2c-1.8-0.4-2-0.7-2-2.6c0-29.2,0-58.5,0-87.7c0-1.2,0-2.3,1.5-2.6
		c0.5,2.1,0.5,2.1,2.5,1.9c0.5,0,0.9,0,1.4,0.2c1.1,0.4,1.4-0.2,1.4-1.1c0-0.3,0-0.6,0-0.9c0.9-0.2,1.4,0.1,1.4,1.1
		c0,1.2,0,2.4,0,3.6c0,25.2,0,50.3,0,75.5c0,0.3,0,0.6,0,1c0,2.7,0.2,2.9,2.8,2.9c5.7,0,11.5,0,17.2,0c1.4,0,2.9,0,4.3,0
		c1.5,0.1,2.8-0.3,3.8-1.6c0.6,0.3,1.1,0.3,1.7,0c0.8,1.5,2.2,1.6,3.7,1.6c6,0,12,0,18,0c0.9,0,1.7,0.1,2.6,0.1
		c0.1,1.3-0.8,1.2-1.6,1.2c-2.9,0-5.8,0.1-8.6,0c-2.2-0.1-3.6,1.5-5.3,2.3c-0.4,0.2-0.7,0.9-0.6,1.5c0.2,0.7,0.9,0.6,1.4,0.6
		c1.9,0,3.8,0,5.8,0c0.7,0,1.4,0,2.1,0.4c0.4,0.2,0.7,0.5,0.6,0.9c0,0.4-0.3,0.8-0.7,0.9c-0.5,0.1-1.1,0.1-1.7,0.2
		c-2,0.1-4-0.4-5.9-0.2c-2.9,0.2-5.7,0.3-8.6,0c-1.7-0.1-3.5,0.2-5.2,0.4C299.8,458,299.7,458.4,299.7,458.7z"/>
	<path class="st11" d="M417.7,439.9c-2.4,0-4.8,0.1-7.2,0.1c-12.8,0-25.6,0-38.4,0c-1.2,0-2.4,0-3.6,0c-1.6-0.1-1.7-0.5-1-1.9
		c0.9-1.7,1.7-3.4,2.2-5.2c0.3-1.1,0.6-2.2,1.1-3.1c1.6-2.9,2.5-6.2,3.8-9.2c1.9-4.4,3.2-8.9,5-13.3c1.1-2.8,2.4-5.7,3.7-8.5
		c0.7-1.6,1.1-3.4,1.8-5.1c0.8-1.8,1.5-3.6,2.4-5.3c0.3-0.7,0.8-1.3,1.7-1c0.9,0.4,1.3,0.9,1,2.1c-0.4,2.1-1.8,3.8-2.4,5.9
		c-0.1,0.4-0.6,0.7-0.6,1c0,2.8-1.8,4.7-2.9,7.1c-0.3,0.6-0.4,1.2-0.5,1.8c-0.1,0.7-0.1,1.4-0.9,1.9c-0.2,0.2-0.6,0.5-0.5,0.7
		c0.2,2-1.4,3.4-1.6,5.2c-0.2,1.4-1.2,2.4-1.6,3.7c-0.9,2.7-2.1,5.4-3.2,8c-0.9,2.3,0.4,4.1,2.8,3.6c1.6-0.3,3.2-0.3,4.8-0.3
		c5.4,0,10.7,0,16.1,0c4.9,0,9.9,0.4,14.8,0.8c2.9,0.2,5.8,0.1,8.6,0.1c-0.2,1.4-1.3,1.5-2.4,1.5c-1.2,0-2,0.2-2.1,1.6
		c0,0.3-0.2,0.6-0.4,0.9c-0.6,1-0.4,1.7,0.4,2.5c1.3,1.4,1.2,1.6-0.7,2.2c-0.3,0.1-0.6,0.1-0.8,0.5
		C417.2,438.7,418,439.1,417.7,439.9z"/>
	<path class="st11" d="M407.2,458.3c-14.8,0-29.6,0-44.4,0.1c-1.2,0-2.3-0.4-3.5-0.5c-0.8-1.9-2.6-1.9-4.2-2c-2.9,0-5.8-0.8-8.8-0.6
		c-0.7,0.1-1.4-0.3-2.1-0.5c-0.4-0.1-0.8-0.3-0.7-0.8c0-0.4,0.2-0.6,0.5-0.7c0.4-0.2,0.9-0.3,1.3-0.5c1.9-0.9,4.1-0.1,6.1-0.8
		c3.2-1.2,6.6-1.2,10-1.1c0.4,0,0.8,0,1.2,0c0.6,0,0.8-0.5,0.9-1c16,0,32,0,48,0c-0.1,0.4-0.2,0.9-0.6,0.9c-2.4-0.3-3.2,2.3-5.2,2.9
		c-0.3,0.1-0.5,0.6-0.3,1c0.1,0.3,0.4,0.5,0.8,0.5c1,0,2.1,0,3.1,0.1c0.7,0.1,1.6,0.2,1.6,1.1c0,1.1-1,0.7-1.6,0.8
		C408.5,457.4,407.4,456.9,407.2,458.3z"/>
	<path class="st12" d="M407.2,458.3c0.2-1.4,1.2-0.9,2-1c0.6-0.1,1.6,0.3,1.6-0.8c0-0.8-0.9-1-1.6-1.1c-1-0.1-2.1,0-3.1-0.1
		c-0.3,0-0.6-0.1-0.8-0.5c-0.2-0.4,0-0.9,0.3-1c1.9-0.6,2.8-3.1,5.2-2.9c0.4,0,0.6-0.5,0.6-0.9c1,0,1.9,0,2.9,0
		c5.3,0.2,10.5-0.3,15.7-0.4c3.6,0,7.3,0.6,11,0.4c2.8-0.2,5.5-0.7,8.3-0.4c0.2,1.1,0.9,1.4,1.9,1.4c1.6,0,3.2,0,4.8,0
		c1.5,0,2.8,0.3,3.6,1.8c0.6,1.1,1.8,1.2,2.9,1.2c0.1,1.2-0.8,1.8-0.8,2.8c0,1-1.6,1.3-1.9,0.5c-0.9-2.6-3-2.1-4.7-1.8
		c-1.8,0.3-3.6,0.4-5.4,0.4c-1,0-1.8,0.4-2.7,0.7c-0.8,0.3-1,0.9-0.9,1.7c-0.7,0.7-1.7,0.5-2.5,0.4
		C431.5,458.1,419.3,458.4,407.2,458.3z"/>
	<path class="st12" d="M417.7,439.9c0.3-0.8-0.6-1.2-0.7-1.9c0.2-0.4,0.5-0.4,0.8-0.5c2-0.6,2.1-0.8,0.7-2.2c-0.8-0.8-1-1.6-0.4-2.5
		c0.2-0.3,0.4-0.6,0.4-0.9c0.1-1.4,0.9-1.6,2.1-1.6c1,0,2.1-0.1,2.4-1.5c4.9,0,9.9,0,14.8,0c1.9,0,3.8,0.1,5.7-0.4
		c1-0.3,2.1-0.2,3.1,0c2.5,0.6,5.1,0.3,7.6,0.4c-0.1,2-0.2,2.2-2,2.5c-1,0.2-2.4,0.3-2.5,1.4c-0.1,1.4,1.5,1.2,2.4,1.4
		c1,0.3,2,0.5,2.7,1.4c0.6,0.7,0.6,1.2-0.4,1.6c-1.5,0.7-3.1,1.2-4,2.7C439.5,440,428.6,440.1,417.7,439.9z"/>
	<path class="st6" d="M363.5,450c-0.1,0.5-0.3,0.9-0.9,1c-0.4,0-0.8,0.1-1.2,0c-3.4-0.1-6.8-0.1-10,1.1c-2,0.7-4.1-0.1-6.1,0.8
		c-0.4,0.2-0.9,0.3-1.3,0.5c-0.3,0.1-0.5,0.3-0.5,0.7c0,0.5,0.3,0.7,0.7,0.8c0.7,0.2,1.4,0.5,2.1,0.5c3-0.2,5.8,0.5,8.8,0.6
		c1.6,0,3.4,0,4.2,2c-4.3,0.7-8.6,0.2-12.8,0.5c-7.8,0.7-15.6,0.2-23.4,0.4c-3.6,0.1-7.1,0.1-10.7,0.3c-4.2,0.2-8.4-0.2-12.6-0.4
		c0.1-0.3,0.1-0.7,0.5-0.8c1.7-0.2,3.5-0.5,5.2-0.4c2.9,0.2,5.7,0.2,8.6,0c1.9-0.2,3.9,0.3,5.9,0.2c0.6,0,1.1,0,1.7-0.2
		c0.4-0.1,0.6-0.5,0.7-0.9c0-0.5-0.3-0.7-0.6-0.9c-0.7-0.4-1.4-0.4-2.1-0.4c-1.9,0-3.8,0-5.8,0c-0.5,0-1.2,0.1-1.4-0.6
		c-0.2-0.6,0.1-1.3,0.6-1.5c1.8-0.7,3.1-2.4,5.3-2.3c2.9,0.2,5.8,0,8.6,0c0.8,0,1.7,0.1,1.6-1.2c3.7-0.3,7.5-0.3,11.2,0
		c0.9,0.1,1.7,0.1,2.6,0.1C349.3,450,356.4,450,363.5,450z"/>
	<path class="st13" d="M304.1,448.1c-0.5,0.3-1.1,0.3-1.7,0c-0.4-0.6-0.4-1.4-0.4-2.1c0-3.8,0-7.7,0-11.5c0-0.5,0-1,0.1-1.4
		c0.1-0.7,0.6-0.9,1.2-0.8c0.5,0,0.9,0.2,1,0.8c0.1,0.4,0.1,0.8,0.1,1.2c0,3.7,0,7.3,0,11C304.4,446.2,304.2,447.2,304.1,448.1z"/>
	<path class="st13" d="M272.8,365.7c0,0.3,0,0.6,0,0.9c0,1-0.3,1.6-1.4,1.1c-0.4-0.2-0.9-0.2-1.4-0.2c-2,0.2-2,0.2-2.5-1.9
		C269.3,365.5,271,365.5,272.8,365.7z"/>
	<path class="st6" d="M287.7,458.7c1.1-1.4,2.3-1.4,3.3,0C289.9,458.8,288.8,458.8,287.7,458.7z"/>
	<path class="st6" d="M294.4,458.7c0-0.4,0-0.8,0.6-0.7c0.3,0.1,0.4,0.4,0.4,0.7C295,458.7,294.7,458.7,294.4,458.7z"/>
	<path class="st7" d="M235.4,374.6c0.6,1.6,0.9,42.8,0.5,61.1c0,0.6,0.1,1.2-0.3,1.7c-0.6-0.1-0.6-0.4-0.6-0.7c0-20.7,0-41.3,0-62
		C235,374.6,235.2,374.6,235.4,374.6z"/>
	<path class="st7" d="M234.8,368.5c0.3-0.5,0.7-0.5,1.1-0.5c-0.3,0.8,0.2,1.8-0.5,2.8C234.5,370.1,235,369.2,234.8,368.5z"/>
	<path class="st7" d="M238.6,368c1.8-0.4,2.4-0.1,3,1.5C240.4,369.3,239.6,368.5,238.6,368z"/>
	<path class="st14" d="M50.5,450c1,0,2.1,0.1,3.1,0.1c51.9,0,103.8,0,155.7,0c0.9,0,1.9-0.2,2.9,0.4c-0.5,0.7-1.2,0.6-1.8,0.6
		c-1,0-2.1,0-3.1,0c-0.6,0-1.1,0.2-1.2,0.9c-3,0-6.1,0-9.1,0c-2.1,0-3,1.8-2,3.6c0.5,0.9,1.4,0.9,2.2,1.1c0.7,0.1,1.5,0,1.6,1
		c-4.8,0.7-9.6,0.7-14.3,0.4c-4.7-0.3-9.4-0.5-14.1-0.4c-38.5,1-76.9,0.1-115.4,0.4c-1.3,0-2.7,0.2-4-0.4c-0.5-0.2-1.1-0.1-1.4,0.5
		c-0.2,0-0.3,0-0.5-0.1c-0.8-0.5-1.9-0.1-2.5-1.1c-0.7-1.3,0-2.5,0.1-3.7c0.1-0.8,0.8-1.3,1.7-1.5C49.4,451.6,50.4,451.2,50.5,450z"
		/>
	<path class="st7" d="M198.9,457.8c-0.1-1-0.9-0.9-1.6-1c-0.8-0.2-1.7-0.2-2.2-1.1c-1.1-1.8-0.1-3.6,2-3.6c3-0.1,6.1,0,9.1,0
		c2.8,0.1,5.5-0.1,8.3,0.3c1.4,0.2,3.3,0.6,4.6-0.9c1.9,0.8,1.9,0.8,3.8-1.3c1.8,0,3.5,0,5.3,0c1.3,0,2.6,0,3.8,0
		c0.7,0.2,1.9-0.4,1.8,0.9c0,1-0.9,1.5-1.9,1.5c-1.2,0-2.4,0.2-3.6-0.2c-1.6-0.5-3.2-0.3-4.8-0.3c-1.7,0-2.2,0.8-1.9,2.5
		c0.1,0.3,0.2,0.6,0.2,0.9c-0.1,0.7,0.4,1.8-0.6,2.1c-0.9,0.3-1.9,0.5-2.7-0.3c-1.7-1.7-3.5-1.2-5.2-0.3c-0.6,0.3-1,0.7-1.7,0.7
		c-3.5-0.1-7,0.8-10.5,0.5C200.4,458.2,199.6,458.2,198.9,457.8z"/>
	<path class="st11" d="M416.8,321.3c0,0.3,0,0.9-0.2,1.3c-1.4,2.1-2.1,4.4-2.9,6.7c-0.1,0.4-0.6,0.7-0.9,1.1
		c-0.2,0.3-0.8,0.8-0.7,0.9c1.1,2.1-1.3,3.4-1.3,5.3c0,1.1-1.2,1.7-1.6,2.8c-1.3,3.9-2.9,7.7-4.4,11.5c-1.1,2.7-2.2,5.5-3,8.2
		c-0.6,1.9-2.1,3.4-2.1,5.5c0,0.7-0.7,0.9-1.5,0.5c-1.7-0.9-2-1.6-1-3.4c1.2-2.1,2-4.2,2.8-6.5c0.3-0.9,0.9-1.7,1.3-2.5
		c1.9-4.4,3.8-8.9,5.5-13.4c0.5-1.2,0.4-2.5,1.8-3.1c0.1-0.1,0.3-0.3,0.2-0.4c-0.5-2.2,1.2-3.6,1.7-5.5c0.4-1.5,1.5-2.9,1.8-4.5
		c0.4-2,1.4-3.7,2.6-5.4c0.3-0.4,0.5-1.1,1.3-0.8C417,320,416.7,320.6,416.8,321.3z"/>
	<path class="st11" d="M418.2,317.7c-0.1,0.5,0.1,1.2-0.6,1.1c-0.8-0.1-0.9-0.8-0.9-1.5c0-0.5,0.1-1.1,0.7-1.1
		C418.4,316.3,418.2,317.1,418.2,317.7z"/>
	<path class="st7" d="M392.3,502.5c1.5,0,3-0.1,4.5,0c2.4,0.3,4.9,3.4,5,6.2c0.1,3.7,0,7.4,0,11c0,2.9,0,5.8,0,8.6
		c0,0.6,0,1.3-0.2,1.9c-0.2,0.6-0.6,0.9-1.3,0.9c-0.7,0-1.2-0.4-1.3-1.2c-0.1-0.6-0.1-1.3,0-1.9c0.6-3,0.4-6,0-9.1
		c-0.1-0.9-0.2-2,0-2.9c0.7-3-0.2-5.9-0.9-8.7c-0.6-2.3-2.9-3.5-5-4.5c-0.2-0.1-0.5-0.1-0.7-0.2
		C392.5,502.8,392.4,502.6,392.3,502.5z"/>
	<path class="st8" d="M383.8,507c-1.8,1.8-1.4,3.8-1.4,5.8c0.1,5.1,0.1,10.2,0.1,15.3c0,0.6,0,1.3,0,1.9c0,0.6-0.2,1.1-0.9,1.2
		c-0.8,0.1-1.5-0.2-1.7-1c-0.2-0.6-0.1-1.3-0.1-1.9c0-5.2,0-10.4,0-15.6c0-0.6,0-1.3,0-1.9c0.1-2.7-0.8-5-3.3-6.4
		c-0.4-0.2-0.9-0.4-0.9-1c0.1-0.7,0.8-0.6,1.3-0.8c1.5-0.4,3.3,0.4,3.7,2.1C381.1,506.4,382.1,506.9,383.8,507z"/>
	<path class="st8" d="M360.9,516.8c0-3.7,0-7.3,0-11c0-0.4,0-0.8,0-1.2c0.1-0.6-0.2-1.5,0.7-1.5c0.8,0,1.4,0.7,1.3,1.4
		c-0.3,2,0.3,4,0.2,6.1c-0.2,4.9-0.5,9.9,0.2,14.8c0.2,1.3,0.2,2.7,0,4c-0.1,0.7-0.3,1.7-1.4,1.7c-1.1-0.1-1-1.1-1-1.8
		c0-2.8,0-5.6,0-8.4C361,519.5,361,518.2,360.9,516.8C361,516.8,361,516.8,360.9,516.8z"/>
	<path class="st8" d="M374.1,502.7c-0.2,0.1-0.4,0.1-0.6,0.2c-0.5,0-0.9,0-1.6,0C372.8,502,373.5,502.6,374.1,502.7z"/>
	<path class="st13" d="M388.8,504.3c-0.2,0-0.5,0-0.5-0.3c0-0.2,0.3-0.4,0.5-0.5c0.2-0.1,0.5,0,0.5,0.3
		C389.3,504.1,389.1,504.2,388.8,504.3z"/>
	<path class="st8" d="M496.6,527.2c-0.3,2.5-1.9,4.4-2.3,6.9c-0.9-0.7-0.7-1.3-0.8-1.8c0-0.6,0.1-1.2-0.3-1.6c-1-1-0.9-2.3-1.4-3.5
		c-1.8-4.1-2.4-8.6-4.4-12.5c-0.4-0.7-0.6-1.5-0.6-2.3c0-0.5,0-1-0.3-1.4c-0.8-1-1.2-2-1.3-3.3c0-0.7-0.5-1.3-0.9-1.9
		c-0.6-0.8-0.4-1.5,0.2-2.2c0.5-0.5,1.3-0.5,1.3,0.1c-0.1,1.9,1.8,3,1.7,4.9c0,0.5,0.3,0.9,0.6,1.3c0.2,0.2,0.6,0.5,0.6,0.8
		c-0.2,2.5,1.5,4.3,2.2,6.4c0.8,2.3,1,4.8,2.3,6.9c0.2,0.3,0.3,0.7,0.4,1.1C494.1,527.4,494.1,527.4,496.6,527.2z"/>
	<path class="st8" d="M498.1,522.5c0.3,1.1,0.4,1.9-0.4,2.9C497.4,524.3,497.2,523.5,498.1,522.5z"/>
	<path class="st8" d="M454.7,507.7c0-6.5,0-12.9,0-19.4c0-0.8,0-1.6-0.1-2.4c-0.2-0.8-0.1-1.3,0.8-1.3c0.8-0.1,1.4,0.2,1.4,1.2
		c0,0.3,0,0.7,0,1c-0.9,3.4-0.2,6.9-0.4,10.4c-0.4,5.9-0.3,11.8-0.1,17.7c0.1,1.8,0.2,3.6,0,5.4c-0.2,2-0.2,4,0.3,5.9
		c0.2,0.7,0.1,1.6,0.1,2.4c0,0.9,0.2,2-1.1,2c-1.2,0-1-1.2-1-2.1C454.7,521.6,454.7,514.6,454.7,507.7z"/>
	<path class="st8" d="M461.5,514.5c1.6,1,2.1,2.9,3.4,4.1c1.6,1.6,2.7,3.7,4.6,5c0.2,0.9,0.5,1.7,1.6,1.8c0,0.2,0.1,0.3,0.2,0.4
		c-0.1,1.2,0.7,1.7,1.7,2c0.2,0.2,0.3,0.3,0.5,0.5c0,0.7,0.6,1.8-0.3,2.2c-0.9,0.4-1.3-0.7-1.8-1.2c-2.6-2.3-4.2-5.4-6.5-8
		c-1.2-1.4-2.6-2.5-3.8-3.8c-0.7-0.8-1.1-1.2-0.1-2C461.2,515.3,461.3,514.9,461.5,514.5z"/>
	<path class="st8" d="M423.6,528.2c0.1,0.1,0.2,0.1,0.4,0.2c0.3,1.1,1.1,1.7,2.1,1.9c0.7,0.1,1.5,0.2,2.2,1c-1,0.7-1.9,0.5-2.9,0.3
		c-0.8-0.1-1.5-0.8-2.5-0.6c-0.6-0.3-1.2-0.6-1.8-0.9c-0.1-0.9-0.9-1.3-1.4-1.9c-3.9-3.7-4.8-8.2-4-13.3c0.1-0.5,0.2-1,0.1-1.4
		c-0.3-2.2,0.6-4,1.9-5.7c0.5-0.6,0.8-1.4,1.3-2c0.3-0.3,0.8-0.6,1.3-0.3c0.4,0.3,0.2,0.7,0.1,1.1c-0.2,0.4-0.3,0.7-0.2,1.2
		c-0.2,0.3-0.5,0.5-0.7,0.8c-0.7,0.1-0.8,0.6-0.8,1.2c0,0.9-0.2,1.9,0,2.8c0.5,2.5-0.4,5,0.2,7.4c0,1.2,0.2,2.4,1,3.4
		C420.2,525.6,421.9,527.7,423.6,528.2z"/>
	<path class="st3" d="M435.1,505.7c0.6,0.1,0.9,0.5,0.7,1.1C435.2,506.7,435,506.3,435.1,505.7z"/>
	<path class="st3" d="M421.2,515.3c-0.4,0.7-0.7,0.6-1.1,0C420.5,515,420.8,515,421.2,515.3z"/>
	<path class="st7" d="M550.8,507.5c0-7.2,0-14.4,0-21.6c0-1.2,0.5-1.7,1.6-1.9c1.5-0.3,2.1,0.2,2.1,1.7c0,3,0,5.9,0,8.9
		c0,11.2,0,22.4,0,33.6c0,0.6,0,1.3-0.1,1.9c-0.1,1-0.7,1.6-1.8,1.6c-0.9,0-1.5-0.5-1.7-1.4c-0.1-0.6-0.1-1.3-0.1-1.9
		C550.8,521.4,550.8,514.4,550.8,507.5C550.8,507.5,550.8,507.5,550.8,507.5z"/>
	<path class="st8" d="M519.3,517.6c0.1,0.6-0.5,0.7-0.8,1.1c-2.5,2.7-2.6,6-1.4,9.1c0.5,1.3,1.8,2,3.1,2.5c0.4,0.1,0.7,0.4,0.6,0.9
		c-0.1,0.5-0.6,0.5-1,0.5c-2.2,0.2-5-1.7-5.8-3.8c-0.5-1.4-0.9-2.7-0.8-4.2c0.2-2.9,2.1-5.4,4.8-6.3
		C518.4,517.3,518.9,517,519.3,517.6z"/>
	<path class="st4" d="M530.3,512.4c0.1,0.7,0.2,1.3,0.2,2c-0.8-0.5-1.5-1.2-2.8-0.9C528.5,512.2,529.5,512.7,530.3,512.4z"/>
	<path class="st4" d="M530.5,525.9c0.6,0.7,0.3,1.6,0.4,2.4C529.9,527.7,529.8,527.4,530.5,525.9z"/>
	<path class="st8" d="M522,516.2c0,0.4-0.3,0.5-0.6,0.5c-0.3,0.1-0.7,0-0.7-0.3c-0.1-0.4,0.3-0.4,0.6-0.5
		C521.5,515.9,521.9,515.9,522,516.2z"/>
	<path class="st4" d="M535,529.7c0.1,0,0.2,0,0.2,0c0.7,0.3,1.5,0.6,1.4,1.6c-0.1,0.8-1.6,0.8-2.7,0.2
		C535.1,531.5,535.4,530.9,535,529.7z"/>
	<path class="st4" d="M530.3,507.3c-0.8-0.2-1.2-0.7-1.1-1.6C529.8,506,530.6,506.3,530.3,507.3z"/>
	<path class="st4" d="M532.1,505.3c0.1,0.1,0.3,0.2,0.4,0.3C532.3,505.6,532.1,505.5,532.1,505.3z"/>
	<path class="st4" d="M472.9,527.9c-1-0.3-1.8-0.8-1.7-2C472.2,526.2,472.9,526.8,472.9,527.9z"/>
	<path class="st4" d="M471,525.4c-1.1-0.1-1.4-0.9-1.6-1.8C470.4,523.9,470.9,524.5,471,525.4z"/>
	<path class="st3" d="M439.6,508c1.4,1.1,1.9,2.5,1.4,4.2C440.4,511.1,439.7,509.2,439.6,508z"/>
</g>
</svg>
