<?xml version="1.0" encoding="utf-8"?>
<!-- Generator: Adobe Illustrator 23.0.3, SVG Export Plug-In . SVG Version: 6.00 Build 0)  -->
<svg version="1.1" id="Layer_1" xmlns="http://www.w3.org/2000/svg" xmlns:xlink="http://www.w3.org/1999/xlink" x="0px" y="0px"
	 viewBox="0 0 595.28 841.89" style="enable-background:new 0 0 595.28 841.89;" xml:space="preserve">
<style type="text/css">
	.st0{fill:#32AE9D;}
	.st1{fill:#138FA1;}
	.st2{fill:#0A79AA;}
	.st3{fill:#1D99A0;}
	.st4{fill:#53AEA9;}
	.st5{fill:#0973AA;}
	.st6{fill:#1F9FA0;}
	.st7{fill:#21A39F;}
	.st8{fill:#1E7792;}
	.st9{fill:#258BA4;}
	.st10{fill:#0A80A5;}
	.st11{fill:#077BA7;}
	.st12{fill:#0F85A4;}
	.st13{fill:#1894A1;}
</style>
<g>
	<path class="st0" d="M307.74,322.22c-1.09-1.38-1.59-2.75-0.01-4.13c0.01-0.62,0.02-1.24,0.04-1.86c-0.63-0.44-0.97-1.01-0.85-1.8
		c-0.86,0.05-1.26-0.35-1.2-1.2c-0.85,0.05-1.25-0.34-1.2-1.2c-0.95,0.05-1.28-0.44-1.15-1.32c-0.01-0.19-0.09-0.33-0.25-0.43
		c-0.16-0.15-0.32-0.3-0.48-0.45c0,0-0.11-0.08-0.11-0.08c-1.23,0.05-1.79-0.55-1.69-1.77c0,0-0.05-0.08-0.05-0.08
		c-0.17-0.19-0.35-0.39-0.52-0.58c-2.66-3.13-2.66-3.13-5.42-0.23c-1.29,1.36-2.45,2.9-3.93,4.02c-0.98,0.74-1.75,1.55-2.35,2.41
		c0.04,0.23,0.07,0.46,0.07,0.71v64.01c0.53-0.57,0.27-1.55,0.19-2.27c-0.62-5.28,2.05-10.18,1.25-15.45c0.3-0.01,0.6-0.02,0.9-0.02
		v12.19c1.54-1.76,2.48-2.76,3.69-1.14c0.66,0.89,1.84,0.57,2.82,0.58c5.05,0.08,5.76,0.77,5.75,5.67c0,0.5-0.01,1-0.01,1.5
		c0.41,0.01,0.82,0.01,1.23,0.02c0.02-9.61,0.03-19.21,0.05-28.82c0.01-3.45,1.67,0.07,2.35-0.55c0.01-0.41,0.02-0.81,0.02-1.22
		c-0.03-7.98-0.24-15.96,0.88-23.9C307.75,323.94,307.74,323.08,307.74,322.22z"/>
	<path class="st0" d="M269.29,354.54c-0.25-1.37-0.79-2.22-2.07-0.77c-3.88,4.4-8.41,8.19-11.99,12.88
		c-0.3,2.51-2.12,4.34-3.69,5.79c-0.59,0.55-1.04,1.1-1.38,1.67v5.16c0.92-0.01,1.65-0.19,1.19-1.96c-0.42-1.61,1.3-2.26,2.31-3.11
		c0.44-0.37,0.96-0.02,1.25,0.42c0.41,0.63,0.46,1.34-0.01,1.95c-0.57,0.75-1.22,1.44-1.68,2.54c2.83-1.4,5.74-0.89,8.59-1.06
		c2.17-0.13,3.87,1.25,5.94,1.55c1.17,0.17,1.18,2.33,1.24,3.66c0.1,2.27-0.06,4.56-0.1,6.84c0.22,13.6,0.27,27.21,0,40.81
		c0.04,1.96,0.08,3.92,0.12,5.88c0,6.45,0,12.9,0,19.35c-0.01,18.95-0.01,37.91-0.02,56.86l0.07-0.04c0.09-0.78,0.27-1.56,0.27-2.35
		c0.03-51.43,0.05-102.86,0.07-154.29C269.39,355.73,269.39,355.12,269.29,354.54z"/>
	<path class="st0" d="M326.67,360.08c-0.16-1.75-0.55-3.51,0.22-5.44c2.19,1.42,3.58,3.38,5.2,5.1c4.3,4.57,8.57,9.17,13,13.6
		c1.53,1.53,1.98,3.01,2.07,5.19c0.38,9.18,0.03,18.36,0.18,27.54c0.01,0.68,0.14,1.41-0.43,1.98c-0.15,0.02-0.31,0.02-0.46,0
		c0-1.19,0-2.39,0-3.58c0-7.77,0-15.53-0.01-23.3c0-1.32,0.26-2.77-1.99-2c-1.1,0.38-1.55-0.4-1.62-1.5
		c-0.06-0.96,0.42-2.12-1.01-3.17c0.37,3.78-1.87,3.78-4.29,3.59c-0.99-0.08-1.99,0.03-2.99-0.02c-1.76-0.08-2.57,0.69-2.52,2.48
		c0.06,1.99-0.09,3.99,0.04,5.97c0.11,1.85-0.6,2.59-2.41,2.34c0-6.06,0-12.12,0-18.18c-0.44,0-0.88-0.01-1.32-0.01
		c0,5.94,0,11.88,0,17.82c-1.28-0.92-1.07-1.93-1.08-2.88c-0.02-7.47,0-14.95-0.04-22.42C327.22,362.15,327.6,360.99,326.67,360.08z
		"/>
	<path class="st1" d="M228.85,439.86c-0.01-0.99,0.01-1.99,0.02-2.98c0,0,0.01-0.07,0.01-0.07c-1.76-0.18-1.13-1.56-1.22-2.53
		c-0.19-2.19,0.31-4.44-0.33-6.6c-0.3-0.01-0.6-0.02-0.9-0.03c0,1.78,0.01,3.56,0,5.34c0,0.63-0.14,1.23-0.87,1.37
		c-0.62,0.12-1.06-0.1-1.43-0.72c-1.43-2.38-4.05-2.63-6.35-0.64c-0.9,0.78-1.75,1.63-2.53,2.52c-1.21,1.39-2.55,1.82-4.19,0.81
		c-0.16,0.1-0.26,0.25-0.29,0.44c0.1,1-0.29,1.8-0.69,2.73c-0.18,0.42-0.31,0.84-0.41,1.26v3.18c0.21,0.83,0.6,1.64,1.16,2.42
		c0.01,0.83,0.02,1.67,0.03,2.5c0.4,0,0.79,0.01,1.19,0.01c0.1-0.71-0.21-1.56,1.22-2.62c0,4.45,0,8.33,0,12.22
		c1.65-0.31,1.15-1.63,1.17-2.63c0.05-2.99,0.02-5.99,0.02-8.98c0.41,0,0.81,0.01,1.22,0.01v23.57c1.46-0.2,1.16-1.33,1.17-2.26
		c0.03-2.44,0.01-4.88,0.02-7.32c0-2.78,0.07-5.56-0.03-8.34c-0.06-1.71,0.4-2.55,2.32-2.48
		C230.23,450.47,228.92,448.54,228.85,439.86z"/>
	<path class="st1" d="M385.7,442.29v-2.65c-0.54-0.3-0.82-0.8-0.88-1.47c0,0-0.04-0.05-0.04-0.05c-0.73-0.05-1.1-0.45-1.1-1.18
		c-0.07-0.13-0.17-0.19-0.32-0.17c-2.66-0.33-1.76,2.23-2.79,3.87c-0.56-1.99-1.03-3.5-1.71-4.94c-0.91-1.94-2.72-2.45-4.25-3.4
		c-0.75-0.46-1.57-0.11-1.75,0.94c-0.14,0.8-0.53,1.29-1.4,1.16c-1.12-0.17-0.97-1.08-1-1.85c-0.1-2.13,0.45-4.34-1.19-6.22
		c-0.55-0.63-1.02-1.34-1.87-1.09c-0.86,0.26-0.53,1.18-0.54,1.82c-0.03,3.28-0.01,6.56,0,9.84c1.76-0.23,2.45,0.45,2.42,2.3
		c-0.09,5.63-0.03,11.25-0.03,16.88c1.95-0.46,1.21-2.08,1.14-3.15c-0.18-2.63,1.02-3.54,3.47-3.46c2.06,0.07,4.12,0.01,6.19,0.01
		c0.06-0.86,0.12-1.73,0.18-2.59c0.34,0,0.69-0.01,1.03-0.01v18.8c1.45,0.21,1.17,1.34,1.19,2.29c0.02,1.77,0.01,3.55,0.01,5.32
		c0,0.89-0.09,1.85,1.18,1.98c0.01-9.59,0.01-19.18,0.02-28.78c0.44,0.01,0.88,0.02,1.32,0.03
		C386.11,445.35,385.01,443.59,385.7,442.29z M381.29,443.87c-0.08-0.83-0.29-1.93,1-2.08c1.28-0.15,1.35,0.83,1.35,1.76
		c0.01,0.98,0.01,1.96,0.01,2.94C382.3,446.13,381.43,445.27,381.29,443.87z"/>
	<path class="st2" d="M188.29,484.94c-4.73,4.86-9.19,10.02-14.27,14.47c-1.27,1.11-2.22,2.27-2.91,3.48
		c0.04,0.24,0.07,0.49,0.07,0.76v9.98c0.21,0.03,0.43,0.05,0.7,0.05c5.79-0.1,11.58-0.1,17.38-0.14c0-8.71,0.01-17.43-0.02-26.14
		C189.24,486.51,189.72,485.32,188.29,484.94z M173.67,513.05c-0.19-0.04-0.47-0.02-0.56-0.14c-1.23-1.74-0.88-7.48,0.52-8.82
		c0.14-0.98-0.38-2.37,1.4-2.32c0.55,0.01,0.92,0.39,0.94,0.94c0.04,1.79-1.36,1.25-2.33,1.39c0,0.59,0.01,1.19,0.01,1.78
		c0.71-0.24,1.43-0.47,2.4-0.8c0,2.01-0.1,3.85,0.03,5.69C176.2,512.63,175.44,513.32,173.67,513.05z M188.11,509.87
		c-0.29,3.96,0.17,3.12-5.75,3.21c-0.6,0-1.19-0.02-1.79,0c-1.85,0.07-3.58,0.28-3.39-2.61c0.16-2.46,0.82-4.02,3.55-3.99
		c1.29,0.02,2.6,0.14,3.87-0.03C187.29,506.12,188.31,507.06,188.11,509.87z"/>
	<path class="st2" d="M229.28,512.97l-0.19,0.06l-0.2-0.01c-3.29,0.02-6.58-0.05-9.86,0.09c-2.95,0.12-2.09-1.98-2.17-3.49
		c-0.08-1.57-0.4-3.37,2.22-3.14c1.29,0.11,2.59,0.07,3.88,0c1.46-0.07,3.26,0.66,3.73-1.8c0.16-0.85,1.37-0.51,2.14-0.58
		c0-3.2,0.01-6.4,0.01-9.6c-0.4,0-0.79,0-1.19,0c-2.9,3.93-7.12,1.94-10.8,2.41c0,2.24,0.01,4.48-0.02,6.72
		c-0.01,0.92,0.29,2.06-1.17,2.26c-0.01,1.69,0.01,3.39-0.03,5.08c-0.02,0.85,0.23,1.96-1.11,2.03c-1.35,0.07-1.35-1-1.26-1.88
		c0.39-3.68-0.31-7.3,0.89-11.11c1.08-3.45,0.24-7.49,0.32-11.28c0.02-0.99-0.51-2.32,1.16-2.62c0.01-0.61,0.02-1.21,0.03-1.82
		c-0.01-4.19-0.02-8.38-0.03-12.57c-1.49,0.2-1.15,1.37-1.16,2.29c-0.03,2.86,0,5.73-0.03,8.59c-0.01,0.94,0.28,2.08-1.19,2.29h0
		c0,4.34,0.02,8.68-0.02,13.02c-0.01,0.98,0.48,2.3-1.18,2.58c0,3.36-0.1,6.72,0.03,10.07c0.07,1.9-0.57,2.75-2.43,2.58v0.45
		c6.59-0.01,13.19,0.35,19.78-0.19C229.36,513.26,229.31,513.12,229.28,512.97z"/>
	<path class="st3" d="M383.35,436.76c-2.66-0.33-1.76,2.23-2.79,3.87c-0.56-1.99-1.03-3.5-1.71-4.94c-0.91-1.94-2.72-2.45-4.25-3.4
		c-0.75-0.46-1.57-0.11-1.75,0.94c-0.14,0.8-0.53,1.29-1.4,1.16c-1.12-0.17-0.97-1.08-1-1.85c-0.1-2.13,0.45-4.34-1.19-6.22
		c-0.55-0.63-1.02-1.34-1.87-1.09c-0.86,0.26-0.53,1.18-0.54,1.82c-0.03,3.28-0.01,6.56,0,9.84c0,1.6-0.01,3.19-0.01,4.79
		c-1.46,0.22-1.18,1.36-1.18,2.3c0,7.23,0.02,14.45,0.04,21.68c0,0-0.16,0.03-0.16,0.03c-0.1-0.88-0.28-1.76-0.29-2.64
		c-0.02-13.85-0.02-27.71-0.02-41.56c0-0.98-0.14-2.01,0.65-3.03C371.93,424.39,377.99,430.24,383.35,436.76z"/>
	<path class="st4" d="M297.48,372.1c-0.98-0.02-2.16,0.31-2.82-0.58c-1.21-1.62-2.14-0.62-3.69,1.14v-12.19
		c-0.3,0.01-0.6,0.02-0.9,0.02c0.8,5.27-1.87,10.18-1.25,15.45c0.09,0.72,0.34,1.7-0.19,2.27v4.71c0.31-0.5,0.21-1.22,0.18-1.86
		c-0.05-1.28,0.7-2.46,1.63-2.48c1.51-0.03,0.75,1.5,0.78,2.31c0.11,2.66,0.04,5.32,0.04,7.98c1.84-0.4,1.07-1.89,1.15-2.94
		c0.46-6.84,2.69-8.53,9.37-7.05c0.48,0.11,0.96,0.26,1.44,0.39c0-0.5,0.01-1,0.01-1.5C303.24,372.87,302.54,372.18,297.48,372.1z"
		/>
	<path class="st2" d="M268.98,513c-0.2,0.02-0.4,0.04-0.6,0.06c-4.37,0.01-8.75-0.1-13.12,0.07c-2.43,0.09-2.79-1.25-2.33-2.96
		c0.58-2.2,1.43-3.9,4.54-3.78c7.37,0.29,7.38,0.08,7.38-7.41c0-0.7,0-1.39,0-2.09c-2.28,0-4.56,0-6.84,0
		c-1.51,0-3.24,0.36-2.76-2.79c-3.27,3.17-2.69,6.44-2.11,9.35c0.41,2.03-0.06,3.13-1.48,4.22c0,1.06-0.1,2.14,0.01,3.19
		c0.15,1.51-0.43,2.13-1.51,2.23v0.45c5.8,0.04,11.59,0.07,17.39,0.11c0.6,0,1.19-0.03,1.49-0.69L268.98,513z"/>
	<path class="st5" d="M306.85,513.49c-4.79,0.25-9.59,0.26-14.38-0.01c-0.02-1.93-0.04-3.87-0.05-5.8c0-4.2,0-8.4,0-12.59
		c0.02-3.39,0.04-6.78,0.06-10.17c0.39,0,0.77,0,1.16-0.01c0.01,4,0.01,7.99,0.02,11.99c0,2.49-0.02,4.97,0,7.46
		c0.01,0.87-0.03,2.31,1.09,2.02c3.51-0.9,8,2.78,10.62-2.22c0.03-0.06,0.19-0.04,0.28-0.06c0.38,0.01,0.77,0.02,1.15,0.03
		C306.82,507.24,306.83,510.36,306.85,513.49z"/>
	<path class="st6" d="M326.67,360.08c0.93,0.9,0.55,2.07,0.55,3.12c0.04,7.47,0.02,14.95,0.04,22.42c0,0.96-0.2,1.96,1.08,2.88
		c0-5.94,0-11.88,0-17.82c0.44,0,0.88,0.01,1.32,0.01c0,6.06,0,12.12,0,18.18c-0.01,3.61-0.01,7.21-0.02,10.82
		c-1.83,0.39-1.15,1.87-1.15,2.92c-0.06,9.55-0.03,19.09-0.07,28.64c0,0.97,0.38,2.1-0.71,3.08c-1.18-2.39,0.4-4.95-1.09-7.03
		c-0.04-15.44-0.1-30.87-0.11-46.31C326.52,374.02,326.62,367.05,326.67,360.08z"/>
	<path class="st4" d="M306.87,348.7c-0.03-7.98-0.24-15.96,0.88-23.9c0.07,1.09,0.22,2.18,0.22,3.27
		c0.01,60.76,0.01,121.51-0.03,182.27c0,1.02,0.55,2.21-0.55,3.06c-0.03-19.48-0.07-38.97-0.1-58.45
		c0.02-6.02,0.03-12.04,0.05-18.05c0.01-6.22,0.02-12.43,0.02-18.65c0-1.57,0-3.14,0-4.71c0-0.43,0-0.86,0-1.29
		c0-6.8,0-13.6-0.01-20.4c0.02-13.64,0.04-27.28,0.06-40.92C307.41,350.15,307.58,349.31,306.87,348.7z"/>
	<path class="st3" d="M228.88,436.82c-1.76-0.18-1.13-1.56-1.22-2.53c-0.19-2.19,0.31-4.44-0.33-6.6c-0.3-0.01-0.6-0.02-0.9-0.03
		c0,1.78,0.01,3.56,0,5.34c0,0.63-0.14,1.23-0.87,1.37c-0.62,0.12-1.06-0.1-1.43-0.72c-1.43-2.38-4.05-2.63-6.35-0.64
		c-0.9,0.78-1.75,1.63-2.53,2.52c-1.21,1.39-2.55,1.82-4.19,0.81c4.4-4.95,9.39-9.31,14.13-13.91c0.78,0.01,1.24-0.31,1.21-1.15
		c0,0,0.03-0.06,0.03-0.06c1.88-1.16,2.6-0.87,2.51,1.56C228.76,427.45,228.88,432.14,228.88,436.82z"/>
	<path class="st4" d="M250.15,371.4c0,0.06,0.02,0.11,0.02,0.17v2.55c0.34-0.57,0.79-1.13,1.38-1.67c1.57-1.45,3.39-3.28,3.69-5.79
		C253.49,368.21,251.62,369.7,250.15,371.4z"/>
	<path class="st3" d="M346.45,408.06c0.15,0.01,0.31,0.01,0.46,0c0.05,3.98,0.15,7.96,0.16,11.94c0.03,20.53,0.03,41.06,0.03,61.59
		c0,1.09-0.11,2.18-0.17,3.27c-0.15,0-0.3,0-0.44-0.01c-0.02-6.39-0.03-12.78-0.05-19.18c0-5.53,0.02-11.07-0.01-16.6
		c-0.01-0.99,0.46-2.3-1.18-2.6c0-12.79-0.01-25.59-0.01-38.38C345.65,408.08,346.05,408.07,346.45,408.06z"/>
	<path class="st1" d="M326.63,427.3c1.49,2.08-0.09,4.64,1.09,7.03c1.09-0.98,0.71-2.11,0.71-3.08c0.04-9.55,0.01-19.09,0.07-28.64
		c0.01-1.04-0.67-2.52,1.15-2.92c0,0,0,0,0,0c0,5.4,0,10.8,0.01,16.19c0,2.4,0,4.8,0,7.2c0,4.6-0.01,9.21-0.01,13.81
		c-1.67,0.29-1.15,1.62-1.16,2.61c-0.05,4.67,0,9.33-0.04,14c-0.01,1,0.45,2.31-1.18,2.61c-0.19-0.01-0.39,0-0.58,0.02
		C326.66,446.52,326.64,436.91,326.63,427.3z"/>
	<path class="st4" d="M385.7,442.29c-0.69,1.29,0.41,3.06-0.73,4.24c-0.02,9.51-0.04,19.01-0.05,28.52c0.18,0.06,0.35,0.12,0.52,0.2
		c0.11,0.08,0.19,0.16,0.26,0.25V442.29z"/>
	<path class="st4" d="M228.88,436.82c0-4.68-0.12-9.37,0.05-14.04c0.09-2.42-0.63-2.71-2.51-1.56c0.78-1.3,1.29-3.64,2.82-3.28
		c1.48,0.36,0.61,2.63,0.62,4.02c0.05,29.34,0.06,58.68,0.03,88.01c0,1.13,0.5,2.39-0.46,3.42c-0.07-0.14-0.12-0.28-0.15-0.43
		c0.02-13.94,0.03-27.88,0.05-41.82c0.03-10.88,0.06-21.76,0.09-32.64c0-0.6,0-1.21-0.54-1.63L228.88,436.82z"/>
	<path class="st4" d="M210.82,446.39c-0.57-0.78-0.95-1.59-1.16-2.43v3.35C209.79,446.88,210.1,446.53,210.82,446.39z"/>
	<path class="st4" d="M209.66,440.78c0.1-0.42,0.23-0.84,0.41-1.26c0.4-0.93,0.79-1.73,0.69-2.73c-0.44,0.23-0.8,0.5-1.11,0.8
		V440.78z"/>
	<path class="st5" d="M365.75,513.36c-0.9-3.07-0.51-6.18-0.22-9.28c1.48-0.1,1.3-1.2,1.31-2.18c0.01-2.47,0.01-4.94,0.01-7.4
		c1.46-0.2,1.19-1.33,1.2-2.28c0.02-1.68-0.02-3.35,0.02-5.03c0.02-0.93-0.31-2.09,1.17-2.28c0.01,3.19,0.02,6.38,0.02,9.57
		c0,3.2-0.01,6.41-0.01,9.61c-1.44,0.19-1.19,1.3-1.19,2.24c-0.02,2.24-0.02,4.48-0.02,6.72
		C367.27,513.15,366.51,513.25,365.75,513.36z"/>
	<path class="st3" d="M291.25,408.09c0-3.05,0-6.11,0-9.9c-1.75,2.01-0.94,3.7-1.2,5.19c-0.18,1.05,0.63,2.52-1.19,2.91
		c0.01,0.5-0.01,0.97-0.22,1.31v38.87c0.07,0,0.14,0,0.21,0c0-5.39,0.01-10.79,0.01-16.18c0-6.25,0.02-12.5-0.01-18.74
		C288.83,409.78,289.21,408.39,291.25,408.09z"/>
	<path class="st7" d="M290.44,378.58c-0.93,0.02-1.68,1.2-1.63,2.48c0.03,0.64,0.13,1.36-0.18,1.86v24.67
		c0.21-0.34,0.23-0.81,0.22-1.31c0-4.79,0.06-9.59-0.04-14.38c-0.04-1.83,0.57-2.86,2.43-3.02l0.02-0.02c0-2.66,0.07-5.32-0.04-7.98
		C291.19,380.08,291.95,378.55,290.44,378.58z"/>
	<path class="st8" d="M307.29,454.95c0.03,19.48,0.07,38.97,0.1,58.45c0,0-0.25,0.15-0.25,0.15s-0.29-0.07-0.29-0.07
		c-0.01-3.12-0.03-6.25-0.04-9.37c0.01-5.34,0.05-10.69,0.03-16.03c0-1,0.44-2.29-1.15-2.64c-0.01-1.39-0.01-2.77-0.02-4.16
		c0-1.99,0.01-3.98,0.01-5.97c0.41-0.23,0.39-0.44-0.01-0.66c0-0.38,0-0.76,0-1.14c0.2-0.21,0.4-0.42,0.6-0.64
		c0-2.59,0.01-5.19,0.01-7.78c1.3-3.33,0.27-6.8,0.59-10.19C307,454.92,307.15,454.93,307.29,454.95z"/>
	<path class="st9" d="M405.24,513.42c-1.1-0.24-0.61-1.11-0.61-1.71c-0.07-8.48-0.12-16.96-0.12-25.45c0-0.85-0.11-1.8,0.75-2.92
		c2.03,2.35,4.5,4.14,6.14,6.77c0,0-0.18,0.21-0.18,0.21c-0.19-0.03-0.37-0.04-0.56-0.04c-0.26-0.46-0.7-0.56-1.19-0.58
		c-0.57-1.78-1.21,0.58-1.8-0.03c-0.4,0-0.81-0.01-1.21-0.01c-1.28,0.13-1.2,1.08-1.2,1.99c0.03,7.14,0.05,14.28,0.08,21.41
		C405.32,513.19,405.28,513.3,405.24,513.42z"/>
	<path class="st2" d="M385.7,512.98c-1.36-0.49-0.81-1.74-0.82-2.66c-0.05-8.48-0.03-16.96-0.04-25.43c-0.4,0-0.8,0-1.2,0.01
		c0,3.19-0.01,6.39-0.01,9.58c0,5.43-0.05,10.87,0.04,16.3c0.03,1.85-0.63,2.56-2.42,2.28c-4,0-8,0-11.99,0.01
		c-0.41,0-0.82-0.01-1.22-0.01c-0.76,0.1-1.53,0.2-2.29,0.31c6.65,0.52,13.3,0.43,19.96,0.06V512.98z"/>
	<path class="st8" d="M366.84,494.5c0,2.47,0,4.94-0.01,7.4c0,0.97,0.17,2.08-1.31,2.18c0-12.79,0.01-25.58,0.01-38.37
		c0,0,0.16-0.03,0.16-0.03c0.38,0.01,0.76,0.03,1.13,0.04c0,3.6,0,7.19,0.01,10.79C366.84,482.5,366.84,488.5,366.84,494.5z"/>
	<path class="st10" d="M424.51,503.04c-2.01-2.86-4.5-5.53-7.65-7.36c0,0-0.07-0.04-0.07-0.04c-0.24-0.15-0.47-0.31-0.71-0.46
		c-0.21-0.16-0.43-0.33-0.64-0.49c0,0-0.07-0.16-0.07-0.16l-0.25-0.01l-0.25,0.01c0.54,1.83-1.45,3.01-1.21,4.77c0.2,0,0.4,0,0.6,0
		c0.4-1.91,1.94-0.94,3-1.19c4.04,2.31,6.53,5.36,7.26,9.25V503.04z"/>
	<path class="st2" d="M424.42,513.07c0.01,0.15,0.02,0.29,0.03,0.44c-6.4,0.17-12.81,0.36-19.21-0.09c0.04-0.12,0.07-0.24,0.1-0.36
		c1.65-0.34,1.09-1.67,1.09-2.64c0.04-6.92,0.03-13.84,0.03-20.76c0.4,0,0.81,0.01,1.21,0.01c0,0.4,0,0.79,0,1.19
		c-0.01,6.8-0.01,13.6-0.02,20.4c-0.17,1.76,0.95,1.84,2.26,1.83C414.75,513.06,419.59,513.08,424.42,513.07z"/>
	<path class="st9" d="M189.27,513.54c0-8.71,0.01-17.43-0.02-26.14c0-0.89,0.48-2.08-0.96-2.46c0.23-0.82,0.68-1.66,1.57-1.52
		c0.9,0.15,0.55,1.15,0.55,1.78c0.02,8.69,0.04,17.39,0,26.08C190.4,512.14,190.94,513.46,189.27,513.54z"/>
	<path class="st8" d="M326.67,456.13c0.19-0.02,0.38-0.03,0.58-0.02c0,6.4,0,12.79,0.01,19.19c0,6.4,0.01,12.8,0.01,19.19
		c-0.02,6.18-0.03,12.35-0.05,18.53c-0.16,0.02-0.31,0.04-0.47,0.05c-0.07-0.39-0.21-0.78-0.21-1.17
		C326.58,493.31,326.63,474.72,326.67,456.13z"/>
	<path class="st11" d="M292.41,507.67c0.02,1.93,0.04,3.87,0.05,5.8c-0.81,0.03-1.62,0.06-2.43,0.1c0-3.16,0.01-6.33,0.01-9.49
		c0.01-1.2,0.01-2.41,0.02-3.61c2.02,0.59,0.82,2.29,1.19,3.45C291.65,505.17,290.26,506.97,292.41,507.67z"/>
	<path class="st9" d="M346.49,484.85c0.15,0.01,0.3,0.01,0.44,0.01c0.06,9.05,0.12,18.1,0.16,27.14c0,0.57,0.08,1.23-0.69,1.45
		c-0.03-0.11-0.05-0.23-0.06-0.35c0.03-9.4,0.05-18.79,0.08-28.19L346.49,484.85z"/>
	<path class="st2" d="M346.34,513.11c0.01,0.12,0.03,0.23,0.06,0.35c-6.25,0.06-12.49,0.12-18.74,0.18c-0.42,0-0.77-0.11-0.91-0.56
		c0.16-0.01,0.32-0.03,0.47-0.05c4.05,0.02,8.09,0.02,12.14,0.07c1.3,0.02,2.44-0.04,2.3-1.8c0.38,0,0.77-0.01,1.15-0.01
		c-0.13,1.87,1.08,1.9,2.42,1.78C345.6,513.07,345.97,513.09,346.34,513.11z"/>
	<path class="st5" d="M288.85,504.08c0,2.29,0.01,4.57-0.02,6.86c-0.01,0.56,0.12,1.21-0.19,1.65v1.07
		c0.46,0.01,0.95-0.11,1.41-0.09c0-3.16,0.01-6.33,0.01-9.49C289.65,504.08,289.25,504.08,288.85,504.08z"/>
	<path class="st4" d="M307.74,322.22c-1.09-1.38-1.59-2.75-0.01-4.13C308.1,319.46,308.08,320.84,307.74,322.22z"/>
	<path class="st9" d="M411.4,490.12c1.41,1.01,2.75,2.1,3.5,3.73c0,0-0.11,0.08-0.11,0.08c-1.35-1.04-2.57-2.21-3.57-3.6
		L411.4,490.12z"/>
	<path class="st4" d="M302.52,309.73c-1.23,0.05-1.79-0.55-1.69-1.77C301.66,308.3,302.2,308.91,302.52,309.73z"/>
	<path class="st4" d="M307.77,316.23c-0.63-0.44-0.97-1.01-0.85-1.8C307.89,314.7,308.09,315.34,307.77,316.23z"/>
	<path class="st4" d="M306.92,314.42c-0.86,0.05-1.26-0.35-1.2-1.21C306.41,313.33,306.81,313.73,306.92,314.42z"/>
	<path class="st4" d="M226.4,421.29c0.04,0.84-0.43,1.16-1.21,1.15C225.26,421.71,225.83,421.5,226.4,421.29z"/>
	<path class="st4" d="M384.78,438.11c-0.73-0.05-1.1-0.45-1.1-1.18C384.38,437.01,384.74,437.41,384.78,438.11z"/>
	<path class="st4" d="M305.73,313.22c-0.86,0.06-1.26-0.34-1.21-1.2C305.26,312.08,305.64,312.5,305.73,313.22z"/>
	<path class="st4" d="M304.52,312.02c-0.95,0.05-1.28-0.44-1.16-1.32C304.01,310.91,304.43,311.32,304.52,312.02z"/>
	<path class="st9" d="M416.08,495.17c-0.21-0.16-0.43-0.33-0.64-0.49C415.63,494.88,416.14,494.65,416.08,495.17z"/>
	<polygon class="st9" points="416.86,495.67 416.79,495.63 416.87,495.55 	"/>
	<path class="st4" d="M300.78,307.89c-0.17-0.19-0.35-0.39-0.52-0.58C300.43,307.5,300.61,307.69,300.78,307.89z"/>
	<path class="st9" d="M415.37,494.52l-0.25-0.01l-0.25,0.01l-0.03-0.05c0-0.18-0.01-0.36-0.04-0.54c0,0,0.11-0.08,0.11-0.08
		C415.06,494.07,415.21,494.29,415.37,494.52z"/>
	<path class="st4" d="M303.11,310.26c-0.16-0.15-0.32-0.3-0.48-0.45C302.79,309.96,302.95,310.11,303.11,310.26z"/>
	<path class="st7" d="M291.26,388.87c1.84-0.4,1.07-1.89,1.15-2.94c0.46-6.84,2.69-8.53,9.37-7.05c0.48,0.11,0.96,0.26,1.44,0.39
		c0.41,0.01,0.82,0.01,1.23,0.02c0,0,0.01,0.01,0.01,0.01c0,6,0,12-0.01,17.99c0,0.4,0,0.8,0,1.2c-1.68-0.28-1.1-1.62-1.19-2.62
		c-0.08-0.89,0.11-1.93-0.97-2.3c-2.71-0.93-5.54-0.71-8.25-0.21c-2.02,0.37-1.3,2.62-1.9,3.99c-0.04,0.09-0.33,0.06-0.89,0.15
		c0-2.91,0-5.76,0-8.62L291.26,388.87z"/>
	<path class="st7" d="M306.87,348.7c0.71,0.61,0.54,1.45,0.54,2.23c-0.01,13.64-0.04,27.28-0.06,40.92c-2.84-2.7-1.29-6.2-1.73-9.34
		c-0.16-1.13,0.8-2.73-1.17-3.22c0,0-0.01-0.01-0.01-0.01c0.02-9.61,0.03-19.21,0.05-28.82c2.31,0.4,0.14,3.16,2,3.93
		c0.63-1.55,0.22-3.04,0.35-4.49C306.85,349.51,306.86,349.11,306.87,348.7z"/>
	<path class="st4" d="M306.85,349.92c-0.13,1.45,0.28,2.94-0.35,4.49c-1.86-0.78,0.31-3.54-2-3.93
		C304.51,347.02,306.17,350.54,306.85,349.92z"/>
	<path class="st7" d="M268.99,383.27c-0.06-1.33-0.08-3.49-1.24-3.66c-2.07-0.3-3.77-1.68-5.94-1.55c-2.85,0.17-5.76-0.34-8.59,1.06
		c0.47-1.09,1.12-1.78,1.68-2.54c0.46-0.61,0.42-1.32,0.01-1.95c-0.29-0.44-0.81-0.8-1.25-0.42c-1.01,0.86-2.73,1.5-2.31,3.11
		c0.46,1.77-0.27,1.95-1.19,1.96v23.58c0.51-0.54,0.25-1.45,0.26-2.17c0.04-5.09,0-10.17,0.05-15.26c0.01-0.91-0.42-1.96,1.18-3.34
		v26.01c0.4,0,0.79,0,1.19,0.01l0,0c-0.29-4.63,0.27-9.17,1.18-13.7c0.35-1.74,1.3-2.18,2.75-1.67c1.57,0.55,3.15,0.38,4.72,0.34
		c1.54-0.04,2.85-0.51,3.43-2.28c0.52-1.58,1.5-2.39,2.92-0.67c0.34,0,0.69,0,1.03,0C268.94,387.82,269.09,385.54,268.99,383.27z"/>
	<path class="st3" d="M267.86,390.11c0.34,0,0.69,0,1.03,0c0.22,13.6,0.27,27.21,0,40.81c-0.54-0.01-1.09-0.01-1.64-0.02
		c0-3.68,0.01-7.36-0.01-11.04c-0.01-0.84,0.24-1.96-1.09-2.06c-1.35-0.1-1.39,0.98-1.27,1.85c0.37,2.84-1.42,3.35-3.59,3.43
		c-1.68,0.06-3.33-0.07-5.01-0.45c-1.98-0.44-3.56,0.16-3.46,2.74c0.03,0.71,0.53,1.82-1.15,2.27c0-2.64,0-5.1,0-7.55
		c1.46-0.2,1.18-1.34,1.18-2.27c0.02-3.24,0.01-6.48,0.01-9.72c0,0,0,0,0,0c4.52-0.91,9.41,1.42,13.77-1.99
		c0.94-0.73,1.2-1.18,1.21-2C267.88,399.44,267.86,394.77,267.86,390.11z"/>
	<path class="st9" d="M268.98,513c-0.2,0.02-0.4,0.04-0.6,0.06c0.02-0.79,0.04-1.59,0.06-2.38c0-11.79-0.01-23.58-0.01-35.37
		c0-4.96,0-9.92,0-14.88c-0.87,3.02-0.18,6.14-1,9.74c-1.94-3.83-1.07-7.38-1.71-11.76c-1.4,2.85-3.25,2.49-5.01,2.49
		c-3.4,0-7.18-0.94-8.78,3.54c-0.02,0.05-0.19,0.04-0.28,0.06c0-2.4,0-4.8,0-7.2c1.38-1.08,4.08-0.86,3.6-3.75
		c-0.46-2.85,0.96-3.78,3.61-3.46c0.88,0.1,1.8-0.09,2.68,0.04c2.6,0.38,3.42-0.59,3.39-3.27c-0.04-3.31-0.78-6.7,0.52-9.96
		c0.91,0.78,0.58,1.85,0.58,2.81c0.03,4.69,0.03,9.38,0.01,14.06c-0.01,1.28-0.03,2.49,1.8,2.33c0.23-0.02,0.45-0.03,0.68-0.05
		c0.16,0.03,0.32,0.07,0.48,0.11C268.99,475.1,268.98,494.05,268.98,513z"/>
	<path class="st1" d="M268.52,456.03c-0.23,0.02-0.45,0.03-0.68,0.05c-0.06-8.4,0.32-16.81-0.59-25.19
		c0.55,0.01,1.09,0.01,1.64,0.02c0.04,1.96,0.08,3.92,0.12,5.88c-0.75,0.84-0.51,1.88-0.51,2.85
		C268.48,445.11,268.51,450.57,268.52,456.03z"/>
	<path class="st4" d="M268.52,456.03c-0.01-5.46-0.04-10.93-0.03-16.39c0-0.97-0.24-2.01,0.51-2.85c0,6.45,0,12.9,0,19.35
		C268.84,456.1,268.68,456.06,268.52,456.03z"/>
	<path class="st7" d="M346.45,408.06c-0.4,0.01-0.8,0.02-1.21,0.04c0,0,0,0,0,0c0-2.6,0-5.2,0-7.8c0-3.16,0-6.33-0.01-9.49
		c0-0.91-0.01-1.91-1.33-1.81c-1.12,0.08-1.05,1-1.05,1.79c-0.02,2.57-0.01,5.14-0.01,7.71c-0.65-0.09-1.03-0.39-1.18-1.1
		c-0.86-4.3-0.88-4.3-5.13-4.3c-0.79,0-1.59,0.05-2.37-0.01c-1.48-0.11-2.13,0.44-2.16,2.02c-0.03,1.85-0.7,3.52-2.37,4.6
		c0,0,0,0,0,0c0.01-3.61,0.01-7.21,0.02-10.82c1.81,0.25,2.52-0.5,2.41-2.34c-0.12-1.98,0.02-3.98-0.04-5.97
		c-0.05-1.79,0.76-2.56,2.52-2.48c0.99,0.05,2-0.06,2.99,0.02c2.42,0.19,4.66,0.18,4.29-3.59c1.44,1.05,0.95,2.21,1.01,3.17
		c0.07,1.1,0.52,1.88,1.62,1.5c2.24-0.77,1.99,0.68,1.99,2c0,7.77,0,15.53,0.01,23.3C346.45,405.67,346.45,406.86,346.45,408.06z"/>
	<path class="st12" d="M215.66,484.28c-0.01-4.19-0.02-8.38-0.03-12.57c0.01-0.41,0.02-0.83,0.04-1.24c1.46-0.2,1.16-1.33,1.17-2.26
		c0.03-2.44,0.01-4.88,0.02-7.32c1.7,0,3.39,0.01,5.09,0c1.58-0.01,3.25,0.28,4.43-1.17c0.5-0.62,0.96-1.45,1.91-0.97
		c0.89,0.45,0.54,1.41,0.55,2.16c0.03,3.39,0.02,6.79,0.02,10.18c0,1.4,0,2.8,0,4.2c-0.48-0.09-1.22-0.02-1.4-0.3
		c-2.48-4-6.33-1.5-9.52-1.97c-1.19-0.18-1.06,1.2-1.07,2.06c-0.03,2.29,0.01,4.59-0.02,6.88
		C216.83,482.9,217.15,484.07,215.66,484.28z"/>
	<path class="st9" d="M228.85,471.09c0-3.39,0.02-6.79-0.02-10.18c-0.01-0.75,0.34-1.71-0.55-2.16c-0.95-0.48-1.4,0.35-1.91,0.97
		c-1.19,1.46-2.86,1.16-4.43,1.17c-1.7,0.01-3.39,0-5.09,0c0-2.78,0.07-5.56-0.03-8.34c-0.06-1.71,0.4-2.55,2.32-2.48
		c11.09,0.4,9.78-1.52,9.71-10.2c-0.01-0.99,0.01-1.99,0.02-2.98c0.54,0.42,0.54,1.03,0.54,1.63c-0.03,10.88-0.06,21.76-0.08,32.64
		C229.17,471.11,229.01,471.09,228.85,471.09z"/>
	<path class="st10" d="M215.67,470.47c-0.01,0.41-0.02,0.83-0.04,1.24c-1.49,0.2-1.15,1.37-1.16,2.29c-0.03,2.86,0,5.73-0.03,8.59
		c-0.01,0.94,0.28,2.08-1.19,2.29c0-7.4,0-14.8,0-22.2c0-1.4,0-2.79,0.01-4.19c1.65-0.31,1.15-1.63,1.17-2.63
		c0.05-2.99,0.02-5.99,0.02-8.98c0.41,0,0.81,0.01,1.22,0.01C215.67,454.76,215.67,462.61,215.67,470.47z"/>
	<path class="st9" d="M213.25,462.69c0,7.4,0,14.8,0,22.2c0,0,0,0,0,0c-0.4,0-0.79-0.01-1.19-0.01c0-4.15,0.01-8.3-0.03-12.44
		c-0.01-1.01,0.41-2.3-1.21-2.58c0-2.77,0-5.55,0-8.32c0.01-4.22,0.02-8.43,0.03-12.65c0.4,0,0.79,0.01,1.19,0.01
		c0.01,3.74-0.01,7.48,0.03,11.22C212.08,461.1,211.61,462.41,213.25,462.69z"/>
	<path class="st13" d="M213.25,462.69c-1.64-0.28-1.17-1.59-1.18-2.58c-0.05-3.74-0.03-7.48-0.03-11.22
		c0.1-0.71-0.21-1.56,1.22-2.62c0,4.45,0,8.33,0,12.22C213.25,459.9,213.25,461.3,213.25,462.69z"/>
	<path class="st12" d="M210.82,446.39c-0.72,0.14-1.03,0.49-1.16,0.92v13.59c0.18,0.2,0.36,0.4,0.54,0.6c0,0-0.03,0.05-0.03,0.05
		c0.22-0.01,0.43-0.01,0.65-0.02c0.01-4.22,0.02-8.43,0.03-12.65C210.84,448.05,210.83,447.22,210.82,446.39z"/>
	<path class="st10" d="M369.26,494.48c-0.01-3.19-0.02-6.38-0.02-9.57c0-3.21,0.01-6.41,0.01-9.62c1.93-0.38,0.94-1.94,1.2-3
		c2.09,0,4.19-0.05,6.28,0.01c2.33,0.06,3.51-0.79,3.35-3.34c-0.17-2.68-0.04-5.38-0.04-8.07c0-3.8,0-7.6,0-11.4
		c0.06-0.86,0.12-1.73,0.18-2.59c0.34,0,0.69-0.01,1.03-0.01c0,6.27,0,12.53,0,18.8c0,3.2-0.01,6.41-0.01,9.61
		c-1.06,0.11-1.21,0.84-1.2,1.71c0.02,1.49-0.16,3.01,0.03,4.48c0.37,2.81-0.77,3.55-3.49,3.47c-6.14-0.18-6.08-0.04-6.2,6.02
		C370.38,492.16,371.34,493.88,369.26,494.48z"/>
	<path class="st9" d="M380.04,449.48c0,3.8,0,7.6,0,11.4c-2.47,0-4.94,0.07-7.4-0.02c-1.68-0.06-2.27,0.61-2.22,2.25
		c0.08,3.06,0.03,6.12,0.03,9.17c-0.27,1.05,0.73,2.61-1.2,3l0,0c0-6.4,0-12.8,0-19.19l0.01-0.01c1.95-0.46,1.21-2.08,1.14-3.15
		c-0.18-2.63,1.02-3.54,3.47-3.46C375.92,449.55,377.98,449.49,380.04,449.48z"/>
	<path class="st12" d="M381.25,475.29c0-3.2,0.01-6.41,0.01-9.61c1.45,0.21,1.17,1.34,1.19,2.29c0.02,1.77,0.01,3.55,0.01,5.32
		c0,0.89-0.09,1.85,1.18,1.98c0.01,3.21,0.01,6.41,0.02,9.62c0,3.19-0.01,6.39-0.01,9.58c-0.79,0-1.59,0.01-2.38,0.01l0,0
		C381.25,488.09,381.25,481.69,381.25,475.29z"/>
	<path class="st9" d="M366.85,441.69c0-1.6,0.01-3.19,0.01-4.79c1.76-0.23,2.45,0.45,2.42,2.3c-0.09,5.63-0.03,11.25-0.03,16.88
		c0,0-0.01,0.01-0.01,0.01c-0.79,0-1.59,0-2.38,0C366.85,451.29,366.85,446.49,366.85,441.69z"/>
	<path class="st10" d="M383.65,484.89c-0.01-3.21-0.01-6.41-0.02-9.62c0.01-9.59,0.01-19.19,0.02-28.78l0,0
		c0.44,0.01,0.88,0.02,1.32,0.03c-0.02,9.51-0.03,19.01-0.05,28.52c-0.02,3.28-0.05,6.56-0.07,9.84
		C384.45,484.89,384.05,484.89,383.65,484.89z"/>
	<path class="st12" d="M383.65,446.49c-1.36-0.36-2.23-1.22-2.36-2.62c-0.08-0.83-0.29-1.93,1-2.08c1.28-0.15,1.35,0.83,1.35,1.76
		C383.65,444.53,383.65,445.51,383.65,446.49C383.65,446.5,383.65,446.49,383.65,446.49z"/>
	<path class="st5" d="M182.36,513.08c-0.6,0-1.19-0.02-1.79,0c-1.85,0.07-3.58,0.28-3.39-2.61c0.16-2.46,0.82-4.02,3.55-3.99
		c1.29,0.02,2.6,0.14,3.87-0.03c2.69-0.34,3.71,0.6,3.51,3.41C187.82,513.83,188.28,512.99,182.36,513.08z"/>
	<path class="st5" d="M173.66,505.89c0.71-0.24,1.43-0.47,2.4-0.8c0,2.01-0.1,3.85,0.03,5.69c0.12,1.85-0.64,2.54-2.41,2.27
		C173.67,510.67,173.66,508.28,173.66,505.89z"/>
	<path class="st11" d="M173.66,505.89c0.01,2.39,0.01,4.78,0.02,7.16c-0.19-0.04-0.47-0.02-0.56-0.14
		c-1.23-1.74-0.88-7.48,0.52-8.82l0.01,0.01C173.65,504.7,173.65,505.29,173.66,505.89z"/>
	<path class="st5" d="M173.63,504.09c0.14-0.98-0.38-2.37,1.4-2.32c0.55,0.01,0.92,0.39,0.94,0.94c0.04,1.79-1.36,1.25-2.33,1.39
		C173.64,504.11,173.63,504.09,173.63,504.09z"/>
	<path class="st10" d="M215.66,484.28c1.49-0.21,1.17-1.38,1.18-2.32c0.03-2.29,0-4.59,0.02-6.88c0.01-0.87-0.12-2.24,1.07-2.06
		c3.19,0.48,7.03-2.02,9.52,1.97c0.18,0.28,0.92,0.21,1.4,0.3c0,6.4-0.01,12.8-0.01,19.2c-0.4,0-0.79,0-1.19,0
		c0-2.28-0.1-4.57,0.03-6.84c0.11-1.98-0.42-2.98-2.62-2.79c-1.87,0.16-3.77,0.13-5.65,0.01c-1.91-0.13-2.68,0.52-2.59,2.51
		c0.13,3.17,0.04,6.35,0.04,9.52c0,2.24,0.01,4.48-0.02,6.72c-0.01,0.92,0.29,2.06-1.17,2.26c-0.01-6.59-0.03-13.18-0.04-19.77
		C215.64,485.49,215.65,484.89,215.66,484.28z"/>
	<path class="st11" d="M216.86,496.89c0-3.17,0.09-6.35-0.04-9.52c-0.08-1.99,0.69-2.64,2.59-2.51c1.88,0.12,3.78,0.15,5.65-0.01
		c2.2-0.19,2.73,0.81,2.62,2.79c-0.13,2.27-0.03,4.56-0.03,6.84C224.75,498.41,220.53,496.43,216.86,496.89z"/>
	<path class="st5" d="M228.89,513.02c-3.29,0.02-6.58-0.05-9.86,0.09c-2.95,0.12-2.09-1.98-2.17-3.49c-0.08-1.57-0.4-3.37,2.22-3.14
		c1.29,0.11,2.59,0.07,3.88,0c1.46-0.07,3.26,0.66,3.73-1.8c0.16-0.85,1.37-0.51,2.14-0.58
		C228.85,507.07,228.87,510.04,228.89,513.02z"/>
	<path class="st5" d="M215.63,486.1c0.01,6.59,0.02,13.18,0.04,19.77c-0.01,1.69,0.01,3.39-0.03,5.08
		c-0.02,0.85,0.23,1.96-1.11,2.03c-1.35,0.07-1.35-1-1.26-1.88c0.39-3.68-0.31-7.3,0.89-11.11c1.08-3.45,0.24-7.49,0.32-11.28
		C214.49,487.73,213.96,486.4,215.63,486.1z"/>
	<path class="st5" d="M212.05,500.49c0-0.6-0.01-1.2-0.01-1.8c-0.79,0-1.58,0-2.38,0c0,0.32-0.01,0.64-0.01,0.95v13.5
		c1.86,0.17,2.51-0.68,2.43-2.58C211.96,507.21,212.05,503.85,212.05,500.49z"/>
	<path class="st8" d="M228.89,513.02c-0.02-2.98-0.04-5.95-0.06-8.93c0-3.2,0.01-6.4,0.01-9.6c0-6.4,0.01-12.8,0.01-19.2
		c0-1.4,0-2.8,0-4.2c0.16,0,0.32,0.02,0.48,0.07c-0.02,13.94-0.03,27.88-0.05,41.82c0,0-0.19,0.06-0.19,0.06L228.89,513.02z"/>
	<path class="st10" d="M212.05,500.49c0-0.6-0.01-1.2-0.01-1.8c0-4.6,0-9.19-0.01-13.79l0.02-0.02c0.4,0,0.79,0.01,1.19,0.01
		c0,4.34,0.02,8.68-0.02,13.02C213.22,498.89,213.7,500.21,212.05,500.49z"/>
	<path class="st1" d="M366.85,441.69c0,4.8,0.01,9.61,0.01,14.41c-0.01,3.2-0.01,6.41-0.02,9.61c-0.38-0.01-0.76-0.03-1.13-0.04
		c-0.02-7.23-0.04-14.45-0.04-21.68C365.66,443.04,365.38,441.9,366.85,441.69z"/>
	<path class="st11" d="M264.85,496.89c-2.28,0-4.56,0-6.84,0c-1.51,0-3.24,0.36-2.76-2.79c-3.27,3.17-2.69,6.44-2.11,9.35
		c0.41,2.03-0.06,3.13-1.48,4.22c-0.01-2.6-0.01-5.19-0.02-7.79c0-5,0-10,0.01-15.01c4.8,0,9.6,0,14.4,0l0,0c0,3.2,0,6.4-0.01,9.61
		C264.44,494.68,264.97,495.95,264.85,496.89z"/>
	<path class="st5" d="M264.85,496.89c0.12-0.94-0.41-2.2,1.2-2.4c-0.72,5.12,1.15,10.03,1.24,15.08c0.01,0.72,0.51,1.01,1.15,1.1
		c-0.02,0.79-0.04,1.59-0.06,2.38c-4.37,0.01-8.75-0.1-13.12,0.07c-2.43,0.09-2.79-1.25-2.33-2.96c0.58-2.2,1.43-3.9,4.54-3.78
		c7.37,0.29,7.38,0.08,7.38-7.41C264.85,498.28,264.85,497.58,264.85,496.89z"/>
	<path class="st5" d="M251.67,510.87c-0.11-1.05-0.01-2.12-0.01-3.19c-0.01-2.6-0.01-5.19-0.02-7.79c-1.47,0.2-1.18,1.34-1.19,2.28
		c-0.03,1.87,0.01,3.75-0.02,5.62c-0.01,0.64,0.12,1.37-0.27,1.84v3.46C251.24,512.99,251.83,512.37,251.67,510.87z"/>
	<path class="st11" d="M305.66,481.29c0.01,1.39,0.01,2.77,0.02,4.16c-0.01,2.02-0.02,4.03-0.03,6.05
		c-0.34,0.18-0.94,0.31-0.97,0.53c-0.66,4.43-3.47,5.47-7.43,4.89c-1.17-0.17-2.39-0.03-3.58-0.03c-0.01-4-0.01-7.99-0.02-11.99
		c0,0,0.02-0.01,0.02-0.01c2.17,0,4.35-0.03,6.52,0.01c2.25,0.04,4.76,0.54,4.53-3.08C304.7,481.66,305.33,481.47,305.66,481.29z"/>
	<path class="st2" d="M293.66,496.88c1.19,0,2.41-0.14,3.58,0.03c3.97,0.57,6.77-0.46,7.43-4.89c0.03-0.22,0.64-0.36,0.97-0.53
		c0,4.2,0.01,8.39,0.01,12.59c-0.1,0.02-0.26,0.01-0.28,0.06c-2.62,5-7.11,1.31-10.62,2.22c-1.12,0.29-1.08-1.15-1.09-2.02
		C293.64,501.86,293.66,499.37,293.66,496.88z"/>
	<path class="st10" d="M292.41,507.67c-2.15-0.7-0.77-2.5-1.15-3.74c-0.36-1.16,0.84-2.86-1.19-3.45c0-5.2,0-10.4,0-15.59
		c1.44,0.23,1.16,1.36,1.17,2.3c0.02,1.87-0.01,3.74,0.02,5.6c0.02,0.93-0.31,2.08,1.16,2.3
		C292.42,499.27,292.41,503.47,292.41,507.67z"/>
	<path class="st12" d="M292.42,495.08c-1.47-0.22-1.14-1.37-1.16-2.3c-0.03-1.87,0.01-3.74-0.02-5.6c-0.01-0.94,0.27-2.07-1.17-2.3
		c0-3.2-0.01-6.4-0.01-9.6c1.72-0.12,0.66,2.51,2.37,2.4c0.02,2.41,0.03,4.81,0.05,7.22C292.46,488.29,292.44,491.68,292.42,495.08z
		"/>
	<path class="st2" d="M292.48,484.9c-0.02-2.41-0.03-4.81-0.05-7.22c0.01-4,0.02-7.99,0.02-11.99l0.01,0.01
		c1.25,0.13,1.18,1.06,1.18,1.95c0,1.75,0.01,3.49,0.01,5.24c0,4,0,8,0,12c0,0-0.02,0.01-0.02,0.01
		C293.25,484.9,292.86,484.9,292.48,484.9z"/>
	<path class="st10" d="M305.65,504.08c0-4.2-0.01-8.39-0.01-12.59c0.01-2.01,0.02-4.03,0.03-6.05c1.6,0.34,1.15,1.64,1.15,2.64
		c0.02,5.34-0.01,10.69-0.03,16.03C306.42,504.1,306.04,504.09,305.65,504.08z"/>
	<path class="st1" d="M307.29,454.95c-0.14-0.02-0.29-0.03-0.43-0.04c-0.2-2.37,0.44-4.79-0.5-7.11c-0.18-0.45-0.2-1.01-0.8-1.15
		c-0.6-0.14-0.97,0.19-1.08,0.73c-0.46,2.33-2.22,2.14-3.95,2.11c-2.29-0.04-4.59-0.01-6.88-0.01c-0.14-0.89,0.36-1.93-1.19-3.25
		c0,6.91,0,13.19,0,19.47c0,0-0.01-0.01-0.01-0.01c-1.47-0.2-1.19-1.34-1.2-2.29c-0.02-3.07,0-6.14-0.02-9.21
		c-0.01-0.94,0.28-2.09-1.18-2.3c-0.54-1.76,1.18-4.02-1.2-5.37l-0.02-0.05c0-5.39,0.01-10.79,0.01-16.18
		c1.06-0.07,1.22-0.8,1.2-1.65c-0.01-0.81,0.35-1.29,1.19-1.35c0,2.6,0,5.2,0.01,7.79c0,0.7-0.03,1.48,0.86,1.69
		c0.79,0.19,1.34-0.14,1.58-0.96c0.26-0.88,0.91-1.36,1.79-1.3c2.92,0.22,6.25-1.23,8.6,2.62c0.83-3.5-0.18-6.59,1.15-9.46
		c0.42,2.19,0.38,4.39,0.44,6.58c0.03,0.99-0.5,2.33,1.18,2.61c0.16,0,0.32,0.01,0.48,0.02
		C307.32,442.91,307.3,448.93,307.29,454.95z"/>
	<path class="st6" d="M304.46,379.3c1.97,0.49,1.01,2.09,1.17,3.22c0.44,3.14-1.11,6.64,1.73,9.34c0,6.8,0,13.6,0.01,20.4
		c-0.87-3.97-2.16-7.87-1.76-12.06c0.1-1.02,0.67-2.52-1.15-2.9C304.45,391.29,304.45,385.29,304.46,379.3z"/>
	<path class="st3" d="M304.45,397.29c1.83,0.38,1.25,1.88,1.15,2.9c-0.4,4.18,0.89,8.08,1.76,12.06c0,0.43,0,0.86,0,1.29
		c-0.81,1.57-0.81,3.14,0,4.71c-0.01,6.22-0.01,12.43-0.02,18.65c-0.16-0.01-0.32-0.01-0.48-0.02c0.88-9.08-1.45-18.03-1.21-27.08
		c0.02-0.87-0.15-1.59-1.19-1.71c0-3.2,0-6.4-0.01-9.61C304.45,398.09,304.45,397.69,304.45,397.29z"/>
	<path class="st6" d="M307.36,418.25c-0.81-1.57-0.81-3.14,0-4.71C307.36,415.1,307.36,416.68,307.36,418.25z"/>
	<path class="st6" d="M250.47,385.42c-0.05,5.09,0,10.17-0.05,15.26c-0.01,0.72,0.25,1.63-0.26,2.17v19.18
		c0.45-0.54,0.25-1.4,0.26-2.11c0.04-3.17,0.01-6.35,0.03-9.53c0.01-0.94-0.29-2.1,1.19-2.3c0,0,0.01-0.01,0.01-0.01
		c0-8.46,0-16.92,0-26.01C250.05,383.46,250.48,384.52,250.47,385.42z"/>
	<path class="st13" d="M345.25,408.09c0,12.79,0.01,25.59,0.01,38.38l-0.01,0.03c-1.44-0.21-1.18-1.33-1.19-2.27
		c-0.02-2.45-0.01-4.89-0.01-7.34c0-5.53,0.02-11.07-0.02-16.6c-0.01-0.98,0.49-2.31-1.17-2.59c0-3-0.01-6-0.01-9.01
		c0-0.2,0-0.4,0-0.6C343.65,408.09,344.45,408.09,345.25,408.09L345.25,408.09z"/>
	<path class="st1" d="M345.26,446.47c1.63,0.3,1.17,1.61,1.18,2.6c0.03,5.53,0.01,11.07,0.01,16.6c-0.39,0-0.79,0.01-1.18,0.01
		c-0.01-6.4-0.01-12.79-0.02-19.19L345.26,446.47z"/>
	<path class="st9" d="M345.26,465.69c0.39,0,0.79-0.01,1.18-0.01c0.02,6.39,0.03,12.78,0.05,19.18c0,0-0.07,0.06-0.07,0.06
		c-0.39-0.01-0.77-0.02-1.16-0.03c-0.01-6.4-0.02-12.79-0.04-19.19L345.26,465.69z"/>
	<path class="st6" d="M342.85,408.09c0,0.2,0,0.4,0,0.6c-2.8-0.99-5.72-0.35-8.56-0.64c-2.73-0.27-3.71,0.65-3.53,3.45
		c0.09,1.43,1.09,3.42-1.11,4.39c0-5.4,0-10.8-0.01-16.19c1.67-1.08,2.34-2.75,2.37-4.6c0.03-1.58,0.68-2.13,2.16-2.02
		c0.79,0.06,1.58,0.01,2.37,0.01c4.25,0,4.26,0,5.13,4.3c0.14,0.71,0.53,1,1.18,1.1l0,0C342.85,401.69,342.85,404.89,342.85,408.09z
		"/>
	<path class="st3" d="M329.65,415.89c2.2-0.97,1.2-2.96,1.11-4.39c-0.18-2.79,0.8-3.72,3.53-3.45c2.84,0.29,5.76-0.35,8.56,0.64
		c0,3,0.01,6,0.01,9.01c0,6.4,0,12.8-0.01,19.2c0,0,0,0,0,0c-2.18-0.61-0.8-2.4-1.21-3.6c0-2.5,0-4.99,0-7.49
		c0-3.9-0.01-3.97-3.86-3.89c-2.99,0.07-5.88,0.16-6.14-4.48c-1.07,1.51-0.71,2.62-0.78,3.64c-0.06,0.9,0.08,1.87-1.21,2.02
		C329.65,420.69,329.65,418.29,329.65,415.89z"/>
	<path class="st13" d="M329.65,423.09c1.29-0.14,1.15-1.12,1.21-2.02c0.07-1.02-0.29-2.13,0.78-3.64c0.26,4.64,3.15,4.55,6.14,4.48
		c3.86-0.09,3.86-0.02,3.86,3.89c0,2.5,0,4.99,0,7.49c-1.68,0-3.39,0.2-5.03-0.05c-2.98-0.45-4.66,0.98-5.48,3.56
		c-0.38,1.18-0.2,2.53-0.28,3.8c-0.06,0.94,0.27,2.08-1.2,2.29c0-2-0.01-3.99-0.01-5.99C329.64,432.3,329.65,427.69,329.65,423.09z"
		/>
	<path class="st12" d="M329.64,436.9c0,2,0.01,3.99,0.01,5.99c0,8.83-0.02,17.66,0.03,26.5c0.01,1.04-0.67,2.52,1.16,2.9
		c0,4.2,0,8.4,0,12.6c-0.4,0-0.8,0.01-1.21,0.01l-0.01,0.01c0.01-2.45-0.08-4.9,0.05-7.34c0.1-1.86-0.69-2.49-2.42-2.26
		c0-6.4,0-12.79-0.01-19.19c1.64-0.3,1.17-1.61,1.18-2.61c0.04-4.67,0-9.33,0.04-14C328.49,438.52,327.97,437.19,329.64,436.9z"/>
	<path class="st11" d="M385.7,511.5c-0.52-0.84-0.24-1.83-0.24-2.74c-0.03-11.17-0.02-22.34-0.02-33.51
		c-0.17-0.08-0.34-0.15-0.52-0.2c-0.02,3.28-0.05,6.56-0.07,9.84c0,8.48-0.01,16.96,0.04,25.43c0.01,0.92-0.54,2.17,0.82,2.66V511.5
		z"/>
	<path class="st2" d="M385.7,511.5v-36c-0.07-0.09-0.15-0.18-0.26-0.25c0,11.17-0.01,22.34,0.02,33.51
		C385.46,509.67,385.18,510.66,385.7,511.5z"/>
	<path class="st11" d="M288.85,504.08c0-6.4-0.01-12.81-0.01-19.21c-0.07,0-0.13,0-0.2,0v27.72c0.3-0.44,0.18-1.09,0.19-1.65
		C288.86,508.65,288.84,506.37,288.85,504.08z"/>
	<path class="st12" d="M288.84,465.68c-0.07,0-0.14,0-0.21,0v19.18c0.07,0,0.13,0,0.2,0c0-3.19,0.01-6.39,0.01-9.58
		C288.85,472.09,288.85,468.89,288.84,465.68z"/>
	<path class="st9" d="M288.84,446.47c-0.07,0-0.14,0-0.21,0v19.22c0.07,0,0.14,0,0.21,0c0-6.39,0.01-12.78,0.01-19.17
		C288.86,446.51,288.84,446.47,288.84,446.47z"/>
	<path class="st8" d="M209.66,499.66c0-0.32,0.01-0.65,0.01-0.97c0-0.4,0-0.81,0-1.21c0-0.99,0.01-1.98,0.01-2.97
		c-0.01-3.15-0.02-6.3-0.02-9.45V499.66z"/>
	<path class="st8" d="M210.17,461.55c-0.21,0.13-0.38,0.28-0.52,0.44v8.85c0.1-0.46,0.39-0.83,1.16-0.98c0-2.77,0-5.55,0-8.32
		C210.61,461.54,210.39,461.54,210.17,461.55z"/>
	<path class="st11" d="M381.25,475.29c0,6.4,0.01,12.79,0.01,19.19c-1.93,0.39-0.95,1.95-1.21,3c-0.99,0-1.97-0.01-2.96,0
		c-7.53,0.07-6.57-0.93-6.64,6.6c-0.4,0-0.8,0-1.2,0l0,0c0-3.2,0.01-6.41,0.01-9.61c2.08-0.6,1.12-2.32,1.14-3.51
		c0.11-6.06,0.06-6.2,6.2-6.02c2.72,0.08,3.85-0.66,3.49-3.47c-0.19-1.47-0.02-2.98-0.03-4.48
		C380.04,476.13,380.19,475.41,381.25,475.29z"/>
	<path class="st11" d="M369.25,475.29c0,3.21-0.01,6.41-0.01,9.62c-1.48,0.2-1.15,1.35-1.17,2.28c-0.03,1.68,0.01,3.35-0.02,5.03
		c-0.01,0.95,0.26,2.08-1.2,2.28c0-6,0-12,0-18C367.64,476.09,368.45,475.69,369.25,475.29L369.25,475.29z"/>
	<path class="st11" d="M369.26,513.06c-0.41,0-0.82-0.01-1.22-0.01c0-2.24,0-4.48,0.02-6.72c0.01-0.94-0.24-2.05,1.19-2.24
		c0,0,0,0,0,0C369.25,507.08,369.26,510.07,369.26,513.06z"/>
	<path class="st6" d="M304.45,398.49c0,3.2,0,6.4,0.01,9.61c0,0.2,0,0.4,0,0.6c-4.36-1.2-8.8-0.35-13.2-0.6l0,0c0-3.05,0-6.11,0-9.9
		c-1.75,2.01-0.94,3.7-1.2,5.19c-0.18,1.05,0.63,2.52-1.19,2.91c0-4.79,0.06-9.59-0.04-14.38c-0.04-1.83,0.57-2.86,2.43-3.02
		c0,2.85,0,5.71,0,8.62c0.55-0.09,0.85-0.06,0.89-0.15c0.61-1.37-0.12-3.62,1.9-3.99c2.71-0.5,5.54-0.72,8.25,0.21
		c1.08,0.37,0.89,1.41,0.97,2.3C303.35,396.87,302.76,398.21,304.45,398.49z"/>
	<path class="st13" d="M291.25,427.29c-0.84,0.06-1.2,0.54-1.19,1.35c0.01,0.85-0.15,1.58-1.2,1.65c0-6.25,0.02-12.5-0.01-18.74
		c-0.01-1.77,0.37-3.16,2.41-3.45c0,0,0,0,0,0C291.25,414.49,291.25,420.89,291.25,427.29L291.25,427.29z"/>
	<path class="st12" d="M292.46,465.7c0-6.28,0-12.56,0-19.47c1.55,1.31,1.05,2.36,1.19,3.25c0,1.29-0.07,2.59,0.01,3.88
		c0.14,2.36-0.97,5.22,0.5,6.95c1.33,1.56,4.14,0.41,6.29,0.56c1.9,0.13,3,0.85,2.82,2.95c-0.04,0.51-0.24,1.22,0.82,1.55
		c0.98-2.27-0.37-4.94,1.02-7.47c1.23,2.54-0.33,5.11,1.14,7.2c0,2.59-0.01,5.19-0.01,7.78c-0.2,0-0.41,0-0.61,0
		c-2.44-1.03-0.23,2.33-2.12,1.98c-0.06-1.93-1.43-2.06-3.04-2c-2.28,0.08-4.56,0.02-6.84,0.02c0-1.75-0.01-3.49-0.01-5.24
		C293.64,466.77,293.71,465.83,292.46,465.7z"/>
	<path class="st9" d="M306.27,465.11c-1.47-2.09,0.09-4.66-1.14-7.2c-1.39,2.53-0.04,5.2-1.02,7.47c-1.06-0.33-0.87-1.04-0.82-1.55
		c0.18-2.1-0.92-2.81-2.82-2.95c-2.15-0.15-4.96,1-6.29-0.56c-1.47-1.72-0.36-4.59-0.5-6.95c-0.08-1.29-0.01-2.59-0.01-3.88
		c2.29,0,4.59-0.03,6.88,0.01c1.73,0.03,3.48,0.22,3.95-2.11c0.11-0.54,0.48-0.87,1.08-0.73c0.6,0.14,0.62,0.7,0.8,1.15
		c0.94,2.32,0.29,4.74,0.5,7.11C306.54,458.31,307.57,461.77,306.27,465.11z"/>
	<path class="st10" d="M293.65,472.89c2.28,0,4.56,0.06,6.84-0.02c1.61-0.06,2.98,0.07,3.04,2c1.89,0.34-0.32-3.01,2.12-1.98
		c0,0.21,0.01,0.42,0.01,0.63c0,0.38,0,0.76,0,1.14c0,0.22,0.01,0.44,0.01,0.66c0,1.99-0.01,3.98-0.01,5.97
		c-0.33,0.18-0.97,0.37-0.96,0.53c0.23,3.63-2.28,3.12-4.53,3.08c-2.17-0.04-4.35-0.01-6.52-0.01
		C293.65,480.89,293.65,476.89,293.65,472.89z"/>
	<path class="st9" d="M305.66,473.52c0-0.21-0.01-0.42-0.01-0.63c0.2,0,0.41,0,0.61,0C306.06,473.1,305.86,473.31,305.66,473.52z"/>
	<path class="st9" d="M305.67,475.32c0-0.22-0.01-0.44-0.01-0.66C306.07,474.87,306.08,475.09,305.67,475.32z"/>
	<path class="st2" d="M414.86,494.51c0.54,1.83-1.45,3.01-1.21,4.77c-0.63,1.76-1.56,1.79-2.31,0.19c-0.41-0.87-0.45-1.91-1.29-2.58
		c-0.41-0.89,1.74-1.77,0.48-2.15c-2.45-0.73-1.44-2.46-1.68-3.85c0.47-0.25,0.59-0.69,0.62-1.18c0.48,0.01,0.92,0.11,1.19,0.58
		c0.22,2.57,1.31,4.26,4.17,4.18L414.86,494.51z"/>
	<path class="st5" d="M406.46,489.67c0,6.92,0.02,13.84-0.03,20.76c-0.01,0.97,0.55,2.3-1.09,2.64c-0.03-7.14-0.05-14.28-0.08-21.41
		C405.26,490.75,405.18,489.79,406.46,489.67z"/>
	<path class="st12" d="M414.83,494.47c-2.87,0.08-3.96-1.62-4.17-4.18c0.19,0,0.38,0.02,0.56,0.04c1,1.39,2.22,2.56,3.57,3.6
		C414.82,494.11,414.83,494.29,414.83,494.47z"/>
	<path class="st12" d="M409.47,489.71c-0.03,0.49-0.15,0.93-0.62,1.18c-0.39-0.01-0.79-0.02-1.18-0.03c0-0.4,0-0.79,0-1.19
		C408.26,490.29,408.9,487.93,409.47,489.71z"/>
	<path class="st5" d="M369.26,513.06c0-2.99-0.01-5.98-0.01-8.97c0.4,0,0.8,0,1.2,0c-0.21,1.74,0.45,2.4,2.31,2.44
		c7.3,0.19,7.29,0.26,7.3-6.97c0-0.69,0-1.38,0-2.08c0.26-1.06-0.72-2.62,1.21-3c0,0,0,0,0,0c0,6.19,0,12.38,0,18.57
		C377.26,513.05,373.26,513.05,369.26,513.06z"/>
	<path class="st11" d="M381.25,513.05c0-6.19,0-12.38,0-18.57c0.79,0,1.59-0.01,2.38-0.01c0,5.43-0.06,10.87,0.04,16.3
		C383.71,512.62,383.04,513.34,381.25,513.05z"/>
	<path class="st10" d="M369.25,475.29c-0.8,0.4-1.6,0.8-2.41,1.21c0-3.6,0-7.19-0.01-10.79c0.01-3.2,0.01-6.41,0.02-9.61
		c0.8,0,1.59,0,2.38,0C369.25,462.49,369.25,468.89,369.25,475.29z"/>
	<path class="st5" d="M424.51,507.34c-0.73-3.89-3.22-6.94-7.26-9.25c-0.4,1.92-1.94,0.95-3,1.19c-0.2,0-0.4,0-0.6,0
		c-0.63,1.76-1.56,1.79-2.31,0.19c-0.41-0.87-0.45-1.91-1.29-2.58c-2.51,1.81-1.54,4.68-0.81,6.38c0.75,1.77,3.5,0.99,5.36,0.38
		c1.18-0.38,2.24-1.12,3.67-1.87c-0.23,1.6,1.74,2.42,0.97,3.57c-0.34,0.5-2.17-0.02-3.33-0.05c-0.6-0.02-1.2-0.03-1.79,0
		c-1.58,0.1-3.41-0.58-4.68,0.33c-1.32,0.94-0.42,2.79-0.59,4.24c-0.09,0.8-0.33,1.33-1.2,1.4c-0.17,1.76,0.95,1.84,2.26,1.83
		c4.84-0.03,9.67-0.02,14.51-0.02c0.04-0.19,0.06-0.38,0.09-0.57V507.34z"/>
	<path class="st2" d="M417.25,498.09c-0.4,1.92-1.94,0.95-3,1.19C414.65,497.37,416.19,498.34,417.25,498.09z"/>
	<path class="st11" d="M410.05,496.89c-2.51,1.81-1.54,4.68-0.81,6.38c0.75,1.77,3.5,0.99,5.36,0.38c1.18-0.38,2.24-1.12,3.67-1.87
		c-0.23,1.6,1.74,2.42,0.97,3.57c-0.34,0.5-2.17-0.02-3.33-0.05c-0.6-0.02-1.2-0.03-1.79,0c-1.58,0.1-3.41-0.58-4.68,0.33
		c-1.32,0.94-0.42,2.79-0.59,4.24c-0.09,0.8-0.33,1.33-1.2,1.4c0.01-6.8,0.01-13.6,0.02-20.4c0.39,0.01,0.79,0.02,1.18,0.03
		c0.24,1.4-0.77,3.12,1.68,3.85C411.79,495.12,409.64,496.01,410.05,496.89z"/>
	<path class="st5" d="M341.66,511.29c0.14,1.76-1,1.82-2.3,1.8c-4.04-0.05-8.09-0.05-12.14-0.07c0.01-6.18,0.03-12.35,0.05-18.53
		c1.44-0.22,1.16-1.35,1.18-2.29c0.02-1.67-0.02-3.34,0.02-5.01c0.02-0.93-0.31-2.08,1.16-2.29c0,0,0.01-0.01,0.01-0.01
		c0.01,6.39,0.02,12.79,0.02,19.18c0.1,1.49-0.31,3.04,0.71,5.38c0.44-2.84,0.33-5.87,3.58-3.02c0.28,0.25,0.96,0.05,1.46,0.05
		c2.08,0,4.16,0,6.24,0C341.65,508.09,341.65,509.69,341.66,511.29z"/>
	<path class="st11" d="M329.62,484.91c-1.47,0.21-1.14,1.36-1.16,2.29c-0.03,1.67,0.01,3.34-0.02,5.01
		c-0.01,0.94,0.26,2.07-1.18,2.29c0-6.4-0.01-12.8-0.01-19.19c1.73-0.23,2.52,0.4,2.42,2.26
		C329.54,480.01,329.63,482.46,329.62,484.91z"/>
	<path class="st2" d="M288.84,484.87c0-3.19,0.01-6.39,0.01-9.58c0.4,0,0.8,0,1.2,0l0.01-0.01c0,3.2,0.01,6.4,0.01,9.6
		c0,5.2,0,10.4,0,15.59c-0.01,1.2-0.01,2.41-0.02,3.61c-0.4,0-0.8,0-1.21,0C288.84,497.68,288.84,491.27,288.84,484.87z"/>
	<path class="st10" d="M345.26,484.88c0.39,0.01,0.77,0.02,1.16,0.03c-0.03,9.4-0.05,18.79-0.08,28.19
		c-0.37-0.02-0.74-0.03-1.11-0.05c0.01-3.19,0.01-6.38,0.02-9.57c-0.01-6.2-0.01-12.4-0.02-18.59L345.26,484.88z"/>
	<path class="st11" d="M341.66,511.29c0-1.6-0.01-3.2-0.01-4.8c0-0.79,0-1.59,0-2.38c0-7.02,0-7.09-7.04-7.18
		c-1.89-0.03-2.68-0.53-2.59-2.52c0.13-3.17,0.03-6.34,0.03-9.51c0,0,0,0,0,0c3.2,0,6.39,0.01,9.59,0.01c0,2.44-0.01,4.89,0.02,7.33
		c0.01,0.93-0.29,2.06,1.18,2.26c0,0,0.03,0.02,0.03,0.02c-0.02,5.59-0.03,11.19-0.05,16.78
		C342.43,511.28,342.04,511.29,341.66,511.29z"/>
	<path class="st5" d="M342.81,511.28c0.02-5.59,0.03-11.19,0.05-16.78c2.3,1.06,0.72,3.11,1.18,4.64c0.44,1.44-0.99,3.39,1.2,4.35
		c-0.01,3.19-0.01,6.38-0.02,9.57C343.89,513.18,342.68,513.15,342.81,511.28z"/>
	<path class="st6" d="M267.86,390.11c0,4.67,0.02,9.33-0.03,14c-0.01,0.82-0.26,1.26-1.21,2c-4.36,3.41-9.26,1.08-13.77,1.99
		c-0.29-4.63,0.27-9.17,1.18-13.7c0.35-1.74,1.3-2.18,2.75-1.67c1.57,0.55,3.15,0.38,4.72,0.34c1.54-0.04,2.85-0.51,3.43-2.28
		C265.46,389.2,266.44,388.39,267.86,390.11z"/>
	<path class="st6" d="M252.85,408.09c0,3.24,0.01,6.48-0.01,9.72c-0.01,0.94,0.27,2.07-1.18,2.27c0-4-0.01-7.99-0.01-11.99
		c0,0,0.01-0.01,0.01-0.01C252.05,408.08,252.45,408.09,252.85,408.09z"/>
	<path class="st13" d="M267.25,430.89c0-3.68,0.01-7.36-0.01-11.04c-0.01-0.84,0.24-1.96-1.09-2.06c-1.35-0.1-1.39,0.98-1.27,1.85
		c0.37,2.84-1.42,3.35-3.59,3.43c-1.68,0.06-3.33-0.07-5.01-0.45c-1.98-0.44-3.56,0.16-3.46,2.74c0.03,0.71,0.53,1.82-1.15,2.27
		c0-2.64,0-5.1,0-7.55c0-4-0.01-7.99-0.01-11.99c-1.48,0.2-1.18,1.36-1.19,2.3c-0.02,3.18,0.01,6.35-0.03,9.53
		c-0.01,0.72,0.19,1.57-0.26,2.11v28.21c0.49-0.56,0.25-1.44,0.26-2.17c0.04-5.08,0-10.17,0.05-15.25c0.01-0.91-0.41-1.96,1.18-3.37
		c0,6.1,0,11.56,0,17.03c1.96-0.49,1.01-2.08,1.17-3.21c0.36-2.46-0.75-5.09,1.3-7.37c0.91-1.01,1.51-1.61,2.93-1.16
		c1.92,0.61,3.95,0.59,5.87,0.04c2.03-0.58,2.51,0.39,2.52,2.09c0.91,0.78,0.58,1.85,0.58,2.8c0.03,4.69,0.03,9.38,0.01,14.06
		c-0.01,1.28-0.03,2.49,1.8,2.33C267.78,447.68,268.16,439.27,267.25,430.89z"/>
	<path class="st12" d="M251.66,464.48c0.1-0.02,0.27-0.01,0.28-0.06c1.6-4.47,5.38-3.54,8.78-3.54c1.75,0,3.6,0.37,5.01-2.49
		c0.64,4.39-0.23,7.94,1.71,11.76c0.82-3.6,0.13-6.72,1-9.74c0,4.96,0,9.92,0,14.87c-1.22,2.34-0.36,4.85-0.55,7.27
		c-0.1,1.28-0.03,2.47-1.83,2.31c0,0,0,0,0,0c0-3.48,0.02-6.97-0.02-10.45c-0.01-0.71,0.18-2.14-0.84-1.81
		c-3.59,1.17-7.9-1.51-10.99,2.13c-0.65,0.76-1.66,0.5-2.55,0.53C251.65,471.68,251.65,468.08,251.66,464.48z"/>
	<path class="st1" d="M251.66,446.48c1.96-0.49,1.01-2.08,1.17-3.21c0.36-2.46-0.75-5.09,1.3-7.37c0.91-1.01,1.51-1.61,2.93-1.16
		c1.92,0.61,3.95,0.59,5.87,0.04c2.03-0.58,2.51,0.39,2.52,2.09c-1.3,3.25-0.56,6.65-0.52,9.96c0.03,2.68-0.79,3.65-3.39,3.27
		c-0.88-0.13-1.8,0.07-2.68-0.04c-2.65-0.32-4.07,0.61-3.61,3.46c0.47,2.9-2.23,2.67-3.6,3.75c0,0,0,0,0,0
		C251.65,453.68,251.66,450.08,251.66,446.48z"/>
	<path class="st10" d="M266.05,484.89c1.79,0.15,1.72-1.03,1.83-2.31c0.19-2.42-0.67-4.93,0.55-7.27c0,11.79,0.01,23.58,0.01,35.37
		c-0.65-0.09-1.14-0.37-1.15-1.1c-0.09-5.06-1.97-9.96-1.24-15.08C266.05,491.29,266.05,488.09,266.05,484.89z"/>
	<path class="st10" d="M251.66,464.48c0,3.6,0,7.2,0,10.8l-0.01,0.01c-0.4,0-0.8-0.01-1.2-0.01c0-5.14-0.02-10.28,0.02-15.42
		c0.01-0.99-0.47-2.3,1.18-2.59c0,0,0,0,0,0C251.65,459.69,251.65,462.09,251.66,464.48z"/>
	<path class="st6" d="M342.85,398.49c0-2.57-0.01-5.14,0.01-7.71c0.01-0.78-0.06-1.7,1.05-1.79c1.32-0.1,1.33,0.89,1.33,1.81
		c0.01,3.16,0.01,6.33,0.01,9.49C343.87,400.47,344.23,398.31,342.85,398.49L342.85,398.49z"/>
	<path class="st3" d="M342.85,398.49c1.38-0.18,1.01,1.98,2.4,1.8c0,2.6,0,5.2,0,7.8c-0.8,0-1.59,0-2.39,0
		C342.85,404.89,342.85,401.69,342.85,398.49z"/>
	<path class="st10" d="M210.82,469.86c-0.77,0.15-1.06,0.52-1.16,0.98v1.5c0,0.04,0.01,0.09,0,0.13c0,0.54,0,1.08,0,1.62v10.81
		c0.79,0,1.59,0.01,2.38,0.01c0,0,0.02-0.02,0.02-0.02c0-4.15,0.01-8.3-0.03-12.44C212.03,471.43,212.44,470.14,210.82,469.86z"/>
	<path class="st12" d="M370.45,472.29c0-3.06,0.06-6.12-0.03-9.17c-0.05-1.65,0.54-2.31,2.22-2.25c2.46,0.09,4.93,0.02,7.4,0.02
		c0,2.69-0.13,5.39,0.04,8.07c0.16,2.55-1.02,3.4-3.35,3.34C374.64,472.24,372.55,472.29,370.45,472.29z"/>
	<path class="st2" d="M209.67,498.69c0.79,0,1.58,0,2.38,0c0-4.6,0-9.19-0.01-13.79c-0.79,0-1.59-0.01-2.38-0.01v0.18
		c0.01,3.15,0.02,6.3,0.02,9.45c0.85,0.99,0.85,1.98-0.01,2.97C209.67,497.88,209.67,498.29,209.67,498.69z"/>
	<path class="st10" d="M251.65,475.28c0.88-0.03,1.9,0.23,2.55-0.53c3.09-3.65,7.4-0.96,10.99-2.13c1.02-0.33,0.83,1.1,0.84,1.81
		c0.04,3.48,0.02,6.97,0.02,10.45c-4.8,0-9.6,0-14.4,0c0-3.2-0.01-6.39-0.01-9.59L251.65,475.28z"/>
	<path class="st2" d="M251.64,475.3c-0.4,0-0.8-0.01-1.2-0.01c0,2.44,0.01,4.88-0.02,7.32c-0.01,0.64,0.12,1.36-0.26,1.83v25.2
		c0.39-0.46,0.26-1.2,0.27-1.84c0.03-1.87,0-3.75,0.02-5.62c0.01-0.94-0.28-2.08,1.19-2.28c0-5,0-10,0.01-15.01
		C251.65,481.69,251.65,478.49,251.64,475.3z"/>
	<path class="st9" d="M290.05,451.89c1.46,0.22,1.18,1.36,1.18,2.3c0.02,3.07,0,6.14,0.02,9.21c0.01,0.95-0.27,2.09,1.2,2.29
		c-0.01,4-0.02,7.99-0.02,11.99c-1.71,0.11-0.65-2.51-2.37-2.4c0,0-0.01,0.01-0.01,0.01C290.05,467.49,290.05,459.69,290.05,451.89z
		"/>
	<path class="st13" d="M304.45,408.69c0-0.2,0-0.4,0-0.6c1.05,0.12,1.21,0.83,1.19,1.71c-0.24,9.06,2.09,18,1.21,27.08
		c-1.69-0.28-1.16-1.62-1.18-2.61c-0.06-2.19-0.02-4.39-0.44-6.58c-1.33,2.86-0.32,5.96-1.15,9.46c-2.35-3.85-5.67-2.4-8.6-2.62
		c-0.88-0.07-1.53,0.42-1.79,1.3c-0.24,0.82-0.79,1.15-1.58,0.96c-0.89-0.22-0.85-0.99-0.86-1.69c-0.01-2.6-0.01-5.2-0.01-7.79
		c0,0,0.01-0.01,0.01-0.01c1.76,0.14,2.24-1.02,2.37-2.42c0.1-1.05,0.17-2.2,1.44-2.26c2.48-0.13,5.11-0.71,7.4,0.29
		c1.92,0.84,2,0.22,1.99-1.31C304.43,417.29,304.45,412.99,304.45,408.69z"/>
	<path class="st10" d="M290.05,451.89c0,7.8,0,15.6,0,23.4c-0.4,0-0.8,0-1.2,0c0-3.2,0-6.4-0.01-9.6c0-6.39,0.01-12.78,0.01-19.17
		C291.23,447.87,289.51,450.13,290.05,451.89z"/>
	<path class="st9" d="M251.66,429.46c-1.6,1.41-1.17,2.46-1.18,3.37c-0.05,5.08-0.01,10.17-0.05,15.25
		c-0.01,0.73,0.23,1.61-0.26,2.17v34.19c0.37-0.47,0.25-1.2,0.26-1.83c0.03-2.44,0.02-4.88,0.02-7.32c0-5.14-0.02-10.28,0.02-15.42
		c0.01-0.99-0.47-2.3,1.18-2.59c0-3.6,0-7.2,0.01-10.8C251.66,441.02,251.66,435.56,251.66,429.46z"/>
	<path class="st12" d="M345.24,446.5c0.01,6.4,0.01,12.79,0.02,19.19c0,0-0.04,0.01-0.03,0.01c-1.44-0.22-1.16-1.35-1.17-2.29
		c-0.03-1.67,0.02-3.34-0.02-5.01c-0.02-0.92,0.32-2.08-1.16-2.29c-0.01-6.41-0.02-12.81-0.03-19.22c0,0,0,0,0,0c0.4,0,0.8,0,1.19,0
		c0,2.45-0.01,4.89,0.01,7.34C344.07,445.17,343.81,446.29,345.24,446.5z"/>
	<path class="st1" d="M344.05,436.89c-0.4,0-0.8,0-1.19,0c0-6.4,0-12.8,0.01-19.2c1.66,0.28,1.16,1.61,1.17,2.59
		C344.07,425.82,344.05,431.36,344.05,436.89z"/>
	<path class="st11" d="M342.88,456.11c1.47,0.21,1.14,1.36,1.16,2.29c0.04,1.67-0.01,3.34,0.02,5.01c0.01,0.94-0.27,2.07,1.17,2.29
		c0.01,6.4,0.02,12.79,0.04,19.19c0,0-0.03,0.01-0.03,0.01c-1.45-0.22-1.16-1.35-1.17-2.29c-0.03-1.67,0.01-3.34-0.02-5.02
		c-0.02-0.93,0.29-2.08-1.17-2.29c-0.01-1.21-0.03-2.42-0.04-3.62C342.85,466.49,342.86,461.3,342.88,456.11z"/>
	<path class="st1" d="M342.88,456.11c-0.02,5.19-0.03,10.37-0.05,15.56c-1.47-0.2-1.16-1.34-1.17-2.27
		c-0.03-2.84-0.02-5.68-0.02-8.52c0-2.78-0.22-5.58,0.06-8.32c0.33-3.12-0.85-3.84-3.81-3.75c-7.08,0.21-7.08,0.06-7.03,7.28
		c0,3.2,0.01,6.4,0.01,9.6c-0.01,2.2-0.02,4.39-0.03,6.59c-1.83-0.38-1.16-1.86-1.16-2.9c-0.05-8.83-0.03-17.66-0.03-26.5
		c1.47-0.2,1.14-1.34,1.2-2.29c0.08-1.27-0.1-2.62,0.28-3.8c0.82-2.58,2.5-4,5.48-3.56c1.64,0.25,3.35,0.05,5.03,0.05
		c0.41,1.2-0.97,3,1.21,3.6C342.86,443.3,342.87,449.71,342.88,456.11z"/>
	<path class="st10" d="M329.66,504.08c-0.01-6.39-0.02-12.79-0.02-19.18c0.4,0,0.8-0.01,1.21-0.01c0,0,0.02,0,0.02,0
		c-0.01,5.53,0.01,11.06-0.04,16.6C330.82,502.47,331.32,503.8,329.66,504.08z"/>
	<path class="st11" d="M330.84,472.29c0.01-2.2,0.02-4.39,0.03-6.59c0.39,0,0.77,0,1.16,0c0,2.2,0.01,4.39,0.01,6.59
		c0,4.2,0,8.4,0,12.6c0,0,0,0,0,0c-0.39,0-0.79,0-1.18,0c0,0-0.02,0-0.02,0C330.84,480.69,330.84,476.49,330.84,472.29z"/>
	<path class="st5" d="M209.68,494.51c0.85,0.99,0.85,1.98-0.01,2.97C209.67,496.49,209.68,495.5,209.68,494.51z"/>
	<path class="st2" d="M380.05,497.49c0,0.69,0,1.38,0,2.08c0,7.23,0,7.16-7.3,6.97c-1.86-0.05-2.52-0.7-2.31-2.44
		c0.07-7.53-0.9-6.52,6.64-6.6C378.07,497.48,379.06,497.49,380.05,497.49z"/>
	<path class="st3" d="M304.45,408.69c0,4.3-0.02,8.6,0,12.89c0.01,1.53-0.07,2.15-1.99,1.31c-2.28-1-4.92-0.43-7.4-0.29
		c-1.27,0.07-1.35,1.22-1.44,2.26c-0.13,1.4-0.61,2.57-2.37,2.42c0-6.4,0-12.8-0.01-19.19
		C295.65,408.34,300.09,407.49,304.45,408.69z"/>
	<path class="st2" d="M330.86,484.89c0.39,0,0.79,0,1.18,0c0,3.17,0.1,6.35-0.03,9.51c-0.08,2,0.7,2.5,2.59,2.52
		c7.04,0.1,7.04,0.16,7.04,7.18c0,0.79,0,1.59,0,2.38c-2.08,0-4.16,0-6.24,0c-0.49,0-1.17,0.2-1.46-0.05
		c-3.25-2.85-3.13,0.18-3.58,3.02c-1.02-2.34-0.61-3.89-0.71-5.38c1.66-0.28,1.16-1.61,1.16-2.59
		C330.87,495.96,330.86,490.43,330.86,484.89z"/>
	<path class="st2" d="M342.87,475.3c1.46,0.21,1.15,1.35,1.17,2.29c0.03,1.67-0.01,3.34,0.02,5.02c0.01,0.94-0.27,2.07,1.17,2.29
		c0.01,6.2,0.01,12.4,0.02,18.59c-2.19-0.96-0.77-2.91-1.2-4.35c-0.46-1.53,1.12-3.58-1.18-4.64c0,0-0.03-0.02-0.03-0.02
		C342.85,488.09,342.86,481.69,342.87,475.3z"/>
	<path class="st12" d="M342.87,475.3c-0.01,6.39-0.02,12.79-0.04,19.18c-1.46-0.19-1.17-1.33-1.18-2.26
		c-0.03-2.44-0.01-4.88-0.02-7.33c0-3.46-0.05-6.91,0.03-10.37c0.04-1.64-0.52-2.33-2.21-2.26c-2.46,0.09-4.94,0.02-7.4,0.02
		c0-2.2-0.01-4.39-0.01-6.59c0-1.6,0.01-3.21,0.01-4.81c3.2,0,6.39,0,9.59,0c0,2.84-0.01,5.68,0.02,8.52
		c0.01,0.93-0.3,2.07,1.17,2.27C342.85,472.88,342.86,474.09,342.87,475.3z"/>
	<path class="st10" d="M332.05,472.29c2.47,0,4.94,0.07,7.4-0.02c1.69-0.06,2.25,0.63,2.21,2.26c-0.08,3.45-0.03,6.91-0.03,10.37
		c-3.2,0-6.39,0-9.59-0.01C332.05,480.69,332.05,476.49,332.05,472.29z"/>
	<path class="st9" d="M341.64,460.89c-3.2,0-6.39,0-9.59,0c-0.52-1.57,1.19-3.68-1.19-4.79c-0.05-7.22-0.04-7.08,7.03-7.28
		c2.96-0.09,4.14,0.63,3.81,3.75C341.42,455.32,341.64,458.11,341.64,460.89z"/>
	<path class="st10" d="M330.86,456.1c2.38,1.1,0.67,3.22,1.19,4.79c0,1.6-0.01,3.21-0.01,4.81c-0.39,0-0.77,0-1.16,0
		C330.87,462.5,330.87,459.3,330.86,456.1z"/>
</g>
</svg>
