<?xml version="1.0" encoding="utf-8"?>
<!-- Generator: Adobe Illustrator 23.0.3, SVG Export Plug-In . SVG Version: 6.00 Build 0)  -->
<svg version="1.1" id="Layer_1" xmlns="http://www.w3.org/2000/svg" xmlns:xlink="http://www.w3.org/1999/xlink" x="0px" y="0px"
	 viewBox="0 0 595.28 841.89" style="enable-background:new 0 0 595.28 841.89;" xml:space="preserve">
<style type="text/css">
	.st0{fill:#4B4B4B;}
</style>
<g>
	<g>
		<path class="st0" d="M469.86,369.74v11.48c0,6.07-4.95,11.07-11.02,11.07h-56.26l-0.41-11.53c-0.36-10.36-8.72-18.41-19.08-18.41
			c-10.51,0-19.08,8.57-19.08,19.08v0.26c0,10.51,8.57,19.08,19.08,19.08h9.23h1.84c-0.87,8.42-7.96,15-16.63,15v8.47
			c13.31,0,24.23-10.36,25.1-23.46h0.2h55.96c10.76,0,19.49-8.72,19.49-19.49v-11.48h-8.42V369.74z M392.37,392.24h-9.23
			c-5.87,0-10.61-4.74-10.61-10.61v-0.26c0-5.87,4.74-10.61,10.61-10.61c5.76,0,10.41,4.49,10.61,10.25l0.41,11.22L392.37,392.24
			L392.37,392.24z"/>
		<path class="st0" d="M347.94,369.74h-8.47v18.16c0,8.88-7.19,16.07-16.07,16.07c-8.88,0-16.07-7.19-16.07-16.07v-18.16h-8.47
			v18.16c0,13.52,11.02,24.54,24.54,24.54c13.52,0,24.54-11.02,24.54-24.54V369.74z"/>
		
			<ellipse transform="matrix(0.9732 -0.2298 0.2298 0.9732 -73.1324 83.8453)" class="st0" cx="323.4" cy="355.9" rx="4.54" ry="4.54"/>
		<circle class="st0" cx="459.3" cy="355.92" r="4.54"/>
		<path class="st0" d="M232.81,362.55l-12.55,21.53c10.61,9.33,17.6,22.09,17.6,37.34c0,28.21-22.85,51.06-51.06,51.06
			s-51.93-22.85-51.93-51.06c0-3.83,0.31-7.09,1.12-10.66l-23.82,13.93c0,38,31.78,71.47,74.63,71.47
			c41.27,0,74.73-33.46,74.73-74.73C261.53,397.49,250.31,376.22,232.81,362.55z"/>
		<path class="st0" d="M196.59,371.58l12.65-21.73c0,0-10.92-6.27-31.78-2.7l-15.92,27.8C161.5,375,174.86,366.17,196.59,371.58z"/>
		<path class="st0" d="M363.86,438.66c-9.23,0-16.73,7.8-16.73,17.45s7.5,17.45,16.73,17.45c9.23,0,16.73-7.8,16.73-17.45
			S373.09,438.66,363.86,438.66z M363.86,465.18c-4.59,0-8.31-4.08-8.31-9.13s3.72-9.13,8.31-9.13c4.59,0,8.31,4.08,8.31,9.13
			S368.45,465.18,363.86,465.18z"/>
		<path class="st0" d="M413.54,438.66c-9.23,0-16.73,7.8-16.73,17.45s7.5,17.45,16.73,17.45c9.23,0,16.73-7.8,16.73-17.45
			S422.77,438.66,413.54,438.66z M413.54,465.18c-4.59,0-8.31-4.08-8.31-9.13s3.72-9.13,8.31-9.13s8.31,4.08,8.31,9.13
			S418.13,465.18,413.54,465.18z"/>
		<path class="st0" d="M465.16,438.66c-6.33,0-9.9,3.42-9.9,3.42l-0.82-2.6h-6.53v33.31h8.37c0,0,0-11.58,0-18.67s7.6-7.14,7.6-7.14
			c5.76,0,6.02,6.17,6.02,6.17v19.69h8.21v-21.32C477.15,438.09,465.16,438.66,465.16,438.66z"/>
		<path class="st0" d="M316.11,438.66c-6.33,0-9.9,3.42-9.9,3.42l-0.82-2.6h-6.53v33.31h8.37c0,0,0-11.58,0-18.67s7.6-7.14,7.6-7.14
			c5.76,0,6.02,6.17,6.02,6.17v19.69h8.21v-21.32C328.05,438.09,316.11,438.66,316.11,438.66z"/>
	</g>
</g>
</svg>
