<?xml version="1.0" encoding="utf-8"?>
<!-- Generator: Adobe Illustrator 23.0.3, SVG Export Plug-In . SVG Version: 6.00 Build 0)  -->
<svg version="1.1" id="Layer_1" xmlns="http://www.w3.org/2000/svg" xmlns:xlink="http://www.w3.org/1999/xlink" x="0px" y="0px"
	 viewBox="0 0 595.3 841.9" style="enable-background:new 0 0 595.3 841.9;" xml:space="preserve">
<style type="text/css">
	.st0{fill:#4F018C;}
	.st1{fill:#04BB86;}
	.st2{fill:#4F008C;}
	.st3{fill:#04BA86;}
</style>
<g>
	<path class="st0" d="M88.1,453.5c7.1-1.5,14.2-3.1,21.3-4.6c0.4-0.1,0.7-0.2,0.8,0.4c0.4,5,3.1,8.4,7.2,10.9
		c4.1,2.5,8.6,3.3,13.3,2.9c2.3-0.2,4.6-0.5,6.7-1.4c2.9-1.3,5-3.2,5.5-6.5c0.6-3.8-0.9-6.6-4.2-8.4c-2.4-1.3-5-1.9-7.6-2.5
		c-5.7-1.4-11.4-2.6-17.1-4.1c-6.4-1.8-12.2-5-16.9-9.8c-4.3-4.3-6.3-9.7-6.6-15.8c-0.2-7,1.6-13.3,5.9-18.9c2.6-3.4,6-5.9,9.6-8
		c6.7-3.8,14-5.5,21.8-5.5c6.2,0,12.2,0.9,17.9,3.4c5.9,2.5,11.2,6,15.1,11.1c2.8,3.6,4.4,7.7,5.1,12.1c0.1,0.5,0,0.7-0.6,0.9
		c-6.7,1.5-13.4,3-20.1,4.5c-0.2,0.1-0.7,0.4-0.8-0.3c-1.1-6.6-5.4-10.1-11.5-11.7c-4.6-1.2-9.2-0.8-13.6,1
		c-0.9,0.3-1.6,0.9-2.4,1.4c-4.1,3-4.9,9.5,0.7,12.9c2.3,1.4,4.9,1.9,7.5,2.4c5.6,1.1,11.2,2,16.7,3.3c6.7,1.6,12.6,4.8,17.5,9.6
		c5.6,5.6,8.1,12.5,7.7,20.4c-0.5,9.3-4.6,16.6-12.3,21.9c-6.4,4.4-13.4,6.9-21.1,7.5c-0.2,0-0.3,0-0.4,0.2c-1.5,0-3.1,0-4.6,0
		c0-0.5-0.5-0.3-0.7-0.3c-10.4,0.2-19.8-2.8-28.2-9.1c-5.9-4.4-9.9-10-11.5-17.3c-0.1-0.5,0-1.1-0.4-1.5
		C88.1,454.3,88.1,453.9,88.1,453.5z"/>
	<path class="st0" d="M209.4,482.8c-0.8-0.4-1.7-0.3-2.6-0.5c-6.1-1.1-11.5-3.6-15.9-7.8c-3-2.8-4.8-6.4-6.2-10.3
		c-1.1-3.3-1.6-6.7-1.6-10.1c0-14.5,0-28.9,0-43.4c0-0.8,0.2-1.1,1-1.1c7.8,0,15.6,0,23.4,0c0.3,0,0.7,0.1,1-0.1c0,0.5,0,1.1,0,1.6
		c0,10.1,0,20.1,0,30.2c0,2.5,0,4.9-0.1,7.4c-0.4,6.8,5.4,12.1,12.1,11.3c2.2-0.2,4.4-0.2,6.5-0.8c2.4-0.6,4.7-1.7,6.8-3.1
		c0.2,0.2,0.1,0.4,0.1,0.6c0,6.4,0,12.8,0,19.1c0,0.5-0.2,0.8-0.6,1.1c-4.6,3.1-9.7,4.9-15.3,5.5c-0.2,0-0.4-0.1-0.5,0.2
		C214.9,482.8,212.1,482.8,209.4,482.8z"/>
	<path class="st1" d="M507.2,384.1c-0.8,2-1.3,4-1.9,6c-5.1,16.6-10.3,33.2-15.4,49.8c-0.7,2.3-1.6,4.4-3.1,6.4
		c-1.9,2.6-4.6,3.9-7.8,4.2c-3,0.2-6,0.1-9,0.1c-0.5,0-0.6-0.2-0.6-0.6c0-3.1,0-6.1,0-9.2c0-0.5,0.2-0.6,0.7-0.6c2.3,0,4.5,0,6.8,0
		c2.3,0,4-1.2,4.6-3.4c0.4-1.4,0.8-2.8,1.3-4.2c0.2-0.6,0.2-1.1,0-1.7c-5-15.4-10-30.9-15-46.3c-0.1-0.3-0.3-0.5-0.2-0.9
		c3.3,0,6.6,0,10,0c0.5,0,0.5,0.4,0.6,0.7c1.5,5.1,3,10.3,4.4,15.4c1.6,5.5,3.2,11,4.7,16.5c0.1,0.2,0.1,0.5,0.3,0.8
		c1-3.7,2-7.3,3-10.9c2-7.2,4-14.5,6-21.7c0.2-0.6,0.4-0.8,1.1-0.8c3.2,0,6.3,0,9.5,0C507.2,383.9,507.2,384,507.2,384.1z"/>
	<path class="st2" d="M208.6,385.1c-8.2,0-16.5,0-24.7,0c-0.4,0-0.7,0.1-0.7-0.5c0-8.5,0-17,0-25.5c8.5,0,16.9,0,25.4,0
		C208.6,367.7,208.6,376.4,208.6,385.1z"/>
	<path class="st0" d="M288.6,482.8c0,0,0.1-0.1,0.1-0.1c0,0,0,0,0-0.1c1,0,1.9,0,2.9,0c0,0.1,0,0.1,0,0.2
		C290.6,482.8,289.6,482.8,288.6,482.8z"/>
	<path class="st2" d="M291.6,482.7c-1,0-1.9,0-2.9,0c-4-0.1-7.8-0.9-11.6-2c-7.6-2.3-14.3-6.1-20-11.7c-5.3-5.3-9.1-11.6-11.7-18.6
		c-6.7-18.5-2.6-39.3,10.9-53.6c4.6-4.9,10.2-8.3,16.4-10.8c7.6-3,15.5-3.9,23.6-3.3c10.6,0.8,19.9,4.7,27.8,11.8
		c5,4.5,8.4,10.1,10.7,16.4c0.4,1,0.6,2.1,1,3.1c0.1,0.4,0,0.5-0.4,0.7c-7.3,2.4-14.7,4.9-22,7.4c-0.7,0.2-0.6-0.3-0.7-0.6
		c-1.5-4.4-3.9-8.1-7.5-11c-4.5-3.6-9.6-4.9-15.2-4.5c-5.7,0.4-10.8,2.4-14.9,6.4c-3.3,3.1-5.4,7.1-6.5,11.5
		c-2.2,9.1-1.5,17.9,4,25.8c3.3,4.9,8.1,7.6,13.7,8.8c7.3,1.6,14,0.3,20-4.4c3.4-2.7,5.7-6.2,7-10.4c0.2-0.6,0.4-0.7,0.9-0.5
		c7,2.4,14,4.7,21.1,7c0.7,0.2,0.8,0.5,0.6,1.1c-3.9,12.6-12,21.4-23.8,27c-6.2,2.9-12.7,4.3-19.6,4.2
		C292.2,482.5,291.9,482.4,291.6,482.7z"/>
	<path class="st1" d="M371.8,390.3c1.1-1.1,2-2.1,3-2.8c3.8-2.8,8-3.8,12.7-3.6c10,0.6,17.6,7.5,19.7,18c1.5,7.1,0.9,14.1-2.6,20.6
		c-4.2,7.8-11.8,11.7-20.6,10.9c-4.7-0.4-8.6-2.4-11.7-5.9c-0.1-0.1-0.2-0.3-0.5-0.4c0,0.3,0,0.6,0,0.9c0,7.3,0,14.5,0,21.8
		c0,0.7-0.2,0.9-0.9,0.9c-3.1-0.1-6.2-0.2-9.2-0.2c-0.8,0-0.9-0.3-0.9-0.9c0-12,0-24,0-36c0-9.1,0-18.3,0-27.4c0-0.8,0.2-1,1-1
		c3.1,0,6.2,0,9.2,0c0.6,0,0.8,0.2,0.8,0.8C371.8,387.3,371.8,388.7,371.8,390.3z M396.5,408.2c0-1-0.1-2.6-0.5-4.1
		c-1-3.9-3-7.1-6.9-8.7c-6.1-2.4-13.8,0-17,6.8c-0.2,0.5-0.3,0.9-0.3,1.4c0,3.4,0,6.8,0,10.1c0,0.7,0.2,1.4,0.5,2
		c2.4,4.4,6.1,6.9,11.1,7.4c5,0.5,9.4-2,11.5-6.5C396.1,414.2,396.5,411.6,396.5,408.2z"/>
	<path class="st3" d="M448.9,423.8c-1.2,1.3-2.4,2.4-3.7,3.4c-3.3,2.3-6.9,3.5-10.9,3.6c-2.6,0-5.1,0.3-7.6-0.5
		c-5.9-1.8-9.9-5.4-11-11.6c-1.5-8.3,4.1-14.1,10.3-15.7c2.4-0.6,4.9-0.7,7.4-1c4.9-0.6,9.9-1.2,14.9-1.8c0.6-0.1,0.7-0.3,0.6-0.8
		c0-0.6,0-1.1,0-1.7c0.1-2.4-1.5-4.1-4-4.1c-7.4,0-14.8,0-22.3,0c-0.8,0-1.7,0-2.5,0c-0.4,0-0.5-0.1-0.5-0.5c0-2.9,0-5.8,0-8.8
		c0-0.6,0.3-0.6,0.7-0.6c5,0,10,0,15.1,0c4,0,7.9-0.2,11.9,0.1c2.9,0.2,5.6,0.9,8,2.6c3.3,2.2,4.7,5.4,4.8,9.3
		c0.1,5.3,0,10.6,0,15.9c0,5.7,0,11.4,0,17.1c0,0.7-0.2,0.9-0.8,0.9c-3.2,0-6.4,0-9.6,0c-0.7,0-0.8-0.2-0.8-0.8
		C448.9,427.2,448.9,425.6,448.9,423.8z M448.8,411.8c0-0.8,0-1.7,0-2.5c0-0.3-0.1-0.5-0.5-0.4c-0.2,0-0.5,0-0.7,0.1
		c-4.1,0.5-8.2,1.1-12.3,1.6c-1.3,0.2-2.7,0.3-3.9,0.7c-2.2,0.8-3.6,2.2-3.8,4.6c-0.2,2.5,0.9,4.3,3.1,5.4c1.7,0.9,3.6,1.1,5.6,1
		c4.3-0.3,7.9-1.8,10.8-5.1c1.2-1.3,2.1-2.8,1.8-4.7C448.8,412.2,448.9,412,448.8,411.8z"/>
	<path class="st2" d="M208.6,409.7c0-8.2,0-16.4,0-24.6c8.1,0,16.1,0,24.2,0c1.3,0,1.3,0,1.3,1.3c0,7.5,0,14.9,0,22.4
		c0,0.7-0.1,0.9-0.9,0.9c-8,0-15.9,0-23.9,0C209.1,409.7,208.9,409.7,208.6,409.7z"/>
</g>
</svg>
